<?xml version="1.0" encoding="UTF-8"?>
<svg id="Layer_1" xmlns="http://www.w3.org/2000/svg" version="1.1" viewBox="0 0 24 24">
  <!-- Generator: Adobe Illustrator 30.3.0, SVG Export Plug-In . SVG Version: 2.1.3 Build 182)  -->
  <defs>
    <style>
      .st0 {
        fill: #d7df23;
      }
    </style>
  </defs>
  <path class="st0" d="M11.4,9h8c-.45-1.15-1.14-2.14-2.06-2.96s-1.99-1.4-3.19-1.74l-2.75,4.7ZM9.1,11l4-6.9c-.18-.03-.37-.06-.55-.08s-.37-.03-.55-.03c-1.1,0-2.13.21-3.08.63s-1.79.98-2.53,1.68l2.7,4.7ZM4.25,14h5.45l-4-6.9c-.53.68-.95,1.44-1.25,2.26s-.45,1.7-.45,2.64c0,.35.02.69.06,1.01s.1.65.19.99ZM9.85,19.7l2.7-4.7h-7.95c.45,1.15,1.14,2.14,2.06,2.96s1.99,1.4,3.19,1.74ZM12,20c1.1,0,2.13-.21,3.08-.63s1.79-.98,2.53-1.68l-2.7-4.7-4,6.9c.18.03.36.06.54.08s.36.03.56.03ZM18.3,16.9c.53-.68.95-1.44,1.25-2.26s.45-1.7.45-2.64c0-.35-.02-.69-.06-1.01s-.1-.65-.19-.99h-5.45l4,6.9ZM12,22c-1.37,0-2.66-.26-3.88-.79s-2.28-1.24-3.19-2.15-1.63-1.97-2.15-3.19-.79-2.51-.79-3.88.26-2.68.79-3.89,1.24-2.27,2.15-3.18,1.97-1.63,3.19-2.15,2.51-.79,3.88-.79,2.68.26,3.89.79,2.27,1.24,3.18,2.15,1.63,1.97,2.15,3.18.79,2.5.79,3.89-.26,2.66-.79,3.88-1.24,2.28-2.15,3.19-1.97,1.63-3.18,2.15-2.5.79-3.89.79Z"/>
</svg>