<?xml version="1.0" encoding="UTF-8"?>
<svg id="Layer_1" xmlns="http://www.w3.org/2000/svg" version="1.1" viewBox="0 0 24 24">
  <!-- Generator: Adobe Illustrator 30.3.0, SVG Export Plug-In . SVG Version: 2.1.3 Build 182)  -->
  <defs>
    <style>
      .st0 {
        fill: #d7df23;
      }
    </style>
  </defs>
  <path class="st0" d="M11,19.42v-6.85l-6-3.48v6.85l6,3.48ZM13,19.42l6-3.48v-6.85l-6,3.48v6.85ZM12,10.85l5.93-3.43-5.93-3.43-5.93,3.43,5.93,3.43ZM4,17.7c-.32-.18-.56-.43-.74-.73s-.26-.63-.26-1v-7.95c0-.37.09-.7.26-1s.42-.54.74-.73l7-4.03c.32-.18.65-.28,1-.28s.68.09,1,.28l7,4.03c.32.18.56.43.74.73s.26.63.26,1v7.95c0,.37-.09.7-.26,1s-.42.54-.74.73l-7,4.03c-.32.18-.65.28-1,.28s-.68-.09-1-.28l-7-4.03Z"/>
</svg>