<?xml version="1.0" encoding="UTF-8"?>
<svg id="Layer_1" xmlns="http://www.w3.org/2000/svg" version="1.1" viewBox="0 0 24 24">
  <!-- Generator: Adobe Illustrator 30.3.0, SVG Export Plug-In . SVG Version: 2.1.3 Build 182)  -->
  <defs>
    <style>
      .st0 {
        fill: #d7df23;
      }
    </style>
  </defs>
  <path class="st0" d="M8.8,10.95l2.15-2.18-1.4-1.43-1.1,1.1-1.4-1.4,1.08-1.1-1.13-1.13-2.18,2.18,3.98,3.95ZM17,19.17l2.18-2.18-1.13-1.13-1.1,1.08-1.4-1.4,1.08-1.1-1.43-1.4-2.15,2.15,3.95,3.98ZM17.6,5l1.43,1.43-1.43-1.43ZM7.25,21H3v-4.25l4.38-4.38L2,7,7,2l5.4,5.4,3.78-3.8c.2-.2.43-.35.68-.45s.51-.15.78-.15.53.05.78.15.48.25.68.45l1.33,1.35c.2.2.35.43.45.68s.15.51.15.78-.05.52-.15.76-.25.46-.45.66l-3.78,3.8,5.38,5.38-5,5-5.38-5.38-4.38,4.38ZM5,19h1.4l9.8-9.78-1.43-1.43-9.78,9.8v1.4ZM15.5,8.52l-.73-.73,1.43,1.43-.7-.7Z"/>
</svg>