<?xml version="1.0" encoding="UTF-8"?>
<svg id="Layer_1" data-name="Layer 1" xmlns="http://www.w3.org/2000/svg" viewBox="0 0 950 950">
  <defs>
    <style>
      .cls-1 {
        fill: #fff;
      }
    </style>
  </defs>
  <path d="M844.89,537.56c-4.24-4.42-9.06-7.93-14.38-10.53-2.37-4.87-5.56-9.43-9.45-13.48-9.93-10.32-23.12-15.77-38.08-15.77-6.03,0-11.82.9-17.17,2.66v-51c1.05-4.21,1.58-8.61,1.58-13.14,0-13.69-4.69-25.96-13.64-35.47-4.29-4.61-9.3-8.19-14.88-10.72-2.21-4.82-5.21-9.3-8.95-13.3-9.32-9.95-21.91-15.22-36.39-15.22s-26.15,5.08-35.73,14.64c-6.19,6.21-10.48,13.61-12.74,21.88h-77.1c-7.74-2.13-15.96-3.21-24.57-3.21-18.67,0-35.73,4.71-50.71,13.96-2.84,1.76-5.56,3.66-8.14,5.69l-16.33-16.43h-90.32c-7.74-2.13-15.96-3.21-24.57-3.21s-17.41,1.05-25.54,3.21h-116.81v-52.66l-23.86-24.01h-96.87v279.61l23.86,24.01h96.87v-20.72l13.9,20.72h117.39l-3.32-4.56c4.27,1.87,8.66,3.4,13.17,4.56,8,2.13,16.35,3.19,25.07,3.19s17.04-1.05,24.83-3.19h90.05v-32.97c6.87,8.56,15.04,15.85,24.44,21.75,15.09,9.56,32.18,14.4,50.74,14.4,8.74,0,17.04-1.05,24.86-3.19h173.71v-15.75c.84,1.08,1.79,2.13,2.74,3.16,9.93,10.53,23.17,16.09,38.26,16.09s28.31-5.56,38.26-16.09c9.58-10.16,14.67-23.12,14.67-37.47s-5.14-27.36-14.85-37.44ZM213.75,577.19l-50.45-75.23v75.23h-49.19v-231.9h49.19v146.51l47.69-66.43,2.45-3.42h54.64l-.13.18-56.27,72.81,59.9,82.26h-57.82ZM444.39,577.19h-48.24v-12.59c-4.08,3.9-8.82,7.14-14.22,9.72-8.43,4.06-17.93,6.08-28.6,6.08-14.03,0-26.73-3.58-38-10.72-11.3-7.14-20.17-16.72-26.67-28.75-.47-.87-.92-1.76-1.34-2.63-.24-.5-.5-.97-.71-1.47-.45-.92-.84-1.87-1.26-2.82-.5-1.19-.95-2.4-1.37-3.61-.42-1.08-.76-2.19-1.11-3.29-.11-.29-.18-.58-.26-.87-.34-1.08-.63-2.21-.92-3.32-.26-1.05-.53-2.13-.74-3.21-.13-.55-.24-1.08-.34-1.63-.16-.76-.32-1.53-.42-2.32-.11-.68-.21-1.34-.29-2.03-.13-.92-.26-1.84-.4-2.76t0-.05c-.13-1.47-.26-3-.37-4.53-.05-.68-.11-1.39-.11-2.08-.03-.84-.05-1.71-.08-2.61-.03-.71-.03-1.4-.03-2.11,0-15.56,3.24-29.47,9.74-41.71,6.5-12.24,15.33-21.83,26.49-28.73,1.42-.87,2.84-1.69,4.29-2.45.71-.37,1.45-.74,2.19-1.08.47-.24.95-.45,1.45-.68.47-.24.97-.45,1.47-.63.53-.21,1.05-.42,1.58-.63.76-.32,1.5-.58,2.26-.84.68-.26,1.4-.5,2.11-.71h.03c1.63-.53,3.27-.97,4.98-1.37.82-.18,1.61-.37,2.42-.53.79-.16,1.58-.32,2.37-.42.05-.03.13-.03.21-.05.58-.11,1.13-.16,1.74-.26.5-.08,1.03-.13,1.53-.18.53-.05,1.05-.13,1.58-.18,1.11-.11,2.24-.18,3.37-.24.66-.03,1.29-.05,1.97-.08.87-.03,1.76-.05,2.63-.05,1.26,0,2.5.03,3.71.1.16,0,.29,0,.42.03,1,.03,1.97.11,2.95.21.37.03.68.03,1.03.11.89.08,1.79.18,2.66.34.24.03.45.05.66.08h.05c1.26.21,2.5.45,3.74.74.95.18,1.9.42,2.84.68.18.05.34.11.53.16.82.21,1.66.45,2.47.74,1.21.39,2.4.82,3.58,1.29.34.16.68.29,1,.45.9.34,1.79.76,2.63,1.16,5.5,2.63,10.35,5.95,14.53,9.95v-12.85h48.24v155.25ZM634.45,577.19h-48.24v-12.59c-4.08,3.9-8.79,7.14-14.22,9.72-8.43,4.06-17.96,6.08-28.6,6.08-14.06,0-26.73-3.58-38-10.72-11.3-7.14-20.2-16.72-26.67-28.75-6.5-12.01-9.74-25.8-9.74-41.34s3.24-29.47,9.74-41.71c.45-.87.92-1.71,1.42-2.58.58-1,1.13-1.95,1.76-2.9.39-.68.84-1.34,1.29-1.97.82-1.24,1.63-2.4,2.5-3.53.42-.55.87-1.11,1.32-1.66,1.58-1.97,3.27-3.87,5.06-5.66,0,0,.03,0,.05-.03.97-.97,1.97-1.95,3-2.84.71-.66,1.42-1.26,2.16-1.87.11-.05.16-.13.26-.21.45-.37.9-.74,1.4-1.11.05-.05.16-.13.24-.21.79-.61,1.63-1.21,2.48-1.79.05-.03.08-.08.13-.11,1.13-.79,2.26-1.55,3.45-2.26,11.16-6.93,23.88-10.4,38.15-10.4,1.26,0,2.5.03,3.74.1.11,0,.26,0,.37.03,1.05.03,2.11.11,3.13.24.24,0,.47,0,.71.05.76.08,1.53.18,2.29.29.42.05.84.13,1.29.18h.03c.16.03.32.05.5.11.84.13,1.68.29,2.5.45.24.05.47.11.71.18,1.05.21,2.11.47,3.13.76,1.03.26,2.03.58,3.05.92.16.05.26.08.42.13,1,.34,2.03.71,3,1.13.13.08.32.11.45.18,1,.4,1.97.84,2.92,1.32,5.53,2.63,10.37,5.95,14.56,9.95v-12.85h48.24v155.25ZM718.1,577.19h-49.19v-120.28c1.24.71,2.5,1.37,3.79,1.92.45.21.87.42,1.29.58,1.05.45,2.13.87,3.21,1.21.32.13.68.24,1.03.34.29.11.58.18.87.26.5.16,1,.29,1.53.42.87.24,1.79.45,2.71.63.29.05.58.11.87.16,1.9.37,3.84.61,5.85.71.29.03.55.05.87.05.87.05,1.71.08,2.61.08s1.84-.03,2.74-.08,1.79-.11,2.66-.18c.63-.05,1.26-.13,1.87-.21,1.95-.26,3.84-.63,5.69-1.08.95-.24,1.82-.47,2.74-.76h.03c.45-.16.9-.29,1.34-.47.42-.13.79-.26,1.19-.42.55-.21,1.16-.45,1.74-.71.34-.11.71-.29,1.05-.45.5-.21,1-.45,1.53-.71l.03-.03c.68-.32,1.34-.66,1.97-1.03v120.04ZM712.55,431.45c-1.79,1.97-3.82,3.58-6.06,4.85-.37.24-.76.42-1.13.61-.37.18-.74.37-1.13.5,0,0,0,.03-.03.03-.55.24-1.13.45-1.74.63-.03.03-.11.05-.16.05-.61.21-1.21.4-1.84.53-.4.11-.79.18-1.21.26l-.42.08c-.66.1-1.34.21-2.03.29-.47.05-.95.08-1.45.11-.61.03-1.21.05-1.82.05-.29,0-.58,0-.87-.03-.32,0-.58-.03-.84-.03h-.08c-.05,0-.11,0-.16-.03-.5-.03-1-.05-1.5-.13-.5-.05-1-.13-1.45-.21-.58-.11-1.18-.21-1.76-.37-.05-.03-.11-.05-.16-.05-.58-.13-1.16-.29-1.71-.5-.47-.13-.9-.29-1.34-.5-.5-.18-1-.39-1.47-.63-.05-.03-.08-.05-.13-.05-.45-.24-.87-.47-1.32-.71l-.92-.55c-1.84-1.13-3.53-2.55-5.13-4.19-1.92-2-3.48-4.16-4.66-6.45-.18-.32-.37-.66-.5-1-.29-.61-.55-1.24-.82-1.87-.08-.24-.16-.47-.26-.71-.11-.39-.24-.79-.34-1.21-.74-2.5-1.08-5.13-1.08-7.93,0-7.66,2.55-14.06,7.66-19.14,5.11-5.14,11.38-7.69,18.85-7.69,3.87,0,7.4.61,10.53,1.87h.03c3.19,1.26,6.03,3.21,8.45,5.82,4.79,5.08,7.16,11.48,7.16,19.14s-2.37,13.85-7.16,19.17ZM803.89,572.08c-5.45,5.77-12.4,8.64-20.91,8.64s-15.51-2.87-20.93-8.64c-5.45-5.74-8.14-12.77-8.14-21.09s2.69-15.25,8.14-20.91c.58-.61,1.21-1.18,1.82-1.74.26-.24.55-.45.84-.68.37-.32.71-.61,1.11-.84.03-.03.03-.05.05-.05.58-.42,1.19-.82,1.76-1.16.5-.32,1-.61,1.5-.84.29-.16.55-.32.84-.39.63-.32,1.21-.58,1.87-.82.42-.18.87-.34,1.34-.47.26-.11.53-.16.79-.24,0,0,.03-.03.05-.03.58-.16,1.16-.32,1.74-.45.13-.03.21-.05.32-.05,1.37-.32,2.82-.5,4.29-.61.11-.03.24-.03.37-.03.74-.03,1.47-.05,2.24-.05,1.42,0,2.82.05,4.16.24.42.03.9.11,1.32.18.45.08.87.13,1.32.24.39.08.82.16,1.24.29.45.1.9.24,1.34.37.37.13.76.24,1.13.39.82.26,1.63.58,2.4.97.32.13.68.32,1,.5.13.05.26.11.42.21.34.18.68.39,1.03.61.39.24.82.5,1.18.76.4.26.76.55,1.16.82,1.11.84,2.19,1.82,3.21,2.87,5.42,5.66,8.16,12.61,8.16,20.91s-2.74,15.35-8.16,21.09Z"/>
  <rect x="114.1" y="345.29" width="49.19" height=".17"/>
  <polygon class="cls-1" points="271.57 577.21 213.75 577.21 163.29 501.97 163.29 577.21 114.1 577.21 114.1 345.46 163.29 345.46 163.29 491.79 210.98 425.36 213.44 421.95 268.07 421.95 267.95 422.12 211.68 494.94 271.57 577.21"/>
  <rect class="cls-1" x="114.1" y="345.29" width="49.19" height=".17"/>
  <path d="M401.08,421.95c.21.05.45.1.67.17h42.63v-.17h-43.3Z"/>
  <path class="cls-1" d="M401.08,421.95c.21.05.45.1.67.17h42.63v-.17h-43.3Z"/>
  <path class="cls-1" d="M401.74,422.12c-.21-.07-.45-.12-.67-.17h-4.94v12.83c-4.17-3.98-9.01-7.3-14.52-9.94-.86-.41-1.74-.81-2.62-1.17-.33-.14-.67-.29-1-.43-1.19-.48-2.38-.91-3.6-1.29-.81-.29-1.65-.52-2.48-.74-.17-.07-.33-.12-.52-.17-.93-.26-1.88-.5-2.84-.69-1.24-.29-2.48-.52-3.74-.72h-.05c-.21-.05-.43-.07-.64-.1-.88-.14-1.76-.26-2.67-.33-.33-.07-.67-.1-1.03-.12-.98-.1-1.96-.17-2.96-.21-.12-.02-.26-.02-.41-.02-1.22-.07-2.46-.1-3.72-.1-.88,0-1.76.02-2.65.05-.67.02-1.31.05-1.96.1-1.14.05-2.27.12-3.39.24-.52.05-1.05.12-1.57.17-.5.05-1.03.12-1.53.19-.6.1-1.17.17-1.74.26-.07.02-.14.02-.21.05-.79.12-1.57.26-2.36.43-.81.14-1.62.33-2.43.52-1.69.38-3.34.83-4.96,1.36h-.02c-.72.21-1.43.45-2.12.72-.76.26-1.53.55-2.27.83-.52.21-1.05.43-1.57.64-.5.19-1,.41-1.48.64-.5.21-.98.43-1.45.67-.74.36-1.45.72-2.17,1.07-1.45.76-2.89,1.6-4.29,2.46-11.16,6.91-20.01,16.5-26.49,28.73-6.51,12.26-9.75,26.16-9.75,41.7,0,.72,0,1.41.02,2.1v.02c.02.88.05,1.74.1,2.6,0,.69.05,1.38.1,2.07.1,1.53.24,3.05.38,4.53t0,.05c.12.93.24,1.86.38,2.77.07.69.19,1.36.29,2.03.12.79.26,1.55.43,2.31.1.55.21,1.1.33,1.65.21,1.07.48,2.15.74,3.2.29,1.12.57,2.24.93,3.34.07.29.14.57.26.86.33,1.12.69,2.22,1.1,3.29.43,1.22.88,2.43,1.38,3.6.41.95.81,1.91,1.26,2.84.21.5.45.98.69,1.45.43.88.88,1.76,1.36,2.65,6.49,12.04,15.38,21.63,26.66,28.76,11.28,7.13,23.96,10.71,38.01,10.71,10.66,0,20.17-2.03,28.59-6.08,5.39-2.58,10.13-5.82,14.21-9.7v12.59h48.24v-155.09h-42.63ZM395.69,514.14c-1.57,4.36-3.93,8.25-7.03,11.64-2.72,2.96-5.84,5.25-9.32,6.94-4.6,2.19-9.85,3.29-15.76,3.29-6.6,0-12.52-1.55-17.74-4.65-5.2-3.08-9.37-7.39-12.45-12.92-3.1-5.53-4.63-11.83-4.63-18.84s1.53-13.33,4.63-18.86c3.08-5.53,7.25-9.85,12.45-12.92,5.22-3.1,11.14-4.65,17.74-4.65s12.88,1.55,18.22,4.65c5.32,3.08,9.35,7.34,12.14,12.76,2.77,5.44,4.15,11.66,4.15,18.69,0,5.48-.79,10.44-2.38,14.88Z"/>
  <path d="M398.07,499.26c0,5.48-.79,10.44-2.38,14.88-1.57,4.36-3.93,8.25-7.03,11.64-2.72,2.96-5.84,5.25-9.32,6.94-4.6,2.19-9.85,3.29-15.76,3.29-6.6,0-12.52-1.55-17.74-4.65-5.2-3.08-9.37-7.39-12.45-12.92-3.1-5.53-4.63-11.83-4.63-18.84s1.53-13.33,4.63-18.86c3.08-5.53,7.25-9.85,12.45-12.92,5.22-3.1,11.14-4.65,17.74-4.65s12.88,1.55,18.22,4.65c5.32,3.08,9.35,7.34,12.14,12.76,2.77,5.44,4.15,11.66,4.15,18.69Z"/>
  <path d="M591.14,421.95c.21.05.45.1.67.17h42.63v-.17h-43.3Z"/>
  <path class="cls-1" d="M591.81,422.12c-.21-.07-.45-.12-.67-.17h-4.94v12.85c-4.17-4.01-9.04-7.32-14.55-9.97-.95-.48-1.93-.91-2.93-1.31-.14-.07-.31-.12-.45-.19-.98-.41-2-.79-3-1.12-.14-.05-.26-.1-.41-.14-1.03-.33-2.05-.64-3.08-.93-1.03-.29-2.07-.55-3.12-.76-.24-.07-.48-.12-.72-.17-.81-.17-1.65-.33-2.5-.45-.17-.05-.33-.07-.5-.1h-.02c-.43-.07-.86-.14-1.29-.19-.76-.12-1.53-.21-2.29-.29-.24-.05-.48-.07-.72-.07-1.03-.12-2.07-.19-3.12-.24-.12-.02-.26-.02-.38-.02-1.22-.07-2.46-.1-3.72-.1-14.28,0-26.99,3.48-38.18,10.4-1.17.72-2.31,1.48-3.43,2.27-.05.02-.1.07-.14.12-.83.57-1.67,1.17-2.46,1.79-.1.07-.19.14-.26.19-.48.38-.93.74-1.38,1.12-.1.07-.17.14-.26.21-.74.6-1.45,1.22-2.17,1.86-1.03.91-2.03,1.86-3,2.84-.02.02-.05.02-.05.05-1.79,1.79-3.46,3.67-5.06,5.65-.45.55-.88,1.1-1.31,1.67-.86,1.12-1.69,2.29-2.5,3.51-.45.64-.88,1.31-1.29,1.98-.62.95-1.19,1.91-1.76,2.91-.5.86-.98,1.72-1.43,2.58-6.49,12.26-9.73,26.16-9.73,41.7s3.24,29.33,9.73,41.35c6.49,12.04,15.38,21.63,26.68,28.76,11.28,7.13,23.94,10.71,38.01,10.71,10.63,0,20.17-2.03,28.59-6.08,5.41-2.58,10.13-5.82,14.21-9.7v12.59h48.24v-155.09h-42.63ZM585.73,514.14c-1.57,4.36-3.93,8.25-7.03,11.64-2.69,2.96-5.82,5.25-9.3,6.94-4.6,2.19-9.85,3.29-15.76,3.29-6.61,0-12.52-1.55-17.74-4.65-5.22-3.08-9.37-7.39-12.45-12.92-3.1-5.53-4.65-11.83-4.65-18.84s1.55-13.33,4.65-18.86c3.08-5.53,7.23-9.85,12.45-12.92,5.22-3.1,11.14-4.65,17.74-4.65s12.88,1.55,18.19,4.65c5.32,3.08,9.37,7.34,12.14,12.76,2.77,5.44,4.15,11.66,4.15,18.69,0,5.48-.79,10.44-2.38,14.88Z"/>
  <path class="cls-1" d="M591.14,421.95c.21.05.45.1.67.17h42.63v-.17h-43.3Z"/>
  <path d="M588.12,499.26c0,5.48-.79,10.44-2.38,14.88-1.57,4.36-3.93,8.25-7.03,11.64-2.69,2.96-5.82,5.25-9.3,6.94-4.6,2.19-9.85,3.29-15.76,3.29-6.61,0-12.52-1.55-17.74-4.65-5.22-3.08-9.37-7.39-12.45-12.92-3.1-5.53-4.65-11.83-4.65-18.84s1.55-13.33,4.65-18.86c3.08-5.53,7.23-9.85,12.45-12.92,5.22-3.1,11.14-4.65,17.74-4.65s12.88,1.55,18.19,4.65c5.32,3.08,9.37,7.34,12.14,12.76,2.77,5.44,4.15,11.66,4.15,18.69Z"/>
  <path class="cls-1" d="M719.71,412.27c0,7.46-2.38,13.85-7.18,19.17-1.79,1.98-3.82,3.6-6.03,4.86-.38.21-.76.41-1.14.6s-.74.36-1.12.5c-.02,0-.02.02-.05.02-.55.24-1.12.45-1.72.64-.05.02-.12.05-.17.05-.6.21-1.22.38-1.84.52-.41.1-.81.19-1.22.26l-.43.07c-.67.12-1.34.21-2.03.29-.48.05-.95.1-1.45.12-.6.02-1.19.05-1.81.05-.29,0-.57,0-.86-.02-.31,0-.6-.02-.86-.02h-.07s-.1,0-.14-.02c-.52-.02-1.03-.07-1.53-.14-.48-.05-.98-.12-1.43-.21-.6-.1-1.19-.21-1.76-.36-.05-.02-.12-.05-.17-.05-.57-.14-1.14-.31-1.72-.5-.45-.14-.88-.31-1.34-.5-.5-.19-1-.41-1.48-.64-.05-.02-.07-.05-.12-.05-.45-.24-.88-.48-1.31-.72l-.93-.55c-1.84-1.14-3.53-2.55-5.13-4.2-1.93-2-3.48-4.15-4.67-6.44-.19-.33-.36-.67-.5-1-.29-.62-.55-1.24-.81-1.88-.07-.24-.17-.48-.26-.72-.12-.38-.24-.79-.36-1.19-.72-2.5-1.07-5.15-1.07-7.94,0-7.65,2.55-14.04,7.68-19.15,5.1-5.13,11.37-7.68,18.84-7.68,3.89,0,7.39.62,10.54,1.86h.02c3.2,1.29,6.03,3.22,8.44,5.82,4.79,5.1,7.18,11.49,7.18,19.15Z"/>
  <path class="cls-1" d="M718.12,457.15v120.06h-49.19v-120.3c1.24.72,2.5,1.36,3.79,1.93.43.21.86.41,1.29.57,1.05.45,2.12.86,3.2,1.22.33.12.69.24,1.05.33.29.12.57.19.86.26.5.17,1,.29,1.53.43.88.24,1.79.45,2.72.62.29.07.57.12.86.17,1.91.36,3.86.6,5.84.72.29.02.57.05.88.05.86.05,1.72.07,2.6.07.93,0,1.84-.02,2.74-.07.91-.05,1.79-.1,2.67-.19.62-.05,1.24-.12,1.86-.21,1.96-.26,3.84-.62,5.7-1.07.93-.24,1.81-.48,2.72-.76h.02c.45-.14.91-.29,1.36-.48.41-.12.79-.26,1.17-.41.6-.21,1.17-.43,1.74-.72.36-.12.72-.29,1.05-.45.52-.21,1.03-.45,1.53-.72.02,0,.05-.02.05-.02.67-.31,1.34-.67,1.98-1.03Z"/>
  <path class="cls-1" d="M812.04,551c0,8.32-2.72,15.33-8.15,21.08-5.44,5.77-12.4,8.63-20.91,8.63s-15.5-2.86-20.94-8.63c-5.44-5.75-8.13-12.76-8.13-21.08s2.69-15.26,8.13-20.91c.6-.62,1.22-1.19,1.84-1.74.26-.24.55-.45.83-.69.36-.31.72-.6,1.1-.83.02-.02.05-.05.07-.05.57-.43,1.17-.81,1.76-1.17.5-.31,1-.6,1.5-.83.29-.17.55-.29.83-.41.62-.31,1.22-.57,1.86-.81.43-.19.88-.33,1.36-.48.26-.1.52-.17.79-.24,0,0,.02-.02.05-.02.57-.17,1.14-.31,1.74-.45.12-.02.21-.05.31-.05,1.38-.31,2.81-.5,4.29-.6.12-.02.24-.02.36-.02.74-.05,1.48-.07,2.24-.07,1.43,0,2.84.07,4.17.24.43.05.88.12,1.31.19.45.07.88.14,1.31.24.41.07.83.17,1.24.29.45.12.91.24,1.34.38.38.12.76.24,1.14.38.81.26,1.62.6,2.38.98.33.14.69.31,1.03.5.12.05.26.12.41.21.36.19.69.38,1.03.6.41.24.81.5,1.19.76.38.26.76.55,1.14.83,1.12.83,2.19,1.81,3.22,2.86,5.44,5.65,8.15,12.61,8.15,20.91Z"/>
</svg>