<?xml version="1.0" encoding="UTF-8"?>
<svg id="Layer_1" xmlns="http://www.w3.org/2000/svg" version="1.1" viewBox="0 0 24 24">
  <!-- Generator: Adobe Illustrator 30.3.0, SVG Export Plug-In . SVG Version: 2.1.3 Build 182)  -->
  <defs>
    <style>
      .st0 {
        fill: #d7df23;
      }
    </style>
  </defs>
  <path class="st0" d="M7,17v-2h6c-.23-.28-.42-.59-.56-.93s-.25-.69-.34-1.08h-3.1v-2h3.1c.08-.38.2-.74.34-1.08s.33-.64.56-.93H3v-2h14c1.38,0,2.56.49,3.54,1.46s1.46,2.15,1.46,3.54-.49,2.56-1.46,3.54-2.15,1.46-3.54,1.46H7ZM17,15c.83,0,1.54-.29,2.13-.88s.88-1.29.88-2.13-.29-1.54-.88-2.13-1.29-.88-2.13-.88-1.54.29-2.13.88-.88,1.29-.88,2.13.29,1.54.88,2.13,1.29.88,2.13.88ZM2,13v-2h6v2H2ZM3,17v-2h3v2h-3Z"/>
</svg>