<?xml version="1.0" encoding="UTF-8"?>
<svg id="Layer_1" xmlns="http://www.w3.org/2000/svg" version="1.1" viewBox="0 0 24 24">
  <!-- Generator: Adobe Illustrator 30.3.0, SVG Export Plug-In . SVG Version: 2.1.3 Build 182)  -->
  <defs>
    <style>
      .st0 {
        fill: #d7df23;
      }
    </style>
  </defs>
  <path class="st0" d="M15.19,14.69c.88-.88,1.31-1.94,1.31-3.19s-.44-2.31-1.31-3.19-1.94-1.31-3.19-1.31-2.31.44-3.19,1.31-1.31,1.94-1.31,3.19.44,2.31,1.31,3.19,1.94,1.31,3.19,1.31,2.31-.44,3.19-1.31ZM10.09,13.41c-.53-.53-.79-1.16-.79-1.91s.26-1.39.79-1.91,1.16-.79,1.91-.79,1.39.26,1.91.79.79,1.16.79,1.91-.26,1.39-.79,1.91-1.16.79-1.91.79-1.39-.26-1.91-.79ZM5.35,16.96c-2-1.36-3.45-3.18-4.35-5.46.9-2.28,2.35-4.1,4.35-5.46s4.22-2.04,6.65-2.04,4.65.68,6.65,2.04,3.45,3.18,4.35,5.46c-.9,2.28-2.35,4.1-4.35,5.46-2,1.36-4.22,2.04-6.65,2.04s-4.65-.68-6.65-2.04ZM17.19,15.51c1.58-.99,2.78-2.33,3.61-4.01-.83-1.68-2.04-3.02-3.61-4.01s-3.3-1.49-5.19-1.49-3.61.5-5.19,1.49-2.78,2.33-3.61,4.01c.83,1.68,2.04,3.02,3.61,4.01s3.3,1.49,5.19,1.49,3.61-.5,5.19-1.49Z"/>
</svg>