<?xml version="1.0" encoding="UTF-8"?>
<svg id="Layer_1" data-name="Layer 1" xmlns="http://www.w3.org/2000/svg" viewBox="0 0 929.48 906.19">
  <defs>
    <style>
      .cls-1 {
        fill: #fff;
      }
    </style>
  </defs>
  <path class="cls-1" d="M765.02,0H164.47C73.63,0,0,73.63,0,164.47v577.25c0,90.84,73.63,164.47,164.47,164.47h600.55c90.84,0,164.47-73.63,164.47-164.47V164.47C929.48,73.63,855.85,0,765.02,0ZM635.57,522.05c-50.81,52.79-160.07,34.36-170.05-55.39-.24.28-.52.57-.8.8v182.29c0,131.01-196.61,131.01-196.61,0,0-3.07.14-6.1.43-9.12,1.98-21.6,10.92-41.16,24.62-56.48,17.96-20.09,44.09-32.75,73.25-32.75-29.16,0-55.3-12.62-73.25-32.75-15.6-17.39-25.05-40.36-25.05-65.55s9.55-48.49,25.38-65.93c17.96-19.9,43.95-32.37,72.92-32.37-28.97,0-54.96-12.48-72.92-32.37-15.83-17.44-25.38-40.55-25.38-65.93v-.05c0-8.6,1.09-16.97,3.17-24.95,11.06-42.2,49.43-73.35,95.14-73.35h98.3v.05h98.35c101.33,0,124.3,117.63,68.86,170.9-13.8,13.28-32.42,22.54-55.86,25-.57.47-1.09.9-1.56,1.37,28.21,2.93,55.2,16.82,71.41,41.64,8.7,13.33,14.27,29.82,15.27,49.48.14,2.13.19,4.3.19,6.52,0,29.73-10.11,52.7-25.8,68.95ZM753.06,602.15c.09-.09.14-.24.19-.33l.05.05-.24.28Z"/>
  <path class="cls-1" d="M576.07,354.08c-.57.47-1.09.9-1.56,1.37-25.47-2.69-51.99,3.59-72.55,18.76-21.98,16.12-37.19,42.44-37.19,78.88,0,4.68.24,9.22.76,13.56-.24.28-.52.57-.8.8v-112.67h98.35c4.49,0,8.84-.24,13-.71Z"/>
</svg>