<?xml version="1.0" encoding="UTF-8"?>
<svg id="Layer_1" data-name="Layer 1" xmlns="http://www.w3.org/2000/svg" viewBox="0 0 929.4 906.19">
  <defs>
    <style>
      .cls-1 {
        fill: #fff;
      }
    </style>
  </defs>
  <path class="cls-1" d="M692.8,284.63c-8.3,8.43-19.8,13.63-32.54,13.63-.96,0-1.92-.03-2.85-.09h.12-1.02c-13.02,0-24.82-5.18-33.47-13.57h0c-8.18-8.92-13.2-20.86-13.2-33.96,0-.59,0-1.18.03-1.74v.09c-.03-.5-.03-1.05-.03-1.64,0-12.89,5.33-24.51,13.91-32.82h0c8.92-8.4,20.95-13.54,34.21-13.54h.37-.03c.71-.03,1.58-.06,2.42-.06,12.83,0,24.42,5.21,32.82,13.6h0c7.93,8.68,12.8,20.27,12.8,32.97,0,.53,0,1.05-.03,1.55v-.06c.03.53.03,1.15.03,1.74,0,13.14-5.14,25.07-13.57,33.9l.03-.03v.03ZM700.89,634.3c0,4.25-1.52,6.2-4.99,6.2h-75.95c-.12,0-.28.03-.43.03-3.01,0-5.42-2.45-5.42-5.42,0-.28.03-.56.06-.81v.03-298.17c0-3.87,1.58-5.42,5.08-5.42h76.67c3.47,0,4.99,1.92,4.99,5.42v298.14ZM569.22,640.12h-80.97c-.15,0-.34.03-.53.03-2.67,0-4.93-1.8-5.61-4.25v-.03l-31.76-92.16h-144.06l-29.44,91.01c-.65,3.16-3.41,5.48-6.69,5.48-.22,0-.46,0-.68-.03h.03-72.79c-4.25,0-5.42-2.36-4.25-6.97l124.7-359c1.15-3.87,2.32-8.12,3.87-12.77,1.49-7.5,2.32-16.14,2.32-24.98v-.22h0c-.03-.15-.03-.31-.03-.5,0-1.86,1.33-3.44,3.1-3.78h100.34c3.1,0,4.65,1.15,5.02,3.1l141.34,398.85c1.18,4.21,0,6.2-3.87,6.2h-.03ZM764.79,0H164.45C73.63,0,0,73.63,0,164.45v.15h0v577.13c0,90.83,73.63,164.45,164.45,164.45h600.49c90.83,0,164.45-73.63,164.45-164.45v-.15h0V164.45C929.4,73.63,855.77,0,764.95,0h-.15ZM407.74,403.9c-3.87-11.99-7.34-23.61-11.22-35.64-3.87-12.02-7.34-23.24-10.44-34.46-3.1-10.85-5.79-20.92-8.52-30.21h-.77c-4.18,20.2-8.71,36.97-14.13,53.3l.96-3.35c-5.79,18.59-11.62,37.96-17.82,57.3-5.42,19.74-11.22,37.96-17.04,54.23h98.36c-2.32-8.18-5.42-17.82-8.89-27.92-3.47-10.41-6.97-21.66-10.44-33.25h-.03Z"/>
</svg>