<?xml version="1.0" encoding="UTF-8"?>
<svg id="Layer_1" data-name="Layer 1" xmlns="http://www.w3.org/2000/svg" viewBox="0 0 929.4 906.19">
  <defs>
    <style>
      .cls-1 {
        fill: #fff;
      }
    </style>
  </defs>
  <path class="cls-1" d="M575.45,396.15h-1.08c-15.56,0-30.24,3.72-43.23,10.32l.53-.25c-13.45,6.79-24.51,16.52-32.72,28.35l-.19.28c-8.09,12.86-12.86,28.48-12.86,45.21,0,1.39.03,2.79.09,4.15v-.19c-.03.81-.03,1.74-.03,2.7,0,13.36,2.42,26.15,6.85,37.96l-.25-.74c3.97,10.72,9.89,19.89,17.42,27.49h0c7.22,6.91,16.05,12.24,25.84,15.37l.46.12c9.42,3.19,20.27,5.05,31.55,5.05h.62-.03c5.79,0,11.22-.37,16.27-.77.77.06,1.64.09,2.54.09,4.09,0,8.03-.74,11.62-2.11l-.22.06v-170.37c-2.79-.71-6.35-1.39-9.95-1.89l-.5-.06c-4.25-.37-8.52-.77-12.77-.77h.03ZM256.74,231.98h75.52c.22-.03.43-.06.68-.06,2.26,0,4.12,1.7,4.34,3.9v.03c.25.25.4.59.4.99v.19h0v397.3c0,4.25-1.92,6.2-5.42,6.2h-75.89c-3.47,0-5.02-1.92-5.02-6.2V237.03c0-3.47,1.92-5.02,5.42-5.02l-.03-.03ZM602.57,198.67h78.62c.15-.03.31-.03.46-.03,1.67,0,3.04,1.18,3.38,2.73v369.47c0,6.97.37,14.72.77,23.24.77,8.12,1.18,15.87,1.55,22.47v.37c0,2.6-1.58,4.83-3.84,5.79h-.03c-18.1,7.87-39.29,14.32-61.33,18.31l-1.8.28c-17.91,3.41-38.52,5.39-59.59,5.42h-.03c-.93.03-2.05.03-3.16.03-29.04,0-56.58-6.45-81.28-17.94l1.18.5c-24.57-11.68-44.5-29.75-58.13-52.06l-.34-.59c-13.48-23.58-21.41-51.84-21.41-81.96,0-2.23.03-4.43.12-6.63v.31-2.17c0-29.28,7.9-56.71,21.72-80.29l-.4.74c14.94-25.32,35.79-45.68,60.77-59.59l.81-.43c26.62-14.22,58.23-22.56,91.79-22.56,2.17,0,4.34.03,6.48.09h-.31.77c2.6,0,5.14.15,7.65.43l-.31-.03c3.47.37,7.34.37,11.99.77v-122.37c0-2.7,1.15-4.25,3.87-4.25l.03-.06ZM164.58,0h-.12C73.63,0,0,73.63,0,164.45v.15h0v577.13c0,90.83,73.63,164.45,164.45,164.45h600.49c90.83,0,164.45-73.63,164.45-164.45v-.15h0V164.45C929.4,73.63,855.77,0,764.95,0H164.58Z"/>
</svg>