<?xml version="1.0" encoding="UTF-8"?>
<svg id="Layer_1" data-name="Layer 1" xmlns="http://www.w3.org/2000/svg" viewBox="0 0 929.46 906.19">
  <defs>
    <style>
      .cls-1 {
        fill: #fff;
      }
    </style>
  </defs>
  <path class="cls-1" d="M753.22,601.83c-10.82,15.28-25.54,27.15-42.74,34.28l-.65.25c-19.34,7.84-41.78,12.37-65.27,12.37-1.7,0-3.41-.03-5.11-.06h.25-1.27c-18.16,0-35.92-1.83-53.06-5.3l1.7.28c-14.84-2.63-28.08-6.94-40.47-12.8l.96.4c-2.57-1.24-4.31-3.84-4.31-6.82,0-.19,0-.34.03-.53v.03-67.53c0-1.33.62-2.54,1.58-3.32h0c.43-.25.93-.4,1.49-.4.77,0,1.49.31,2.01.77h0c13.82,8.31,29.87,14.88,46.92,18.75l1.12.22c13.6,3.69,29.22,5.8,45.34,5.8h.37-.03c1.21.06,2.6.12,4.03.12,10.13,0,19.8-2.05,28.6-5.76l-.5.19c6.2-2.91,10.41-9.08,10.44-16.27h0c-.56-6.51-4.09-12.09-9.2-15.43l-.09-.06c-10.91-7.16-23.43-13.33-36.72-17.88l-1.18-.34c-20.98-7.5-39.14-16.92-55.78-28.36l.81.53c-12.09-8.74-21.97-19.71-29.19-32.42l-.25-.5c-5.61-10.94-8.89-23.83-8.89-37.53,0-.71,0-1.43.03-2.14v.09c.06-17.32,4.96-33.5,13.42-47.26l-.22.4c9.89-15.5,23.71-27.67,40.04-35.39l.59-.25c18.38-8.62,39.88-13.64,62.57-13.64,2.08,0,4.15.03,6.23.12h-.31c16.95,0,33.59,1.27,49.86,3.72l-1.83-.22c12.43,1.7,23.65,4.83,34.21,9.24l-.9-.34c1.7.62,3.07,1.86,3.84,3.44l.03.03c.43,1.36.71,2.98.77,4.62v63.19c0,1.58-.74,2.94-1.92,3.81h0c-1.02.37-2.23.62-3.47.62s-2.45-.22-3.56-.62l.06.03c-10.72-5.8-23.18-10.35-36.29-13.02l-.9-.15c-12.98-3.07-27.92-4.9-43.29-5.02h-.09c-.81-.03-1.74-.03-2.67-.03-7.34,0-14.44.99-21.17,2.88l.56-.12c-4.96,1.08-9.14,3.84-11.96,7.69l-.03.06c-1.89,2.98-3.04,6.57-3.1,10.44v.03c.19,3.84,1.64,7.34,3.94,10.1l-.03-.03c3.63,4.25,8,7.75,12.92,10.35l.25.12c8.86,4.65,18.19,8.89,27.46,12.77,22.81,7.75,42.52,17.32,60.8,28.95l-1.15-.68c12.74,8.09,23.06,18.9,30.34,31.7l.22.43c5.64,10.94,8.93,23.86,8.93,37.56,0,.81,0,1.61-.03,2.42v-.12c0,.5.03,1.12.03,1.7,0,18.56-5.64,35.82-15.28,50.17l.22-.31-.06-.03ZM478.62,451.19c-15.46,21.38-36.69,37.75-61.39,46.95l-.93.31c-24.02,8.4-51.69,13.26-80.48,13.26-2.32,0-4.68-.03-7-.09h.34c-9.3,0-15.5,0-19.37-.37-3.87-.37-9.3-.37-16.64-.37v124.27c.03.19.03.4.03.65,0,2.48-1.86,4.52-4.28,4.83h-75.15c-3.1,0-4.65-1.58-4.65-5.08V237.11c0-2.7,1.15-4.25,3.87-4.25,6.57,0,12.77,0,21.69-.37,9.3-.37,18.97-.37,29.44-.77s21.69-.37,33.69-.77c11.99-.4,23.61-.37,35.24-.37,1.95-.06,4.25-.09,6.54-.09,26.22,0,51.41,4.43,74.84,12.58l-1.61-.5c20.27,7,37.59,17.85,51.94,31.8l-.03-.03c12.15,12.18,21.76,26.9,27.98,43.29l.28.84c5.58,14.97,8.83,32.26,8.86,50.33v.03c.06,1.7.12,3.69.12,5.7,0,28.64-8.74,55.22-23.68,77.26l.31-.5.03-.09ZM764.84,0H164.47C73.63,0,0,73.63,0,164.47v.15h0v577.1c0,90.83,73.63,164.47,164.47,164.47h600.53c90.83,0,164.47-73.63,164.47-164.47v-.15h0V164.47C929.46,73.63,855.83,0,765,0h-.15ZM381.43,314.46c-12.27-4.96-26.53-7.84-41.43-7.84-1.49,0-2.98.03-4.46.09h.22c-10.07,0-18.97,0-26.34.37-1.74-.12-3.75-.19-5.8-.19-3.56,0-7.07.22-10.51.62l.4-.03v130.13c5.42.37,10.44.77,15.09.77h20.7c15.87,0,31.11-2.54,45.4-7.25l-1.02.28c12.74-3.81,23.52-10.97,31.67-20.42l.06-.09c7.56-9.92,12.12-22.47,12.12-36.1,0-1.33-.03-2.63-.12-3.97v.19c.03-.56.03-1.24.03-1.92,0-12.02-3.32-23.24-9.08-32.82l.15.28c-6.48-9.98-15.74-17.63-26.71-21.94l-.37-.12v-.03Z"/>
</svg>