<?xml version="1.0" encoding="UTF-8"?>
<svg id="Layer_1" data-name="Layer 1" xmlns="http://www.w3.org/2000/svg" viewBox="0 0 929.48 906.18">
  <defs>
    <style>
      .cls-1 {
        fill: #fff;
      }
    </style>
  </defs>
  <polygon class="cls-1" points="438.68 453.14 597.71 332.39 597.71 573.84 438.68 453.14"/>
  <path class="cls-1" d="M764.64,0H164.85C73.82,0,0,73.82,0,164.85v576.49c0,91.07,73.82,164.85,164.85,164.85h599.79c91.02,0,164.85-73.77,164.85-164.85V164.85C929.48,73.82,855.66,0,764.64,0ZM730.61,631.65c0,12.81-7.28,24.39-18.81,29.92l-109.46,52.7c-12.71,6.14-27.88,3.54-37.72-6.38l-209.6-191.27-91.31,69.33c-8.51,6.52-20.37,5.95-28.31-1.23l-29.25-26.61c-9.69-8.74-9.69-24.01-.09-32.75l79.21-72.26-79.21-72.26c-9.59-8.74-9.59-23.96.09-32.7l29.25-26.66c7.89-7.18,19.8-7.7,28.31-1.18l91.31,69.24,209.46-191.17c9.97-9.97,25.1-12.57,37.86-6.43l109.36,52.65.05-.05c11.48,5.53,18.86,17.2,18.86,29.96v357.15Z"/>
</svg>