<?xml version="1.0" encoding="UTF-8"?>
<svg id="Layer_1" data-name="Layer 1" xmlns="http://www.w3.org/2000/svg" viewBox="0 0 815.28 736.84">
  <defs>
    <style>
      .cls-1 {
        fill: #fff;
      }
    </style>
  </defs>
  <path class="cls-1" d="M807.44,68.94c-28.31-10.48-50.63-32.79-61.1-61.1-3.87-10.45-18.65-10.45-22.52,0-10.48,28.31-32.79,50.63-61.1,61.1-10.45,3.87-10.45,18.65,0,22.52,28.31,10.47,50.63,32.79,61.1,61.1,3.87,10.45,18.65,10.45,22.52,0,10.47-28.31,32.79-50.63,61.1-61.1,10.45-3.87,10.45-18.65,0-22.52Z"/>
  <path class="cls-1" d="M681.27,202.5c2.24-47.89-36.56-83.47-84.3-79.86-28.56,2.16-53.96,14.84-76.31,33.02-25.07,20.38-46.48,43.3-65.36,69.82l-135.36,192.3c-30.51,47.37-30.43,20.16-26.51,11.84,9.67-22.84,6.61-15.27,9.67-22.84l57.14-137.23c9.95-24.66,16.13-50.06,16.2-76.13.08-33.18-20.12-59.19-51.89-67.23-52.45-13.27-111.97,10.22-155.74,40.18-63.4,43.4-114.8,101.19-151.35,168.76-11.53,21.32-29.75,59.61-5.4,75.01,22.05,13.95,48.37-17.35,62.33-33.91,18.17-21.56,35.33-43.06,55.97-62.08,13.31-12.26,44.41-34.24,58.95-21.17,11.6,10.43,3.25,50.05-1.15,65.17-23.29,80.05-56.9,145.39-80.32,226.41-13.16,45.54-25.68,113.91,24.77,140.93,25.8,13.82,56.39,8.44,79.44-9.49,18.91-14.71,33.49-33.68,45.59-54.54l47.01-80.96c45.6-78.54,108.72-195.55,170.95-258.27,5.64-5.68,16.68-11.08,23.23-4.52,10.64,10.67-27.76,77.41-36.08,92.25-36.79,65.68-94.44,163.36-93.04,238.06.78,41.63,26.73,77.82,67.97,86.32,77.25,15.91,146.03-46.75,174.79-112.61-26.61.87-47.64-4.02-59.33-24.21-37.2-64.25,42.29-202,75.12-261.81,20.66-37.64,51.03-90.88,53.01-133.22Z"/>
</svg>