<?xml version="1.0" encoding="UTF-8"?>
<svg id="Layer_1" data-name="Layer 1" xmlns="http://www.w3.org/2000/svg" viewBox="0 0 1017.14 285.82">
  <defs>
    <style>
      .cls-1 {
        fill: #fff;
      }
    </style>
  </defs>
  <path class="cls-1" d="M363.17,84.66c-50.36,0-90.85,41.85-90.85,91.19,0,46.62,36.41,82.35,82.68,82.35,50.36,0,90.85-41.85,90.85-91.19,0-46.62-36.41-82.35-82.68-82.35ZM372.64,225.03c0,7.54-6.17,13.71-13.71,13.71s-13.71-6.17-13.71-13.71v-107.19c0-7.54,6.17-13.71,13.71-13.71s13.71,6.17,13.71,13.71v107.19Z"/>
  <path class="cls-1" d="M1013.83,46.01c-11.96-4.43-21.4-13.86-25.82-25.82-1.63-4.42-7.88-4.42-9.52,0-4.43,11.96-13.86,21.4-25.82,25.82-4.42,1.63-4.42,7.88,0,9.52,11.96,4.43,21.4,13.86,25.82,25.82,1.63,4.42,7.88,4.42,9.52,0,4.43-11.96,13.86-21.4,25.82-25.82,4.42-1.63,4.42-7.88,0-9.52Z"/>
  <path class="cls-1" d="M739.01,148.51v-.28c-.5-17.41-10-34.18-22.04-46.1-43.63-43.59-125.01-30.87-155.37,22.85-1.3,2.51-.46,4.21,1.86,4.77,13.94,3.81,20.89-18.07,43.24-23.32,11.76-3.28,25.14-2.23,35.41,3.6,13.9,7.69,22.79,22.96,22.21,40.75-.1,1.87-.61,3.16-1.74,3.33-3.7-.29-7.3-3.34-10.92-4.37-11.52-4.01-23.94-4.5-36.35-3.53-20.26,1.93-40.8,9.76-53.38,25.82-17.04,21.46-13.7,56.78,8.81,73.23,27.51,20.38,66.12,15.9,89.14-7.94,1.58-1.42,3.07-3.87,3.2-.7.05,4.67,0,10.31.02,15.08-.02,3.11.24,2.28,2.34,2.42,15.03.02,70.09.04,73.34-.05.66-38.16.14-78.08.23-105.57ZM625.91,224.63l-.02.24c-1.21,15.85-22.35,19.36-27.43,4.04-1.26-4.36-.6-7.55-.75-12.42v-35.86c-.64-12.79,14.29-21.44,24.03-11.8,2.85,2.75,4.27,7.03,4.23,10.88-.04,4.91.09,35.97-.05,44.92Z"/>
  <path class="cls-1" d="M287.94,59.98c.95-20.24-15.45-35.28-35.63-33.75-12.07.91-22.8,6.27-32.25,13.95-10.59,8.61-19.65,18.3-27.63,29.51l-57.21,81.28c-12.9,20.02-12.86,8.52-11.2,5,4.09-9.65,2.79-6.45,4.09-9.65l24.15-58c4.21-10.42,6.82-21.16,6.85-32.18.04-14.02-8.5-25.01-21.93-28.41-22.17-5.61-47.32,4.32-65.82,16.98C44.54,63.05,22.82,87.48,7.37,116.03c-4.87,9.01-12.58,25.19-2.28,31.7,9.32,5.89,20.45-7.33,26.34-14.33,7.68-9.11,14.93-18.2,23.66-26.24,5.63-5.18,18.77-14.47,24.92-8.95,4.9,4.41,1.37,21.15-.48,27.54-9.84,33.83-24.05,61.45-33.95,95.69-5.56,19.25-10.85,48.14,10.47,59.56,10.9,5.84,23.83,3.57,33.58-4.01,7.99-6.22,14.15-14.24,19.27-23.05l19.87-34.22c19.27-33.19,45.95-82.65,72.25-109.16,2.38-2.4,7.05-4.68,9.82-1.91,4.5,4.51-11.73,32.72-15.25,38.99-15.55,27.76-39.91,69.04-39.32,100.62.33,17.59,11.3,32.89,28.73,36.48,32.65,6.72,61.72-19.76,73.88-47.59-11.25.37-20.14-1.7-25.08-10.23-15.72-27.16,17.87-85.37,31.75-110.65,8.73-15.91,21.57-38.41,22.4-56.3Z"/>
  <path class="cls-1" d="M537.15.3l-49.41,14.41c-11.03,2.9-18.72,12.86-18.72,24.26v214.58h62.94V46.04c0-5.64,1.08-11.2,3.17-16.43,4.64-11.63,11.74-32.33,2.01-29.31Z"/>
  <path class="cls-1" d="M1005.37,204.6c-8.56-5.13-13.98,12.74-37.91,15.29-6.26.65-11.62-1.5-14.62-6.12-1.12-1.69-1.9-3.71-2.3-6.03-1.18-6.96-.78-14.3.17-21.58l2.13-16.05,5.06-38.14c1.37-10.42,1.77-20.52.51-30.73-1.81-14.55-11.45-26.07-25.73-29.85-15.88-4.2-32.1-2.59-47.06,3.54-4.35,1.52-8.84,3.4-13.33,5.63-10.38,5.17-19.18,11.43-25.52,17.74-1.9,1.89-5.1.39-4.85-2.28l1.8-19.74c.44-4.81-3.67-8.77-8.46-8.18-9.32,1.22-24.07,3.78-39,7.38-14.93,3.63-30.06,8.33-40.12,13.9-2.8,1.56-2.78,5.55-.06,7.24,4.94,3.06,7.72,7.02,8.29,13.16.19,2.11.36,4.2.51,6.31v137.99h80.58v-71.19c0-19.09.17-40.56.17-40.56,0-5.55,3.06-10.59,7.66-13.06,1.81-1.01,3.86-1.6,6.05-1.67,1.69-.04,3.31.19,4.81.7,5.65,1.84,9.72,7.15,9.72,13.42v1.24c0,16.85-.76,33.71-1.84,50.54-.02.06-.02.13-.02.19-.57,9.2-.15,18.56,1.86,27.25,3.1,13.56,9.98,25.48,22.68,32.55,2.4,1.35,5.02,2.53,7.85,3.5,31.68,10.86,66.28,1.33,89.12-22.89,4.87-5.17,21.47-23.75,11.88-29.51Z"/>
</svg>