<?xml version="1.0" encoding="UTF-8"?>
<svg id="Layer_1" data-name="Layer 1" xmlns="http://www.w3.org/2000/svg" viewBox="0 0 822.63 822.87">
  <defs>
    <style>
      .cls-1 {
        fill: #fff;
      }
    </style>
  </defs>
  <path class="cls-1" d="M820.05,241.75c-1.88-43.66-8.92-73.7-19.01-99.75-10.57-26.99-24.64-49.99-47.41-73-23-22.77-45.76-36.85-72.99-47.41-26.06-10.09-55.86-17.13-99.75-19.01-43.89-2.11-57.98-2.58-169.69-2.58s-125.57.47-169.46,2.58c-43.89,1.88-73.69,8.92-99.98,19.01-27,10.56-49.99,24.65-72.76,47.41-23,23-36.84,46-47.41,73-10.33,26.05-17.13,56.09-19.24,99.75-1.88,43.89-2.35,57.97-2.35,169.69s.47,125.8,2.35,169.46c2.11,43.89,8.92,73.69,19.24,99.98,10.57,26.99,24.41,49.99,47.41,72.75,22.77,23,45.76,37.09,72.76,47.65,26.29,10.1,56.09,16.9,99.98,19.01,43.89,2.11,57.74,2.58,169.46,2.58s125.8-.47,169.69-2.58c43.89-2.11,73.69-8.92,99.75-19.01,27.23-10.56,49.99-24.65,72.99-47.65,22.77-22.77,36.84-45.77,47.41-72.75,10.1-26.29,17.13-56.1,19.01-99.98,2.11-43.66,2.58-57.74,2.58-169.46s-.47-125.8-2.58-169.69ZM746.13,577.6c-1.88,40.14-8.46,61.97-14.08,76.51-7.51,19.01-16.43,32.86-30.75,47.18-14.55,14.32-28.17,23.24-47.41,30.75-14.55,5.63-36.37,12.44-76.28,14.32-43.42,1.87-56.57,2.34-166.4,2.34s-122.75-.47-166.17-2.34c-40.13-1.88-61.97-8.69-76.28-14.32-19.24-7.51-32.86-16.43-47.41-30.75-14.31-14.31-23.24-28.16-30.75-47.18-5.63-14.55-12.21-36.37-14.08-76.51-2.11-43.42-2.34-56.33-2.34-166.17s.23-122.99,2.34-166.17c1.88-40.13,8.46-61.97,14.08-76.51,7.51-19.25,16.43-32.86,30.75-47.18,14.55-14.55,28.17-23.47,47.41-30.75,14.31-5.63,36.15-12.44,76.28-14.31,43.42-1.88,56.33-2.35,166.17-2.35s122.98.47,166.4,2.35c39.9,1.87,61.72,8.68,76.28,14.31,19.24,7.28,32.86,16.19,47.41,30.75,14.31,14.31,23.24,27.93,30.75,47.18,5.63,14.55,12.21,36.38,14.08,76.51,1.88,43.18,2.34,56.33,2.34,166.17s-.46,122.75-2.34,166.17Z"/>
  <path class="cls-1" d="M411.43,200.43c-116.64,0-211.23,94.59-211.23,211.23s94.59,211.23,211.23,211.23,211.23-94.58,211.23-211.23-94.58-211.23-211.23-211.23ZM411.43,548.74c-75.57,0-137.06-61.49-137.06-137.07s61.5-137.3,137.06-137.3,137.07,61.49,137.07,137.3-61.27,137.07-137.07,137.07Z"/>
  <path class="cls-1" d="M680.4,191.99c0,27.22-22.06,49.29-49.29,49.29s-49.52-22.07-49.52-49.29,22.3-49.52,49.52-49.52,49.29,22.06,49.29,49.52Z"/>
</svg>