<?xml version="1.0" encoding="UTF-8"?>
<svg id="Layer_1" data-name="Layer 1" xmlns="http://www.w3.org/2000/svg" viewBox="0 0 832.24 834.79">
  <defs>
    <style>
      .cls-1 {
        fill: #fff;
      }
    </style>
  </defs>
  <path class="cls-1" d="M791.93,587.56c-11.35-12.21-24.7-21.57-39.17-28.67-6.54-13.06-14.76-25.27-25.27-36.05-26.97-28.1-63.02-42.86-103.6-42.86s-76.64,14.76-103.62,42.86c-11.35,11.92-20.15,24.98-26.96,39.17l-17.6-24.12,204.65-264.55-64.71-64.72h-287.53V64.71L263.4,0H0v760.71l64.71,64.72h263.42v-38.32l38.03,38.32h269.09c16.47,6.24,34.34,9.37,53.36,9.37,40.87,0,76.92-15.04,103.89-43.71,26.11-27.53,39.74-62.73,39.74-101.62s-13.92-74.36-40.3-101.9ZM336.07,695.99l-137.38-204.94v204.94H64.71V64.71h133.98v398.81l129.44-180.24,7.1-9.94h148.73l-153.57,198.69,162.94,223.95h-157.25ZM680.67,682.08c-14.76,15.61-33.79,23.56-56.77,23.56s-42.3-7.95-57.06-23.56c-12.76-13.62-20.15-30.09-21.86-49.11,0-2.83-.28-5.68-.28-8.23,0-22.7,7.37-41.72,22.13-57.05,14.76-15.33,33.78-22.99,57.06-22.99,9.92,0,19.29,1.41,27.82,4.25,11.06,3.98,20.72,10.22,28.95,18.74,15.04,15.32,22.43,34.34,22.43,57.05s-7.39,41.73-22.43,57.34Z"/>
</svg>