<?xml version="1.0" encoding="UTF-8"?>
<svg id="Layer_1" data-name="Layer 1" xmlns="http://www.w3.org/2000/svg" viewBox="0 0 888.44 829.13">
  <defs>
    <style>
      .cls-1 {
        fill: #fff;
      }
    </style>
  </defs>
  <path class="cls-1" d="M888.44,536.19v292.93h-183.07c0-87.71-1.43-176.28-.85-263.13.55-66.42,1.12-152.43-99.93-152.43-89.41,0-111.83,65.85-111.83,131.42v284.14h-183.07V273.92h183.07v71.25c30.95-39.17,89.99-82.32,185.07-82.32,160.39,0,209.2,86.29,210.61,273.35Z"/>
  <rect class="cls-1" x="14.76" y="273.92" width="183.09" height="555.21"/>
  <path class="cls-1" d="M214.3,100.2c0,55.36-47.97,100.2-107,100.2S0,155.56,0,100.2,47.97,0,107.3,0s107,44.85,107,100.2Z"/>
</svg>