<?xml version="1.0" encoding="UTF-8"?>
<svg id="Layer_1" data-name="Layer 1" xmlns="http://www.w3.org/2000/svg" viewBox="0 0 1061.52 412.87">
  <defs>
    <style>
      .cls-1 {
        fill: #fff;
      }
    </style>
  </defs>
  <g>
    <g>
      <path class="cls-1" d="M598.61,357.77c-37.77,12.08-88.97,16.96-125.68,2.47-1.6-8.42-2.32-23.14-1.62-30.88,35.86-49.23,37.6-123.78,6.81-175.61l.23-18.39.62-22.87c33.21-16.22,69.47-23.62,106.31-21.58,36,2,70.82,18.28,71.54,58.94.48,27.11-13.22,44.23-34.81,58.39,34.2,4.2,61.4,22.48,60.84,58.96,1.01,12.95-2.1,25.06-8.21,36.4-15.28,28.34-45.65,44.46-76.02,54.18ZM583.04,165.15c.74-8.51-4.28-15.39-12.48-17.4-10.37-2.55-21.13-1.26-31.17,3.16.59,17.74,1.5,34.44,3.59,51.69,18.73-4.24,38.38-18.33,40.05-37.44ZM600.56,263.12c-1.11-23.13-37.47-24.83-54.33-16.09.99,18.27,3.28,35.41,6.14,53.52,17.7-1.33,49.08-18.87,48.19-37.43Z"/>
      <path class="cls-1" d="M475.86,164.88c-23.57-48.31-81.57-57.74-125.83-29.2-25.92,16.76-45.3,41.24-58.66,70.18,37.71,10.74,52.9,48.58,47.14,84.45-3.01,14.01-8.77,27.23-20.43,36.53,6.29-14.27,12.31-27.23,12.83-42.55,1.18-32.21-11.26-63.76-44.39-73.32-8.51-2.36-16.76-3.01-26.19-3.8,22.65-15.32,38.36-37.45,42.29-64.42.39-3.01.52-6.28.39-9.43h-34.44s0-51.98,0-51.98c-3.4-1.44-7.07-2.62-10.6-3.4-.26,0-.52-.13-.79-.13v55.52s-58.13,0-58.13,0v-22.39c-13.09,15.06-32.21,24.09-54.21,24.09-19.38,0-36.53-7.07-49.49-18.98-11.78,6.42-22.91,13.49-33.39,21.08l17.81,97.81c9.43,52.11,20.56,102.91,33.65,153.98,2.09,8.51,4.71,15.71,7.86,23.96,47.4.39,102.52-15.06,144.03-37.97,16.76-9.17,30.64-20.29,43.86-34.96,26.32,30.11,67.3,35.35,102.91,22,34.3-13.22,60.23-40.85,71.36-76.07,5.24-16.37,6.55-32.73,6.68-50.15.13-24.62-3.4-48.71-14.27-70.83ZM150.62,161.47c11.92-7.99,25.79-12.83,39.8-12.31,10.74.26,18.59,7.07,20.3,17.55,3.27,20.43-26.97,45.83-45.04,52.63-6.02-19.77-10.61-37.71-15.06-57.87ZM193.57,318.59c-.78-.39-1.96-1.83-2.22-2.75l-14.27-47.4c-.52-1.83-.26-4.84.13-6.94,11.92-6.55,25.14-11,38.89-9.95,11.26.92,21.6,7.46,24.22,18.59,5.76,24.88-42.29,50.67-46.74,48.44ZM404.11,270.54c-9.82,8.12-23.04,10.87-34.04,5.24-10.21-5.24-15.06-16.63-15.97-27.76-1.7-23.83,14.53-52.63,38.89-58.66,11.13-2.75,21.6,1.18,27.36,10.87,13.49,22.65,3.27,54.21-16.24,70.31Z"/>
    </g>
    <path class="cls-1" d="M1003.45,241.84c-9.22,17.29-15.78,33.75-22.42,51.73-13.8,37.39-26.94,74.21-37.35,112.63-38.64-5.34-75.81-17.52-110.56-33.69-1.89-4.07.04-6.38,2.43-9.63,24.22-32.97,43.94-69.14,58.76-107.74-18.71-21.92-36.19-43.69-52.38-67.52,4.47-9.55,7.33-18.98,7.87-29.61.8-18.44-5.85-35.5-19.37-48.53,8.7-4.26,55.78-23.12,60.51-20.65,1.21.63,2.33,3.07,2.81,4.92,6.57,25.78,13.8,50.72,22.91,75.67,2.6,7.1,4.81,13.45,8.9,20.58,14.47-31.81,26.13-62.76,37.68-95.65,32.92,2.81,67.37,12.75,98.05,25.78.52,3.38.2,6.64-1.15,9.82-7.53,17.74-15.46,34.51-24.55,51.57l-32.13,60.31Z"/>
    <path class="cls-1" d="M677.68,366.94c-8.16-1.42-14.14-3.83-21.24-6.91-1.53-9.51-1.56-18.1-1.07-27.8,35.05-20.2,49.23-68.44,24.94-101.7-5.38-7.37-10.65-13.18-18.57-18.26l.63-14.94.95-20.75c1.08-23.63-1.13-39.03-.49-63.24,34.02-16.46,71.64-23.51,109.32-20.36,32.61,2.72,65.62,18.63,68.42,54.88,3.97,27.25-11.52,48.82-35,62.91,13.26,2.03,25.14,4.78,35.86,12.18,9.76,6.74,18.15,15.58,22.11,27.23,7.21,21.22,4.32,45.3-8.6,63.74-11.03,15.75-26.04,26.82-43.44,35.2-41.35,19.91-88.1,25.78-133.8,17.81ZM766.53,161.18c-3.51-16.85-30.09-14.58-42.32-9.28.07,18.07,1.21,34.76,2.92,52.43,19.06-4.91,44.01-21.03,39.39-43.15ZM784.62,265.14c-1.3-23.02-36.53-25.46-54.21-16.67,1.03,17.88,2.81,35.05,6,53.43,16.91-.91,49.27-18.04,48.22-36.75Z"/>
  </g>
  <g>
    <path class="cls-1" d="M0,1.88h46.11c18.35,0,28.54,12.7,28.54,27.91,0,12.71-7.21,24.15-19.13,24.93,15.37,3.15,24.46,12.71,24.46,28.08,0,24.31-16.62,31.99-34.97,31.99H0S0,1.88,0,1.88ZM39.52,50.34c10.34,0,14.74-5.49,14.74-15.69,0-11.44-5.65-14.12-15.84-14.12h-17.41s0,29.8,0,29.8h18.51ZM44.06,96.13c8.63,0,15.22-1.88,15.22-14.9,0-13.64-7.21-16.15-17.57-16.15h-20.7s0,31.05,0,31.05h23.05Z"/>
    <path class="cls-1" d="M89.7,58.33C89.7,23.36,114.78,0,144.89,0c30.11,0,54.89,23.36,54.89,58.33,0,34.82-24.78,58.19-54.89,58.19-29.96,0-55.2-23.37-55.2-58.19ZM178.61,58.65c0-22.27-14.42-39.2-33.72-39.2s-34.04,16.78-34.04,39.05c0,22.43,14.91,39.2,34.19,39.2,19.14,0,33.56-16.78,33.56-39.05Z"/>
    <path class="cls-1" d="M217.66,1.88h21.01s0,112.92,0,112.92h-21.01s0-112.92,0-112.92Z"/>
    <path class="cls-1" d="M287.12,20.7h-31.67s0-18.82,0-18.82h84.21s0,18.82,0,18.82h-31.67s0,94.09,0,94.09h-20.87s0-94.09,0-94.09Z"/>
  </g>
</svg>