<?xml version="1.0" encoding="UTF-8"?>
<svg id="Layer_1" data-name="Layer 1" xmlns="http://www.w3.org/2000/svg" viewBox="0 0 1142.88 385.74">
  <defs>
    <style>
      .cls-1 {
        fill: #fff;
      }
    </style>
  </defs>
  <g>
    <g>
      <path class="cls-1" d="M724.5,209.52c-17.87,17.88-43.31,14.04-64.41,3.62l8.25-25.26c1.43-4.37,16.17,11.08,29.03.59,2.3-1.87,2.44-5.26,4.38-7.79l-50.12-123.21h41.92s28.17,78.71,28.17,78.71l26.62-78.76,41.24.07-48.09,125.91c-3.97,10.39-9.36,18.49-16.98,26.11Z"/>
      <path class="cls-1" d="M643.29,144.5l8.63,26.28c-7.8,6.26-16.71,10.75-27.36,11.58-20.43,1.59-41.17-12.26-41.35-33.36l-.52-59.39-16.53-.12v-32.02s16.68-.1,16.68-.1l.02-33.27h38.11s-.04,32.99-.04,32.99l26.01.68v31.41s-26.02.4-26.02.4l.34,47.24c.03,4.35,3.11,9.32,6.96,10.87,5.03,2.03,10.55.08,15.06-3.21Z"/>
    </g>
    <g>
      <polygon class="cls-1" points="555.44 179.55 514.92 179.97 514.92 57.42 555.4 57.55 555.44 179.55"/>
      <path class="cls-1" d="M537.85,42.89c-14.27,1.57-26.14-12.07-23.61-25.25,2.13-11.11,12.53-18.03,22.7-17.33,10.47.71,18.86,9.34,19.62,19.77.76,10.47-6.48,21.46-18.71,22.81Z"/>
    </g>
    <g>
      <path class="cls-1" d="M221.53,94.01c.09.1.19.18.28.29-.1-.18-.19-.26-.28-.29Z"/>
      <path class="cls-1" d="M504.81,153.89l-30.14-26.32c-9.53,12.53-24.78,19.2-39.93,17.31-12.48-1.56-21.69-6.57-29.95-15.82-19.34-21.66-13.76-56.6,11.45-71.2,20.03-11.6,43.55-7.41,58.29,11.33l29.46-26.43c1.82-1.63-2.54-3.32-3.57-4.33-17.74-17.37-42.49-25.64-67.79-23.94-50.54,3.41-90.03,49.08-79.6,100.09l-12.22-2.28c-19.79-3.7-57.57,27.87-70.56,43.7l-46.04-31.34c13.11-10.01-4.88-50.93-4.55-67.72,19.67,5.09,33.54-11.94,48.61-18.11l60.25-.88c2.18-3.66-3.38-5.17-5.51-6.49-15.49-9.58-33-11.5-49.3-2.87-3.34,1.77-6.42-1.67-8.69-3.58-12.34-10.39-39.78-29.29-55.6-24.12-17.89,5.84-22.04,23.18-20.41,39.8l8.1,82.41-49.27,32.98c-5.37-6.68-9.6-12.77-16.22-17.03-21.36-20.5-55.15-40.9-80.7-14.23-11.17,11.66-20.29,27.35-26.79,42.36-5.16,11.93-11.51,22.82-15.85,35.18C2.43,219.08-1.36,235.73.46,253.5c.23,2.27,1.5,4.48,2.99,4.79,8.78,1.84,10.38-9.94,11.51-17.08,3.68,2.21,6.06,3.83,9.34,2.76,1.83-.59,4.17-2.78,4.92-5.37l4.7-16.09c2.75,3.15,5.42,5.08,8.61,5.14,8.27.17,10.77-15.61,12.14-22.49,3.41,3.94,7.5,8.06,11.88,5.04,5.78-4,6.71-12.18,8.09-18.38,2.42,8.1,8.54,16.65,17.2,16.58,5.71-.05,6.54-6.35,8.97-11,1.7,6.32-.07,12.61.92,19.12,1.43,9.35,6.68,23.9,16.71,21.53,4.74-1.12,4.52-10.69,6.43-13.01,1.11,8.99,6.6,44.4,16.54,44.29,10.3-.11,12.64-34.59,12.88-41.96,2.86,5.61,3.39,11.05,6.46,15.88,2.11,3.33,6.72,4.92,9.58,1.86,3.46-3.7,3.72-8.87,5.93-12.92l-5.36,32.14,19.02,52.51-13.12,27.37c-2.64,5.51-8.79,25.12,1.45,24.99,3.41-.04,5.58-1.61,8.02-5.85l1.16,7.99c.39,2.68,3.65,4.63,6.18,4.56,2.5-.06,4.25-3.21,6.63-4.45,1.18,4.67,2.99,13.24,8.55,13.54,6.52.35,8.04-9.25,8.62-14.71,1.35,3.08,5.68,6.87,9.57,5.13,3.89-1.74,4.16-6.71,4.67-11.14,2.36,1.48,3.56,4.23,5.47,4.58,22.67,4.25-5.24-43.38-9-51.4l19.27-51.86c.45-10.71-4.89-22.42-5.68-33.84,3.93,4.27,2.62,11.74,8.37,14.43,8.97,4.2,11.87-14.98,14.31-17.67.32,8.73,2.68,40.94,12.86,41.29,8.95.31,15.8-36.58,16.57-43.65,1.57,4.35,1.86,9.43,5.95,11.56,3.72,1.94,8.15-.96,10.62-3.98,9.22-11.24,4.92-22.31,8.6-32.53,1.31,5.65,5.83,8.35,11.17,7.05,7.54-1.83,11.67-8.49,13.97-15.52,1.41,7.46,2.7,15.08,9.38,18.77,4.22,2.33,7.65-2.38,10.55-6.26,1.53,7.98,2,16.72,8.38,21.66,4.23,3.28,10.06-.64,12.18-4.4,2.93,6.95,3,24.22,12.85,22.92,1.97-.26,3.38-2.14,5.17-3.9,2.18,6.41,2.68,12.58,7.09,17.24,1.44,1.53,4.7,1.04,5.65-.2.7-.91,2.69-2.29,2.8-4.23,1.52-25.66-5.3-50.61-17.6-73.17-1.54-2.83-2.05-5.4-3.72-9.39,35.35,19.18,79.8,12.16,107.96-17.93ZM313.41,32.54l-36.49.15c12.08-6.04,25.3-6.15,36.49-.15ZM267.13,159.94l-32.8,33.71-12.11-64.2,44.9,30.49ZM220.12,84.82c.58.59.63,1.58.5,2.34-.42,2.48.87,4.75,1.19,7.14.88,6.43,5,20.15-.4,25.89-1.03-4.66-1.22-9.36-1.04-13.99-2.24-5.19-.31-11.1-.94-16.65-1.67-.49-1.33-2.77-1.1-5.15.14-1.51,1.37,0,1.79.43ZM230.34,30.17c4.06-5.43,10.5-9.1,17.22-7.75,5.41,1.09,9.94,4.19,13.29,7.75.89.83,3.07.41,3.84,2.73-12.23.84-24.03.94-36.57.02-.05-1.42,1.07-2.19,2.23-2.75ZM258.05,38.23c-11.77,7.59-25.28,18.42-38.49,13.25-7.35-2.88-14-6.94-19.8-13.29l58.29.04ZM194.81,41c6.32,5.25,11.98,9.01,18.14,13.02l3.42,67.33c-5.18,1.46-9.68,1.25-14.73.21l-6.83-80.56ZM196.89,129.29l-12.27,64.03-32.97-33.52,45.23-30.52ZM6.11,252.87c-3.14-7.84-.81-15.73,4.66-21.88.41,7.69-.63,14.56-4.66,21.88ZM30.11,207.4c-.33,4.19-3.56,31.78-7.91,31.77-4.45,0-7.17-16.22-4.22-20.13l10.64-14.11c.55-.88,1-1.86,2.29-2.46.66,2.26.22,3.75-.81,4.93ZM42.36,222.21c-8.46.17-5.59-20.54-6.06-26.43,5.51-5.24,8.68-11.23,15.85-16.05-.12,6.54-2.71,42.34-9.79,42.48ZM63.57,206.48c-9.02-4.27-5.18-23.75-5.63-31.95,4.02-3.72,8.36-6.57,13.86-8.46-.22,8.16-.95,34.22-8.22,40.4ZM92.69,202.63c-2.98,2.76-10.21-3.41-12.09-8.93-3.3-9.69-3.52-19.95-3.23-30.36,7.51-2.23,14.1-1.53,21.48.43.27,8.31-.9,33.98-6.17,38.85ZM116.8,233.1c-10.5-3.42-10.74-21.31-10.81-30.56-.1-12.72-.18-24.71-1.5-37.38,7.41,1.56,13.02,3.94,19.43,6.95-1.01,16.39-.37,45.89-7.12,60.98ZM140.79,264.24c-7.16-13.95-10.32-29.32-10.8-45.06l-1.35-44.41c7.34,3.49,13.48,6.7,19.85,10.76,2.17,15.98,3.23,65.99-7.7,78.72ZM83.59,157.77c-29.87,2.25-59.06,44.97-76.07,67.52,2.03-16.67,9.26-30.69,16.21-45.3,11.65-24.5,30.25-71.88,65.34-61.57,23.76,6.98,39.94,24.25,56.35,41.48l32.44,34.08c1.29,1.36,3.15,1.57,1.99,3.94-1.38-.89-2.43-1.64-3.39-2.52-26.11-13.4-62.76-39.88-92.87-37.61ZM166.94,241.43c-7.43-2.4-12.62-43.59-12.1-52.47l25.81,14.53-13.71,37.94ZM239.82,363.56c-4.32,2.76-13.42-20.75-15.07-24.56-.56-1.3-1.71-2.33-3.23-1.99-5.25,1.16,10.61,28.12,2.61,33.72-7.92-8.54-6.6-28.83-11.31-28.57-5.5.3,4.9,24.59-3.14,38.23-10.42-8.6.81-37.22-3.98-38.2-5.26-1.07-3.66,19.19-11.72,28.44-8.46-5.21,8.43-32.72,2.15-33.75-4.07-.67-8.5,21.91-17.4,27.64-5.95-5.86,11.61-37.04,15.2-43.61l30.01-.12c4.23,7.04,19.65,35.31,15.88,42.77ZM242.47,263.38l-66.54.27,26.29-136.51c4.95-.81,9.41-.78,14.56-.07l25.69,136.31ZM251.67,241.71l-13.65-38.05,25.79-14.45c.72,8.41-4.28,48.23-12.14,52.5ZM277.73,264.4c-10.15-10.18-8.89-51.28-8.5-65.33l.36-13.15c6.96-3.55,12.98-7.78,20.52-10.39-2.98,33.54,2.9,59.19-12.38,88.86ZM312.36,211.99c-.48,8.41-2.19,16.8-9.81,21.74-5.75-3.56-6.87-40.5-6.93-46.65-.08-7.97-3.04-12.36.27-14.45.18-.56.35-.57.49-.26,5.81-3.26,11.51-5.55,18.02-6.7-1.9,15.81-1.16,30.74-2.04,46.31ZM338.9,191.94c-1.34,5.46-7.27,13.25-12.44,11.44-5.32-1.86-6.86-31.83-6.6-38.95,6.74-2.15,13.66-2.75,21.28-.64.93,9.49.04,18.88-2.25,28.15ZM355.54,206.33c-7-.5-8.34-32.32-8.8-39.67,5.71,1.58,9.39,4.63,13.91,8.03.5,4.78,2.29,32.17-5.11,31.64ZM377.2,222.78c-8.24,2.35-10.38-36.23-10.64-42.55,6.77,4.81,10.54,10.99,16.13,16.64-1.11,7.37,2.05,23.75-5.49,25.9ZM396.37,239.93c-4.53-.31-8.22-29.29-7.68-35.28,4.27,5.43,8.64,9.77,12.07,15.48,2.96,4.93-.47,20.06-4.39,19.8ZM412.42,254.05c-3.9-7.38-5.26-14.68-4.7-23.19,5,7.01,7.96,14.67,4.7,23.19ZM411.23,226.5c-4.73-6.34-8.56-12.59-13.84-18.5-13.35-18.02-38.34-48.36-62.15-49.75-15.79-.92-31.36,4.08-45.13,11.51l-49.14,26.53c-.36.31-.65.5-.89.58-1.94,1.49-3.12,3.68-5.26,1.39,2.5-.61,3.54-2.16,5.08-2.98l36.47-38.18c15.81-16.39,38.19-38.46,62.46-39.47,28.51-1.19,45.06,39.26,55.15,60.75,7.3,15.54,14.92,30.2,17.26,48.12Z"/>
    </g>
  </g>
  <g>
    <g>
      <path class="cls-1" d="M1086.44,291.69c-7.45-.71-13.18,1.18-17.52,5.2-4.52,4.19-6.01,9.53-6.01,16.32v69.92s-41.52,0-41.52,0l-.11-122.3,41.63-.03.35,10.84c18.05-17.59,46.16-19.88,65.47-2.41,7.32,6.63,13.56,17.17,13.62,27.63l.51,86.24-38.07.25-.48-69.58c-.07-10.88-6.27-20.98-17.89-22.09Z"/>
      <path class="cls-1" d="M899.26,317.82c17.37-14.73,46.14-14.93,66.07-6.62.12-5.94-1.39-11.61-5.17-15.38-13.31-13.32-36.81-7.3-51.77,1.11l-12.84-25.73c20.47-9.26,42.66-16.67,65.13-12.93,22.63,3.77,43.13,20.54,43.34,44.7l.69,80.13h-38.14c-2.33-1.72-.66-6.37-1.51-9.54-19.29,16.06-47.2,16.18-66.67.6-9.2-7.36-13.17-17.33-13.16-28.25.02-10.9,4.76-20.25,14.03-28.11ZM964.74,348.42c1.55-4.84.4-10.71.22-15.37-7.69-3.21-14.46-3.02-22.42-3.48-9.93-.57-19.69,7.23-18.48,17.39.85,7.15,6.4,11.41,12.47,12.77,9.92,2.23,25.31-2.26,28.21-11.31Z"/>
    </g>
    <g>
      <path class="cls-1" d="M813.48,352.1c12.44,1.98,23.15-2.75,32.74-9.62l24.38,24.15c-28.76,25.22-74.87,26.06-100.65-2.08-22.75-24.84-21.72-70.18,7.05-93.36,13.29-10.71,31.24-15.19,48.36-13.5,38.6,3.81,56.34,39.6,53.97,75.53l-86.04.25c2.53,9.15,10.11,17.01,20.2,18.62ZM841.92,308.14c-2.89-9.96-10.3-16.94-19.42-17.54-13.21-1.81-24.9,5.29-29.1,17.83l48.52-.29Z"/>
      <g>
        <path class="cls-1" d="M604.23,354.99c-32.66,37.36-88.32,41.22-125.89,7.94-27.32-24.21-36.49-61.15-21.37-94.4,12.17-26.76,37.05-44.54,63.87-49.49,31.11-5.74,60.43,4.64,81.46,26.84,29.31,30.95,29.99,77.02,1.94,109.11ZM582.51,303.99c.91-12.49-3.84-23.79-11.17-32.61-18.01-21.66-48.98-22.18-67.57-1.34-8.9,9.97-12.82,22.13-11.52,36.34,1.69,18.55,15.51,35.77,34.03,40.41,28.06,7.04,54.12-13.69,56.23-42.81Z"/>
        <path class="cls-1" d="M723.88,340.64l27.03,21.89c-10.56,13.06-24.93,20.04-41.41,22.51-36.23,5.43-74.56-21.05-77.39-60.45-1.14-15.87,5.3-31.88,15.97-43.79,27.07-30.19,75.81-32.15,101.86-.93l-26.66,21.7c-11.12-11.34-28.45-13.53-40.75-3.83-12.44,9.81-14.8,27.09-5.97,40.88,4.95,7.74,13.15,12.32,21.37,12.78,9.88.56,18.41-2.58,25.95-10.77Z"/>
      </g>
    </g>
  </g>
  <g>
    <path class="cls-1" d="M906.34,221.68c-23.58,1.69-44.67-13.98-47.08-36.7-1.24-11.7,1.96-21.59,9.58-30.17,10.05-11.31,25.85-17.37,40.81-14.66,19.22,3.48,33.49,17.31,36.28,36.51,3.14,21.56-16.8,43.39-39.6,45.03ZM904.58,199.86c9.48-1.61,14.69-8.22,16.32-15.21,1.96-8.43-2.56-15.65-8.33-19.62-6.83-4.7-15.75-4.25-22.05.94-6.57,5.4-8.22,14.52-4.89,22.54,2.73,6.58,10.42,12.8,18.95,11.35Z"/>
    <path class="cls-1" d="M850.2,197.31c2.58,5.55,4.09,11.01,5.94,17.03-5.21,4.39-10.51,6.81-17.11,7.38-13.07,1.14-26.94-6.69-27.1-20.52l-.44-39-10.6-.19v-20.07s10.7-.15,10.7-.15l.04-21.34h24.97s.04,21.29.04,21.29l15.48.17v20.12s-15.52.19-15.52.19l.05,30.75c0,3.05,1.93,5.35,3.86,6.33,3,1.53,5.25,1.06,9.68-2Z"/>
  </g>
</svg>