<?xml version="1.0" encoding="UTF-8"?>
<svg id="Layer_1" data-name="Layer 1" xmlns="http://www.w3.org/2000/svg" viewBox="0 0 785.78 579.29">
  <defs>
    <style>
      .cls-1 {
        fill: #fff;
      }
    </style>
  </defs>
  <path class="cls-1" d="M145.05,562.51l-20.21-.19.05-5.84h27.69c.48,13.48-11.3,23.69-24.43,22.69-13.3-1.01-22.69-13.32-20.4-26.73,1.62-9.47,8.74-16.77,17.56-18.45,9.71-1.85,19.36,2.11,24.29,11.43h-7.82c-5.63-7.12-15.59-7.78-22.17-1.63-4.7,4.4-6.69,10.77-5,16.99,1.52,5.58,5.98,10.63,12.33,11.98,7.65,1.63,15.07-2.32,18.11-10.25Z"/>
  <path class="cls-1" d="M376.63,556.36c0,12.66-10.27,22.93-22.93,22.93s-22.93-10.26-22.93-22.93,10.27-22.93,22.93-22.93,22.93,10.26,22.93,22.93ZM370.26,556.38c0-9.15-7.42-16.57-16.57-16.57s-16.57,7.42-16.57,16.57,7.42,16.57,16.57,16.57,16.57-7.42,16.57-16.57Z"/>
  <path class="cls-1" d="M97.73,556.36c0,12.66-10.27,22.92-22.93,22.92s-22.93-10.26-22.93-22.92,10.27-22.92,22.93-22.92,22.93,10.26,22.93,22.92ZM91.38,556.38c0-9.15-7.42-16.57-16.57-16.57s-16.57,7.42-16.57,16.57,7.42,16.57,16.57,16.57,16.57-7.42,16.57-16.57Z"/>
  <path class="cls-1" d="M432.22,556.37c0,12.66-10.27,22.92-22.93,22.92s-22.93-10.26-22.93-22.92,10.27-22.92,22.93-22.92,22.93,10.26,22.93,22.92ZM425.87,556.38c0-9.15-7.42-16.57-16.57-16.57s-16.57,7.42-16.57,16.57,7.42,16.57,16.57,16.57,16.57-7.42,16.57-16.57Z"/>
  <path class="cls-1" d="M542.06,554.83c5.34,3.51,7.17,8.69,5.66,14.4-1.33,5.02-6.09,8.99-12.02,9.07l-15.43.21v-44.07s13.22-.05,13.22-.05c4.91-.02,9.29,2.91,10.82,6.46,2.12,4.89,1.92,9.67-2.26,13.97ZM535.64,551.96c2.46-.62,3.39-3.74,3.36-5.63-.02-1.48-1.09-4.38-2.78-4.98-3.06-1.09-6.07-1-9.29-.79v12.1c2.92,0,5.73.05,8.71-.7ZM535.64,572.1c3.83-.35,5.99-3.63,5.92-6.56-.07-2.82-2.04-6.31-5.48-6.61-3.08-.27-6.16-.22-9.17-.12l.07,13.58c3.04-.02,5.68-.02,8.66-.3Z"/>
  <path class="cls-1" d="M589.19,578.22l-8.1.15-14.2-19.72-.33,19.71-6.37.08v-44.02s16.14,0,16.14,0c7.95,0,13.17,6.08,13.3,13.74.12,7.39-4.03,12.98-12.26,14.04l11.83,16.02ZM576.74,556.26c4.48-1,6.43-4.67,6.2-8.36-.51-7.99-9.57-7.85-16.26-7.36v16.54c3.49-.01,6.74-.08,10.07-.82Z"/>
  <polygon class="cls-1" points="39.75 578.22 33.25 578.51 33.26 559.25 15.37 559.26 15.32 578.35 8.7 578.4 8.69 534.6 15.3 534.38 15.38 553.35 33.25 553.36 33.29 534.37 39.72 534.45 39.75 578.22"/>
  <polygon class="cls-1" points="318.71 578.28 312.07 578.38 312.02 559.26 294.13 559.25 294.14 578.49 287.66 578.3 287.66 534.6 294.1 534.34 294.15 553.36 312.01 553.35 312.09 534.41 318.68 534.43 318.71 578.28"/>
  <path class="cls-1" d="M624.3,534.77c1.82-.4,4.16-.43,6.46-.21l.04,30.56c0,8.22-6.26,13.99-14.43,14.15-8.53.17-15.15-5.83-15.16-14.41l-.02-30.37h6.65s.1,30.7.1,30.7c.02,4.74,3.96,7.94,8,7.99,4.71.06,7.89-3.4,8.37-8.31v-30.11Z"/>
  <path class="cls-1" d="M249.29,571.36c6.52,3.43,13.92,1.84,18.48-3.81h8.27c-3.72,7.36-11.33,11.38-18.65,11.69-8.67.37-16.33-3.99-20.62-11.38-6.48-11.17-2.73-25.25,8.3-31.4,10.71-5.97,25.07-2.82,31.37,9.07l-8.04.18c-5.1-6.76-13.92-8.01-20.86-3.37-5,3.34-7.67,9.11-7.28,14.99.37,5.5,3.4,11.08,9.02,14.03Z"/>
  <path class="cls-1" d="M705.73,564.79c.48,8.38-5.27,14.38-13.29,14.47-7.93.1-14.22-5.78-13.77-13.94l6.43-.18c.15,4.33,2.33,7.26,5.75,7.88,3.84.7,7.04-1.61,7.97-4.9,2.53-9.01-8-8.23-15.07-13.44-4.51-3.32-4.91-9.72-2.71-14.5,2.1-4.58,7.34-7.17,12.87-6.58,6.44.69,11.05,5.5,10.84,12.2l-6.29.1c-.74-3.13-1.82-5.24-4.16-6.01-2.45-.81-5.25.24-6.55,1.84-1.62,1.99-2.11,5.61.21,7.32,6.4,4.7,17.06,3.67,17.76,15.74Z"/>
  <path class="cls-1" d="M669.3,565.58c.05,7.61-5.03,13.05-12.31,13.64-8.35.67-15.2-5.27-14.84-14.02l6.49.07c.17,4.28,2.37,7.23,5.95,7.78,3.92.6,7.24-1.77,7.96-5.72,1.54-8.53-8.54-7.35-15.55-12.89-4.24-3.35-4.5-9.53-2.55-13.97,2.07-4.73,7.07-7.3,12.49-6.9,6.63.49,11.79,5.32,11.25,12.36l-6.19-.13c-.79-2.95-1.79-5.02-3.97-5.81-2.54-.92-5.32.06-6.66,1.72-1.69,2.1-2.13,5.79.27,7.47,6.4,4.47,17.58,3.88,17.66,16.42Z"/>
  <path class="cls-1" d="M224.33,565.63c.04,7.78-5.36,13.36-12.98,13.63-8.08.29-14.56-5.61-14.14-14.05l6.5.07c.08,4.5,2.54,7.3,6.05,7.81,3.97.58,7-2.14,7.7-5.36,1.95-8.95-8.18-7.66-15.37-13.23-4.27-3.31-4.6-9.58-2.57-14.14,2.06-4.64,7.12-7.23,12.52-6.8,6.64.53,11.61,5.36,11.24,12.36l-6.4-.08c-.46-3.26-1.62-5.16-4.39-6.04-2-.63-4.84.26-6.27,2.06-1.52,1.93-2.08,5.53.51,7.35,6.28,4.42,17.54,3.79,17.6,16.4Z"/>
  <path class="cls-1" d="M741.34,559.25l-17.26.02.04,13.07,17.2.08v6.05s-23.72,0-23.72,0v-44.08s23.69-.1,23.69-.1v6.12s-17.21.08-17.21.08l.05,12.65,16.83.04c.35,1.51.44,3.89.38,6.06Z"/>
  <polygon class="cls-1" points="187.74 559.27 170.39 559.26 170.44 572.36 187.67 572.41 187.69 578.48 163.9 578.47 163.88 534.42 187.41 534.26 187.59 540.41 170.38 540.49 170.45 553.16 187.67 553.2 187.74 559.27"/>
  <polygon class="cls-1" points="776.23 572.43 776.33 578.43 754.54 578.49 754.57 534.42 761.19 534.4 761.21 572.27 776.23 572.43"/>
  <polygon class="cls-1" points="466.27 572.4 466.32 578.5 444.5 578.41 444.52 534.52 450.96 534.43 451.01 572.32 466.27 572.4"/>
  <g>
    <path class="cls-1" d="M768.24,484.67c-14.09,7.48-30.77,8-45.18,1.94-12.45-5.23-20.43-16.65-21.31-29.85h30.61c.99,5.84,5.39,9.21,11.16,9.26,4.19.02,8.89-1.36,10.63-5.51,1.62-3.86-.89-8.22-4.6-10.11-11.53-5.87-23.31-7.09-34.3-14.3-5.64-3.7-10.37-8.84-11.73-15.56-2.61-12.89,3.54-25.16,14.76-32.05,12.96-7.96,29.13-8.92,43.38-3.4,12.17,4.72,19.89,15.57,20.77,28.78l-30.29-.02c-.51-3.62-1.86-5.31-4.41-6.85-5.46-1.92-13.69-.06-13.85,5.62-.47,16.37,54.54,7.19,51.79,45.52-.81,11.25-6.9,20.93-17.43,26.52Z"/>
    <path class="cls-1" d="M381.76,484.73c-13.94,7.31-29.92,7.86-44.23,2.25-12.83-5.03-21.24-16.6-22.18-30.21l30.57-.03c.99,5.37,4.83,8.96,10.39,9.24,4.18.21,9.04-.88,11.14-4.81,2.25-4.21-.58-9.11-4.85-11.1-13.35-6.21-26.51-7.68-37.23-16.53-7.22-5.97-10.16-14.42-8.45-23.65,4.68-25.26,36.44-34.04,59.44-24.33,11.74,4.96,19.09,16.08,19.57,28.35l-30.01-.05c-.8-3.52-2.25-6.36-5.75-7.12-5.38-1.17-11.89.2-12.61,5.33-2,14.3,39.15,10.08,48.81,30.94,7.21,15.57.9,33.57-14.62,41.72Z"/>
    <path class="cls-1" d="M156.85,424.67l-.39,62.9-31.01.05.1-67.19c.02-11.91,5.07-22.95,14.35-30.07,11.07-8.48,25.2-8.52,39.31-8.41v28.74s-8.62.19-8.62.19c-7.13.16-13.69,5.54-13.74,13.79Z"/>
    <path class="cls-1" d="M0,444.01v-15.51c3.91-19.86,16.73-36.73,35.19-43.42,20.47-7.42,42.74-2.62,57.58,12.57,12.43,12.72,17.48,30.2,15.09,47.83l-77.25.03c1.47,10.4,9.63,17.06,19.4,18.79,8.63,1.53,16.05-1.42,21.94-7.56l32.19-.11c-5.98,13.45-16.38,24.57-30.29,30.14-16.09,6.45-33.72,4.62-49.14-5.03-12.75-7.98-21.56-21.89-24.71-37.73ZM77.45,424.77c-2.65-11.22-12.62-17.26-23.52-17.2-10.83.06-20.56,6.48-23,17.25l46.52-.05Z"/>
    <path class="cls-1" d="M509.2,426.72v60.88s-31.05,0-31.05,0v-58.35c-.36-4.27-.82-8.53-2.76-12.08-4.95-9.08-21.79-8.02-26.89-2.62-2.84,3.01-4.61,7.93-4.62,12.5l-.11,60.56-31.06-.06.09-67.05c.39-18.23,11.52-33.18,29.35-36.88,6.99-1.6,13.96-1.67,21.23-1.74,10.93-.1,21.02,2.47,30.26,8.75,9.3-6.31,19.4-8.84,30.33-8.75,7.05.06,13.82.16,20.6,1.6,17.24,3.43,28.52,17.12,29.78,34.78l.07,69.34-31.03-.05-.09-62.5c-1.12-9.41-7.16-14.97-16.43-14.55-4.71.21-9.65.39-13.15,4.13-2.89,3.1-3.86,7.29-4.53,12.08Z"/>
    <path class="cls-1" d="M268.8,487.23l-.5-9.98c-8.96,11.98-24.22,14.96-38.81,12.79-16.29-2.43-29.96-12.2-37.12-27.16-7.24-15.12-7.91-32.35-2.17-48.03,9.52-26,37.65-39.4,63.72-30.4,6.09,2.1,10.35,5.89,14.45,11.03l.36-10.36,30.95-.02v102.15s-30.89,0-30.89,0ZM268.9,436.14c0-14.27-11.57-25.84-25.85-25.84s-25.85,11.57-25.85,25.84,11.57,25.84,25.85,25.84,25.85-11.57,25.85-25.84Z"/>
    <path class="cls-1" d="M657.58,385.27l31.05-.09-.08,68.88c-1.04,17.97-12.64,32.18-30.48,35.38-11.75,2.1-23.66,2.12-35.46-.06-17.97-3.32-30.12-18.18-30.15-36.58l-.12-67.71,31.02.05.05,61.79c1.03,5.1,1.97,10.35,6.72,12.98,6.09,3.37,14.5,3.36,20.6.05,4.8-2.6,5.77-7.82,6.8-12.88l.03-61.79Z"/>
  </g>
  <g>
    <path class="cls-1" d="M395.38,0c1.39.36,2.85.56,4.51.7,50.79,4.21,98.91,29.98,132.9,67.37,8.2,9.02,14.82,19.02,21.27,29.23l-147.91,147.86-62.39-62.32,84.99-84.97c-33.55-16.74-70.21-13.79-100.35,8.95-31.62,23.85-48.22,61.95-43.39,101.64,4.5,36.98,28.07,69.69,62.71,86.11l-124.72.08c-55.34-94.86-22.95-217.08,72.89-271.61,21.8-12.4,46.32-20.19,72.07-22.35,1.9-.16,3.35-.15,4.53-.68h22.91Z"/>
    <path class="cls-1" d="M565.2,294.59l-124.35-.11c27.72-13.94,47.99-36.26,57.44-65.46h90.67c-3.9,23.16-11.88,44.65-23.76,65.56Z"/>
  </g>
</svg>