<?xml version="1.0" encoding="UTF-8"?>
<svg id="Layer_1" data-name="Layer 1" xmlns="http://www.w3.org/2000/svg" viewBox="0 0 1016.83 574.68">
  <defs>
    <style>
      .cls-1 {
        fill: #fff;
      }
    </style>
  </defs>
  <g>
    <polygon class="cls-1" points="694.41 443.02 689.74 355.74 723.74 353.26 723.77 394.83 722.62 443.44 729.25 420.82 748.34 351.24 772.34 349.44 772.57 408.76 771.85 443.44 781.46 408.59 796.44 347.36 825.84 344.74 822.73 369.45 805.18 426.52 779.4 512.79 751.29 510.81 750.05 433.87 749.86 426.68 742.81 449.1 725.48 509.26 697.25 507.86 694.41 443.02"/>
    <path class="cls-1" d="M294.78,511.33l-30.84,2.31-19.16-51.36-4.48.04c2.02,17.67,3.56,34.86,4.29,52.91l-30.84,2.78c-1.11-22.15-3.2-43.18-5.98-64.71l-6.37-47.06c-2.73-20.14-4.41-39.95-5.45-60.44l64.34,6.38c4.95.49,9.2,1.89,13.37,4.33,4.94,3.73,8.31,9.09,8.87,15.57l5.06,58.46,1.54,18.18c.63,7.43-5.7,12.66-13.02,12.75l18.06,44.86c.44,1.58.6,2.66.63,5ZM256.08,432.62l-5.1-49.89c-.14-1.69-1.43-3.31-3.16-3.42l-16.79-1.09,6.22,57.54,16.12.03c.65,0,1.9-.43,2.29-.85.32-.35.5-1.46.42-2.32Z"/>
    <path class="cls-1" d="M183.17,418.35l4.12,30.06-26.5.2,5.16,39.93,32.92-1.71-2.74,32.89-59,5.5c-1.52-23.22-3.93-45.49-7.55-68.13l-8.61-53.91c-3.26-22.31-5.92-44.11-7.3-66.99l21.35,2.56,43.33,5,5.9,24.19.8,8.71-34.34-2.65,5.64,43.27,9.45.39,17.38.71Z"/>
    <path class="cls-1" d="M77.44,415.01l26.89.87,5.22,32.88-26.43.27,3.86,24.69c2.92,18.46,5.01,36.63,6.33,55.54l-31.71,3.11-9.07-66.19-11.6-70.38c-3.66-22.22-6.62-43.92-9.16-66.78,11.48-.03,22.65-.12,34.13,1.36l31.36,4.06,4.49,19.44c1.26,5.45,1.1,10.7,1.89,16.29-1.59.03-3.08-.07-4.75-.22l-6.5-.55-21.92-1.74,6.98,47.33Z"/>
    <path class="cls-1" d="M549.41,485.94l-15.04-.07-6.72-.08-3.71,17.79-31.18.08,17.76-76.99,15.98-64.74,35.76-.64,7.22,47.72,11.37,83.17-3.18,11.96-26.48-.45-1.79-17.73ZM547.14,463.53l-5.2-50.45-9.84,50.15,15.04.3Z"/>
    <polygon class="cls-1" points="937.1 527.62 906.29 524.51 918.42 457.24 929.63 406.4 942.32 336.66 974.95 333.94 962.31 403.07 950.58 454.88 937.1 527.62"/>
    <path class="cls-1" d="M107.91,401.94c-2.69-.73-5.22-1.37-8.05-1.49l-11.96-.51-2.28-15.7,19.92,1.16,2.38,16.54Z"/>
    <path class="cls-1" d="M188.45,406.26c-1.94-.54-3.9-1.73-5.66-1.83l-15.55-.85-1.79-14.37,21.11,1.33,1.89,15.71Z"/>
    <path class="cls-1" d="M176.76,473.66l-1.34-10.87,13.44-.41c2.51-.08,4.43-.75,7.08-2.24l1.59,12.79-20.76.73Z"/>
    <path class="cls-1" d="M894.2,516.47c.24,2.35.22,4.31-.37,6.79l-30.8-3.08-5.98-58.35-4.49-.04-8.88,56.45-30.9-2.87,13.04-84.79,13.36-86.85,64.77-4.42c3.68-.25,6.89.03,10.3.8,8.67,2.41,11.21,12.13,9.74,19.77l-10.88,56.49-6.53,30.93c-1.75,8.44-8,16.05-17.79,15.96l5.42,53.21ZM877.77,431.13l10.61-55.97c.14-.76-.33-2.96-1.08-3.13-3.28-.37-7.12-.12-10.39.03l-8.22.37-10.82,60.89c7.95.69,7.18-.55,15.13.4,1.85.22,4.31-.23,4.76-2.59Z"/>
    <path class="cls-1" d="M382.59,506.44l-24.96,1.17-17.11-47.12c-1.55-.29-3.03-.26-4.53,0l2.17,48.13-30.94,1.87-3.52-58.21-3.84-40c-1.84-19.16-2.93-37.93-3.4-57.21l64.68,3.95c3.4.21,6.45.94,9.58,1.88,6.97,2.53,11.42,8.38,12.07,15.99l2.89,68.29c.35,8.32-4.84,14.57-13.85,14.47l13.16,33.5-2.42,13.29ZM353.27,432.99l-2.68-45.57c-.06-1.5-1.36-3.02-2.88-3.08l-17.03-.65,3.61,52.43,16.39.02c1.57,0,2.75-1.2,2.59-3.15Z"/>
    <path class="cls-1" d="M647.61,487.29l-21.64-.31-4.55,18.27-31.09-.89,26.48-94.34,14.67-51.02,35.74-1.8,8,89.56,4.69,60.35-31.14-1.11-1.17-18.7ZM646.54,463.86l-2.13-52.29-12.93,52.27,15.06.02Z"/>
    <path class="cls-1" d="M453.68,504.27l-2.57-17.74-21.74.31-2.97,18.03-31.16,1.03,11.6-67.08c4.15-26.05,8.7-51.49,14.63-77.53l35.75.65,13.22,65.61,12.39,64.1-2.68,12.07-26.48.53ZM447.7,464.2l-8.22-51.07-6.86,51.15,15.09-.09Z"/>
  </g>
  <g>
    <path class="cls-1" d="M183.02,291.37c.83,0,1.72-.21,1.94-.37l-7.93-8.81c-7.64-8.49-17.78-27.91-22.51-38.7-2.93-6.68-8.49-26.53-9.08-33.64-.79-9.57-.24-29.01,1.84-38.23,3.72-16.46,8.38-25.42,16.35-40,3.71-6.79,14.33-18.15,20.23-23.56,8.63-7.92,16.64-13.74,26.84-19.47,12.43-6.99,27.54-12.67,41.72-14.65,7.95-1.11,30.72-1.67,37.1.86,4.99,1.98,10.73,4.7,14.76,8.3s7.36,9.66,10.31,14.37c1.74,14.64,2.92,18.62-4.56,32.01-1.97,3.52-5.75,6.75-8.82,9.32-4.96,4.15-16.8,10.15-22.49,15.6-2.86,2.74-5.34,5.62-7.91,8.69s-6.9,11.6-4.41,15.74c1.31,2.18,3.21,5.22,5.46,6.55,7.16,4.23,14.87,7.12,22.91,8.98,7.31,1.69,14.16,1.14,21.39.15,14.29-1.95,27.55-5.9,40.28-12.73,8.18-4.39,15.97-8.71,23.66-13.92l23.81-16.11c16.95-11.47,38.53-20.08,58.36-25.49,11.34-3.09,22.65-4.58,34.41-5.1,5.43-.24,10.62-.59,16.04-.35,9.84.44,19.34,1.5,29.07,2.68,2.33.28,4.39,1.28,6.92,1.73l4.24-21.64c2.68-13.65,7.71-29.45,14.32-41.6,2.73-5.03,5.45-9.97,8.78-14.63,7.39-10.35,20.88-21.28,31.17-29.12,4.53-3.45,9.21-6.44,14.12-9.36,5.83-3.46,16.82-7.85,23.34-8.44,33.45-3.06,46.94,12.03,74.76,12.48,20.1.33,38.2-4.3,58.82-2.81,27.06,1.96,49.14,13.09,64.43,35.67,4.6,6.8,9.71,18.74,12.19,26.74,4.49,14.48,7.35,30.8,5.97,46.03-.53,5.88-2.62,11.85-5.44,16.8-2.26,3.97-5.83,6.57-8.52,9.97l-5.98,7.54c-3.12,3.94-7.24,7.09-11.4,10.02-3.53,2.48-7.98,4.31-12.02,5.7-2.92,1.01-6.35-.33-9.64.4l5.35,19.3,2.17,2.02c.61,5.54,3.22,10.95,3.21,16.67-.01,4.6-.59,9.89-2.01,14.2-1.82,5.53-4.06,10.98-7,15.95-2.58,4.35-6.29,8.33-9.85,11.96-6.71,6.87-15.88,12.98-24.88,16.39-4.59,1.74-9.47,2.8-14.32,3.68-3.7.67-7.61.6-11.46.69-5.94.14-11.94-.7-17.76-1.69-.26-.04-.85.25-.7.43,1.86,2.19,5.42,12.93,6.41,16.14.79,2.58.38,5.13,1.03,7.82l109.4.48,103,.5,41.49.24c7.7.05,14.64,3.57,19.12,9.05,4.98,6.1,6.9,13.78,5.17,21.55l-49.42,221.32c-3.87,17.31-20.95,30.39-38.85,28.92l-280.29-22.9c-99.65-8.14-199.21-7.86-298.87.31l-273.11,22.39c-20.19,1.66-39.36-11.16-42.45-31.92L.28,321.26c-2.22-14.94,9.07-28.58,24.1-28.77l16.54-.21,40.26-.47,58.15-.35,43.68-.08ZM796.54,110.86l-37.62,5.94c-15.98,2.52-32.05,1.93-47.79-1.26-25.33-5.13-26.97,6.17-42.58,3.81-5.41-.82-10.97-2.68-15.56-5.67-8.61-5.59-10.61,1.83-17.82,5.35l-.41,1.12,3.42.36c1.68.18,3.74.22,5.33.62,8.58,2.16,23.14,14.13,28.01,19.96l14.79,17.7c3.46,4.14,15.96,16.94,20.11,20.3,5.17,4.19,10.48,7.89,16.17,11.34s12.11,6.13,18.3,9.22l19.4,9.66c3.98,1.98,9.56,3.88,13.49,5.09,4.68,1.44-6.35,13.19-16.21,15.28-6.23,1.32-21.06.55-26.39-2.47-7.05-4-33.85-18.46-39.9-20.31l-22.71-6.92c-5.43-1.66-15.3-5.58-19.77-8.77-3.1-2.21-5.62-4.97-8.53-7.44-7.98-6.76-9.7-10.9-13.66-19.54-1.75-3.82-3.15,1.9-1.09,8.34l3.64,11.38c2.48,7.77,2.89,15.78,1.18,23.9-2.55,12.12-7.55,25.5-16.17,34.55-6.78,7.13-14.3,12.75-22.41,18.16-.48.32-2.32-.63-2.28-1.22.09-1.22.37-13.12-2.06-11.44-1.84,1.27-6.29,12.49-14.47,18.7l-4.46,3.38c-.33.25-.69,1.21-.62,1.55.39,1.84,10.45,5.41,12.82,6.28,7.33,2.7,14.22,5.37,21.29,8.61,12.08,5.54,20.48,14.63,18.03,28.81-1.19,6.9-3.61,13.45-8.72,18.52l12.91-.55c6.1-8.5,7.19-18.32,5.89-28.87-1.06-8.67-7.87-13.87-6.54-15.1.37-.34.94-.78,1.64-1.37l6.35-5.35c.43-.36,1.62-1.88,2.06-1.43l5.62,5.69c3.86,3.91,8.46,7.37,13.96,8.5,4.03.83,8.28.44,12.3.68,4.68.28,2.35,8.04.95,10.67s-3.2,5.59-4.85,8.01c-.2.29-.41,1.07-.4,1.36.07,1.63,11.18,2.3,15.28,1.44,4.83-1.01,8.07-6.75,11.79-6.74,2.11,4.65.87,13.67,3.98,15.18.66.32,2.32.13,3.03-.31,5.03-3.14,7.82-8.08,10.14-13.39,4.81-11.03,4.56-24.03-3.99-33.16-11.09-11.84-20.31-9.29-35.02-10.37-5.15-.38-7.53-1.77-8.88-7.58l-2.85-12.3c-1.6-6.91-1.31-3.58,4.07-12.25,3.45-5.56,6.72-10.93,9.79-16.75.86-1.64,2.6-2.39,4.62-2.22,10.04.82,19.42,3.5,28.88,6.84,13.1,4.63,17.45,9.16,28.63,12.91,9.9,3.32,23.48,4.25,33.35.49,8.17-3.11,14.95-8.71,19.97-15.93,1.74-2.51,2.67-5.6,3.95-8.55.41-.95.54-2.71.77-3.79,1.24-5.84-5.66-6.28-5.63-9.07l.08-8.57c0-.38-.19-1.19-.31-1.53-.08-.23-1.08-.05-1.33.05l-10.63,4.44c-.72.3-1.8.41-2.31.16s-.7-1.89-.68-2.54l.36-10.07c.03-.94-.36-2.5-1.05-2.77-.59-.23-2.34-.26-2.92.08l-8.99,5.36c-.51.31-1.85.46-2.34.22s-.58-1.68-.41-2.34c1.01-3.9,2.1-8.54,2.82-12.37.66-3.52-7.58.17-7.95.32-.46.2-10.05,4.49-9.4,2.24,1.3-4.52,3.24-8.12,4.2-13.65-3.34-1.83-9.69.39-9.49-3.08.42-7,.11-13.47-.79-20.45-.2-1.56-.14-3.32.14-4.9,3.94-.48,11.53-1.94,12.95,1.84l2.25,6.03c.44,1.19,2.05,2.56,3.12,2.62,1.13.07,2.94-.54,3.8-1.37l8.15-7.92c.63-.61,1.98-1.16,2.66-.89.74.3,1.48,1.8,1.51,2.64l.36,10.76c.05,1.56,3.11,1.5,4.06.61,4.87-4.55,9.14-9.06,13.68-13.98.34-.37,1.4-.81,1.98-.68l.59,9.82c.05.86.88,2.27,1.54,2.63,2.42,1.32,7.99-4.58,9.59-6.48l5.66-6.75c4.15-4.95,2.36,12.83,8.2,8.78,4.41-3.05,9.11-8,11.99-13,1.01-1.75,2.38-2.58,4.02-3.71,6.7-4.61,1.94-27.72,0-35.09-3.07-11.66-7.88-23.9-16.51-32.46-16.61-16.48-39.08-16.13-61.1-13.86-26.35,2.72-41.88,3.67-67.38-4.5-12.13-3.89-21.61-7.38-34.47-6.14-7.84.75-18.02,7.6-24.27,12.38-7.4,5.65-19.29,15.16-24.42,22.52-11.15,15.99-16.35,33.83-19.67,52.86-1.73,9.89-3.87,19.22-7.56,28.6-2.79,7.12-11.7,12.73-18.06,11.13l-18.3-4.6c-13.49-3.39-41.89-2.75-56.61-.14-20.03,3.55-43.89,13.09-60.54,24.38l-22.88,15.51c-10.02,6.79-27.53,16.61-38.71,21.3-4.93,2.06-9.9,3.86-15.06,5.35-8.47,2.45-21.97,4.79-30.86,5.59-6.75.61-17.77-.12-24.36-1.69-9.38-2.24-26.74-8.66-34.02-14.32-5.23-4.07-9.43-9.73-12.97-15.28-2-3.12-3.21-7.52-3.94-11.16-1.54-7.71.12-17.29,3.35-24.5,1.77-3.95,3.79-8.13,6.42-11.52,3.92-5.05,8.14-9.72,12.73-14.14,3.31-3.19,7.28-5.8,11.11-8.31l12.7-8.32c2.67-1.75,4.14-5.39,2.78-8.28-1.46-3.09-4.98-4.31-8.25-4.5-10.61-.6-20.87-.42-31.07,2.71-16.31,5.01-29.62,12.84-42.2,24.23-4.33,3.92-12.61,12.66-15.27,17.59-5.95,11.04-9.77,18.02-12.48,30.44-1.39,6.39-2.04,22.94-1.23,29.15,1.1,8.42,3.48,16.45,6.6,24.37,3.01,7.66,7.02,14.65,11.03,21.83,9.37,16.79,33.03,35.6,49.75,45.09,8.59,4.88,17.05,9.05,26.14,12.77,10.57,4.33,30.48,11.49,41.18,14.21,10.25,2.6,63.78,11.36,72.83,11.7l29.68,1.11c.22-1,.07-2.08-.4-2.8-6.89-10.57-17.12-29.02-19.83-41.03-3.75-16.62-2.57-30.81-1.27-47.61.33-.79.46-1.49-.27-.84-1.21,1.66-2.21,3.1-2.91,4.69-5.41,12.46-7.97,20.1-9.23,33.94-.74,8.17,2.78,15.98-4.38,16.87-7.41.92-14.69,2.61-22.24,2.92-9.95.41-19.58.45-29.52,0-7.34-.34-14.47-1.48-21.66-2.69-8.32-1.39-26.21-6.27-34.11-9.3-6.12-2.35-11.97-4.86-17.83-7.75-6.44-3.18-19.7-11.18-25.14-15.72-5.97-4.99-17.47-16.55-21.74-22.73-3.8-5.49-12.21-21.59-13.48-27.73-2.26-10.9-4.06-26.45-1.81-37.19,1.83-8.75,8.33-24.92,13.84-32.07,4.15-5.39,11.67-14.06,17.05-17.86,4.68-3.31,9.25-6.53,14.29-9.2,7.74-4.11,15.63-7.17,23.97-9.59,2.12-.62,10.74-2,9.97,1.02-.12.48-.83,1.06-1.49,1.51-7.19,4.83-14.08,10.01-19.96,16.42-8.15,8.89-11.94,13.96-16.28,25.62-2.26,6.08-3.54,19.23-2.36,25.57.83,4.43,2.34,9.1,4.32,13.07,3.52,7.04,11.64,16.12,18.1,20.79,3.75,2.71,7.86,5.37,12.13,7.2,6.71,2.88,13.4,5.53,20.46,7.39,14.17,3.73,34.02,3.4,48.66,1.56,7.32-.92,14.33-3.25,21.48-5.18,5.38-1.45,25.34-10.3,30.33-13.19,6.59-3.81,13.37-7.27,19.42-11.98,18.25-14.19,37.54-25.9,59.22-34.22,8.47-3.25,16.78-5.78,25.79-7.17,14.18-2.18,31.67-2.84,45.74.28l19.53,4.33c5.63,1.25,11.48.68,16.75-1.11,6.07-2.07,10.39-6.15,13.4-11.56,4.07-7.32,4.95-15.91,6.49-24.1,1.95-10.4,4.1-20.45,6.78-30.68,1.45-5.51,7.92-19.21,11.32-24.02,2.83-4,6.03-7.58,9.34-11.18,4.11-4.48,14.52-12.65,19.72-16.18,3.7-2.51,7.61-4.42,11.7-6.47,3.57-1.79,10.8-1.47,14.83-.74,5.35.97,21.42,8.1,31.5,9.75,13.27,2.18,26.14,2.8,39.55,2.5,10.37-.23,20.17-1.49,30.48-2.33s25.48.81,34.26,6.13c9.11,5.52,11.99,9.87,16.87,19.43,3.35,6.55,6.11,17.39,7.18,24.82.49,3.41.1,6.73.11,10.41l-9.95-.19c-4.79-.09-9.5.28-14.49,1.07ZM670.75,84.9c5.38-6.33,5.37-15.54.5-21.95-2.41-3.17-5.89-5.01-9.55-5.19s-7.41,1.34-10.06,4.34c-5.65,6.4-5.75,16.18-.32,22.7,5.15,6.18,14.05,6.44,19.43.1ZM799.12,77.06c1.52-3.72-.64-7.25-3.26-9.76-3.79-3.64-7.96-5.61-13.32-5.69-3.63-.05-6.39,1.37-8.51,4.4-1.7,2.43-2.65,5.78-.98,8.53.44.73,2.39,1.26,3.18.98.64-.23,1.28-1.07,1.93-2.03,5.46-7.92,17.96,6.71,20.95,3.57ZM548.4,336.82l46.32-2.41c2.48-.13,3.83-1.26,6.61-.38,2.16.68,5.85-.24,8.28-.22-1.54-6.38,1.91-11.46-.31-19.8-.55-2.09-5.38-8.13-8.2-6.23-1.63,7.6-6.44,14.31-12.63,18.75-.52.37-2.51.51-2.64-.1-.56-2.78,4.33-12.02,1.5-21.89-1.67-5.85-14.52-9.35-20.07-10.79l-13.79-3.57c-5.03-1.3-9.07-4.67-11.7-8.89-3.66-19.1,8.03-34.28,15.93-51.31-12.08,8.43-20.32,20.8-25.25,34.04-1.51,4.05-1.84,8.17-2.14,12.34-.96,13.44,3.39,18.65,2.91,20.53-.15.57-1.18,1.34-1.82,1.55-7.35,2.41-14.49,3.22-22.23,2.94-1.2-.04-3.28-.15-3.88-1.07-1.17-6.65-1.76-12.78-3.39-19.23-2.78-11.05-7.6-20.96-13.99-30.49-.52-.78-9.74-12.89-10.34-11.49l-.37.85c1.81,3.69,4.46,6.98,5.98,10.81,2.31,5.85,4.16,11.66,5.94,17.7,2.18,7.41,3.82,19.43,2.94,26.85-.8,6.66-1.86,13.06-3.47,19.5-1.23,4.92-3.26,9.62-5.18,14.28-1.4,3.39-3.47,6.25-5.16,9.74l70.15-2.02ZM805.4,476.68c-1.88,13.31-3.92,26.18-5.04,39.58-.47,5.55,3.76,12.01,9.35,12.62l32.74,3.58c3.49.38,6.99-1.33,9.23-3.69.4-.41,1.34.55,1.64,1.03,2.23,3.53,5.72,4.65,9.6,5.1l29.59,3.41c1.95.22,4.61-.37,6.29-.53,2.79,1.39,5.2,1.74,8.15,2.09l27.06,3.25c8.44,1.02,14.1-6.36,15.08-12.86,3.8-25.25,8.25-50.01,13.88-75.02l11.21-49.76c5.48-24.32,9.87-48.4,13.45-73.05.49-3.37.07-6.57-1.39-9.36-1.73-3.28-5.04-5.12-8.79-4.75l-33.76,3.32c-5.87.58-10.13,5.08-12.92,9.83-.2.39-.98-.43-1.23-.63l-.57-.47c-8.66-7.18-19.93-5.99-30.49-5.12l-59.11,4.91-6.38.64c-12.2,1.22-24.25,1.97-36.41,3.54-5.1.66-8.58,4.77-11.36,8.63-1.88-3.98-5.68-6.97-10.17-6.59l-24.93,2.08c-10.15.84-13.24,9.12-13.7,8.34l-.48-.81c-2.11-3.61-6.08-5.62-10.36-5.27l-10.31.84-24.97,2.04c-3.91.32-7.33,2.24-10.04,4.9l-1.07,1.05c-.55.54-2.91-4.86-10.4-4.42l-37.65,2.24c-5.44.32-10.95,4.27-12.45,9.56l-28.43,100.42-.31,1.01c-.05.15-.2.2-.39.34-.13.09-.19-.64-.24-1.04l-14.04-99.9c-.62-4.38-5.84-7.93-10.15-7.85l-39.4.79c-7.9.16-11.62,5.9-13.18,12.56l-22.53,96.66-9.31-46.65-10.5-53.96c-.92-4.73-6.08-8.52-10.91-8.62l-39.1-.87c-4.75-.11-10.3,3.21-11.45,7.95-4.55,18.82-7.75,37.31-11.16,56.76.1,1.38-.23.25-.54-.7l-1.02-35.9c-.33-11.62-6.83-21.34-17.15-26.3-5.81-2.79-11.82-4.07-18.39-4.52l-64.85-4.48c-4.89-.34-9.12,2.03-11.62,6.42-6.57-5.11-13.99-8.47-22.5-9.44l-66.7-7.53c-2.95-.33-5.71.8-8.02,2.05-2.78-2.12-5.74-3.93-9.43-4.4l-41.49-5.32-20.91-2.73c-3.64-.48-6.96-.56-10.19,1.6-2.59-2.15-5.65-3.68-9.1-4.18l-30.51-4.45c-12.2-1.78-24.28-1.83-36.51-1.57-7.6.16-10.45,8.57-9.75,14.89,2.52,22.87,5.54,45.24,9.32,67.99l11.62,69.84c3.84,23.06,6.92,45.71,9.51,68.85.83,7.44,5.56,14.76,14.15,13.8l31.07-3.48c6.92-.77,11.44-8.81,11.06-15.79-1.17-21.72-4.09-42.66-7.49-64.65l12.75-.32c2.44-.06,4.69-.73,6.8-1.83,3.32,21.69,5.63,43.04,7.19,64.79.48,6.73,5.53,13.86,13.04,13.04l57.86-6.36c4-.44,6.99-2.1,9.6-5,2.52,2.08,5.58,3.3,8.98,2.94l30.32-3.21c4.05-.43,7.42-2.52,9.87-5.71,2.92,2.91,6.77,4.22,11.19,3.77l32.7-3.33c2.66-.27,4.11-.36,6.78-.52l33.52-2.04c3.73-.23,6.72-2.4,9.21-4.82,2.44,1.96,5.31,3.85,8.9,3.68l69.85-3.21c4.97-.23,9.55-3.33,11.23-7.79,1.15-3.06,1.32-6,2.02-9.65l.42.7c.41,2.69.71,5.15,1.28,7.84,1.03,4.88,5.95,8.31,11.1,8.21l32.46-.61,6.06-.07,32.74-.04c5.22,0,10.55-3.47,11.78-8.48l2.09-8.56c-.12-.36.1.32.24.77l.8,7.07c.52,4.61,4.84,9.17,9.92,9.27l34.35.7,4.88.15,33.53,1.11c5.4.18,10.46-3.92,11.79-8.89l2.54-9.5c.38,4.08-.03,7.65.95,11.45,1.14,4.4,5.47,7.68,10.07,7.89l31.16,1.45c3.55.16,6.66-.76,9.62-2.73,2.21,1.71,4.85,3.46,7.89,3.63l29.92,1.65c7.36.41,11.72-6.44,12.84-13.27.27,1.22.51,3.03.66,4.52.63,6.24,5.42,10.28,11.45,10.79l25.32,2.15c6.77.57,13.31-2.2,15.29-9.44,5.36-19.68,10.63-39.35,16.93-58.34l-2.6,18.35Z"/>
    <path class="cls-1" d="M708.81,172.52c-4.32-4.04-8.44-7.42-12.16-11.63l-9.57-10.84c-1.69-1.92-3.12-3.9-3.43-6.58,6.57-4.24,22-.79,25.76,5.17,6.25,9.91,4.04,28.23-.61,23.88Z"/>
  </g>
</svg>