<?xml version="1.0" encoding="UTF-8"?>
<svg id="Layer_1" data-name="Layer 1" xmlns="http://www.w3.org/2000/svg" viewBox="0 0 2142.76 705.41">
  <defs>
    <style>
      .cls-1 {
        fill: #fff;
      }
    </style>
  </defs>
  <g>
    <g>
      <path class="cls-1" d="M715.63,485.66v-25.41c5.03-.97,7.55-1.46,12.58-2.44,0-39.99.01-79.97.02-119.96-5.04.18-7.56.27-12.6.45v-25.41c16.44-.05,32.89-.1,49.33-.15,7.96-.02,15.07,1.71,21.31,5.07,6.24,3.36,11.5,8.25,15.94,14.57,4.44,6.32,7.87,14.07,10.35,23.17,2.83,10.42,3.81,21.47,3.94,31.87.18,14.1-1.2,28.74-6.09,42.63-3.92,11.14-10.39,21.13-18.51,29.59-6.67,6.95-17.53,13.02-27.04,14.86-16.41,3.72-32.81,7.44-49.22,11.16ZM749.41,451.62c5.09-.97,7.64-1.46,12.73-2.43,7.07-1.35,12.92-4.37,17.56-8.94,4.64-4.57,8.11-10.99,10.43-19.19,2.84-10.01,3.5-20.75,3.49-30.73,0-9.62-.58-20.04-3.72-29.62-2.5-7.63-6.08-13.27-10.74-16.9-4.66-3.63-10.31-5.37-16.95-5.12-5.1.2-7.65.3-12.75.49-.02,37.48-.03,74.96-.05,112.44Z"/>
      <path class="cls-1" d="M824.16,460.68c-.14-8.71-.22-13.07-.36-21.79,14.8-2.93,29.61-5.72,44.46-8.35.32,8.15.48,12.22.8,20.37-15.01,3.09-29.96,6.35-44.9,9.77ZM832.52,442.83c10.42-43.41,20.53-86.9,30.6-130.39,8.62-.02,12.93-.04,21.55-.06,13,38.35,26.63,76.46,40.61,114.46-8.79,1.2-13.22,1.85-22.16,3.23-3.15-8.95-6.27-17.91-9.35-26.89-11.55,1.48-23.07,3.03-34.6,4.65-2.12,10.33-4.25,20.66-6.4,30.98-8.02,1.54-12.06,2.34-20.24,4.01ZM862.85,385.57c9.82-1.09,14.7-1.61,24.4-2.57-4.91-14.79-9.7-29.61-14.39-44.47-3.33,15.68-6.66,31.36-10,47.04ZM888.36,447.17c-.36-7.93-.54-11.89-.9-19.83,15.19-2.36,30.38-4.52,45.62-6.49.38,7.49.58,11.23.96,18.72-15.27,2.31-30.48,4.84-45.68,7.59Z"/>
      <path class="cls-1" d="M931.41,330.94c-.38-7.47-.57-11.2-.96-18.66,9.51-.02,19.02-.03,28.53-.05.35,7.26.52,10.88.87,18.14-9.48.17-18.96.36-28.44.57ZM936.95,439.15c-.38-7.46-.57-11.2-.96-18.66,14.55-1.7,29.1-3.2,43.69-4.49.31,7.16.47,10.74.78,17.9-14.54,1.52-29.03,3.27-43.52,5.26ZM949.36,437.46c-2.1-41.73-4.2-83.47-6.29-125.2,8.29-.01,12.43-.02,20.72-.03,16.38,27.49,32.88,54.91,49.15,82.46-.86-27.5-1.71-55.01-2.57-82.51,7.4,0,11.1,0,18.5-.01.9,39.38,1.79,78.77,2.69,118.15-7.75.32-11.63.53-19.43,1.02-16.11-27.37-32.52-54.57-48.86-81.8,1.35,28.58,2.7,57.17,4.05,85.75-7.14.8-10.73,1.24-17.95,2.18ZM997.82,329.82c-.26-7.05-.39-10.58-.64-17.63,14.84-.01,29.67-.02,44.51-.03.11,6.93.17,10.39.28,17.32-14.72.08-29.43.19-44.15.34Z"/>
      <path class="cls-1" d="M1097.76,431.67c-9.42-.33-17.44-2.94-24.19-7.93-6.75-4.99-11.95-12.01-15.71-20.91-4.28-10.15-5.72-21.47-5.84-31.82-.12-10.35,1.02-21.77,5.22-31.98,3.69-8.95,8.93-16.02,15.83-20.99,6.91-4.97,15.12-7.46,24.56-7.46,7.08,0,13.28,1.4,18.57,4.23,5.29,2.83,9.4,7.21,12.34,13.14,2.93,5.94,4.4,13.55,4.41,22.81-3.68-.08-5.52-.12-9.2-.2-.42-4.61-1.68-8.5-3.82-11.65-2.13-3.15-4.84-5.51-8.12-7.09-3.28-1.58-6.8-2.38-10.55-2.4-7.01-.04-12.6,1.81-16.72,5.52-4.13,3.71-7.05,8.71-8.79,14.98-1.74,6.28-2.6,13.28-2.6,21.02,0,7.73.91,14.73,2.68,21,1.78,6.26,4.62,11.25,8.52,14.98,3.9,3.73,9.04,5.67,15.48,5.87,6.48.2,11.74-1.81,15.81-6.14,4.06-4.33,6.49-10.64,7.22-18.93,6.8.26,10.21.42,17.03.76-.89,9.74-3.19,17.9-6.86,24.45-3.66,6.55-8.49,11.36-14.48,14.5-5.99,3.14-12.91,4.51-20.8,4.23ZM1123.82,350.57l.99-38.66c5.81,0,8.71,0,14.52.01-.41,12.99-.83,25.98-1.24,38.97-5.71-.14-8.57-.2-14.27-.32Z"/>
      <path class="cls-1" d="M1151.64,330c.26-7.12.39-10.68.65-17.8,11.16.01,22.31.03,33.47.05-.33,7.32-.5,10.98-.84,18.3-11.09-.2-22.19-.38-33.28-.55ZM1147.86,433.25c.26-7.12.39-10.68.65-17.8,10.67.8,21.32,1.84,31.97,2.9-.33,7.32-.5,10.98-.83,18.3-10.59-1.24-21.17-2.45-31.79-3.39ZM1159.93,434.41c1.66-40.73,3.31-81.46,4.97-122.2,21.75.03,43.5.07,65.25.11-.4,8.31-.6,12.46-1,20.77-14.64-.39-29.28-.75-43.92-1.06-.48,10.61-.97,21.21-1.45,31.82,10.39.53,20.79,1.13,31.17,1.8-.38,7.88-.57,11.82-.96,19.7-10.35-.91-20.72-1.72-31.09-2.44-.52,11.34-1.04,22.69-1.56,34.03,14.68,1.59,29.32,3.37,43.96,5.32-.4,8.31-.6,12.47-1,20.78-21.41-3.38-42.83-6.29-64.38-8.63ZM1214.16,351.43c.63-13.04,1.27-26.09,1.9-39.13,5.81.01,8.72.02,14.53.03l-1.91,39.81c-5.82-.3-8.72-.44-14.52-.71ZM1210.85,440.92c.63-13.06,1.27-26.12,1.9-39.18,5.81.61,8.72.94,14.58,1.61-.64,13.29-1.27,26.58-1.91,39.87-5.86-.96-8.78-1.42-14.57-2.3Z"/>
      <path class="cls-1" d="M1233.67,444.6c.37-7.78.55-11.67.91-19.45,5.09.75,7.65,1.13,12.79,1.93,1.41-31.64,2.83-63.28,4.24-94.92-5.06-.15-7.59-.22-12.64-.36.37-7.78.55-11.67.91-19.45,17.34.04,34.68.09,52.02.14,6.59.02,12.45,1.33,17.59,4.03,5.15,2.7,9.21,7.08,12.19,13.17,2.98,6.09,4.45,14.29,4.35,24.43-.09,9.25-2.02,16.94-5.82,22.9-3.81,5.97-9.16,9.84-15.98,11.69,4.49,1.55,8.02,3.99,10.58,7.31,2.57,3.32,4.61,7.61,6.15,12.85,1.53,5.25,2.98,11.61,4.34,19.11,2.25,12.32,4.53,24.63,6.85,36.94-9.63-2.28-14.38-3.37-23.77-5.47-1.53-9.91-3.05-19.82-4.54-29.74-1.09-7.45-2.27-13.42-3.53-17.94-1.26-4.52-2.97-7.85-5.13-10-2.16-2.15-5.17-3.47-9.04-3.98-6.27-.81-9.38-1.2-15.59-1.96-.45,11.6-.89,23.2-1.34,34.8,5.35.91,8.05,1.38,13.46,2.34-.28,8.31-.41,12.47-.69,20.78-16.05-3.34-32.16-6.38-48.31-9.16ZM1271.36,374.73c6.17.57,9.26.86,15.47,1.47,3.18.31,6.02-.25,8.5-1.72,2.48-1.47,4.45-3.74,5.89-6.81,1.45-3.07,2.22-6.85,2.32-11.32.17-7.27-1.03-12.77-3.58-16.43-2.55-3.66-5.96-5.54-10.23-5.69-6.73-.24-10.09-.36-16.81-.59-.53,13.69-1.05,27.39-1.58,41.08ZM1310.3,459.88c.16-8.67.25-13,.41-21.67,9.85,1.91,19.7,3.89,29.52,5.96,0,9.07,0,13.61,0,22.68-9.96-2.41-19.94-4.73-29.94-6.97Z"/>
      <path class="cls-1" d="M1345.83,468.25c-.02-18.21-.04-36.42-.06-54.63,5.83.87,8.75,1.3,14.58,2.16.02,18.59.03,37.19.05,55.78-5.83-1.32-8.74-1.99-14.57-3.31ZM1386,479.46c-7.01-1.61-13.12-4.99-18.32-9.99-5.2-5.01-9.23-11.88-12.12-20.49-3.47-10.34-3.9-21.18-4.34-31.99,3.65.14,5.48.2,9.13.33,0,7.86,1.06,14.37,3.14,19.6,2.09,5.23,4.93,9.33,8.51,12.3,3.58,2.97,7.58,4.91,12,5.78,3.68.73,6.91.51,9.68-.68,2.77-1.19,4.92-3.33,6.44-6.41,1.52-3.08,2.28-7.1,2.28-12.01,0-4.5-.63-8.3-1.88-11.4-1.25-3.09-3.49-6.08-6.7-8.92-3.22-2.84-7.83-6.03-13.66-9.57-6.66-4.04-12.45-8.35-17.32-12.74-4.86-4.39-8.62-9.72-11.28-15.99-2.66-6.27-3.99-14.18-4-23.83-.01-9.96,1.48-18.01,4.47-24.26,2.99-6.25,7.03-10.9,12.11-13.91,5.09-3.01,10.75-4.56,16.99-4.56,9.54,0,17.45,4.24,22.94,12.84,7.32,11.46,8.91,27.15,8.63,40.74-3.68-.26-5.53-.39-9.21-.65.05-9.17-1.8-16.3-5.54-21.26-3.73-4.96-8.43-7.48-14.08-7.67-5.06-.17-8.96,1.22-11.68,4.11-2.72,2.89-4.08,6.98-4.08,12.3,0,3.58.6,6.71,1.78,9.43,1.18,2.71,3.45,5.39,6.82,8.07,3.37,2.69,8.25,5.86,14.63,9.54,7.29,4.2,13.31,8.73,17.98,13.56,4.67,4.83,8.12,10.71,10.35,17.6,2.23,6.89,3.6,15.86,3.35,26.04-.24,9.63-.69,20.18-5.11,29.26-3.39,6.96-7.92,11.55-13.54,13.81-5.61,2.25-11.73,2.56-18.35,1.04ZM1403.48,363.63c0-17.06,0-34.12-.01-51.17l14.53.04c0,17.39,0,34.77,0,52.16-5.81-.41-8.71-.61-14.52-1.02Z"/>
    </g>
    <g>
      <path class="cls-1" d="M763.73,553.2v-9.47c1.5-.23,2.24-.35,3.74-.58v-45.43c-1.5.23-2.24.35-3.74.58v-9.47c5.55-.86,8.32-1.29,13.87-2.15v9.47c-1.53.24-2.3.36-3.83.59v44.66c3.48-.54,5.22-.81,8.71-1.35v-9.95c1.73-.27,2.6-.4,4.33-.67,0,8.07,0,12.11,0,20.18-9.23,1.43-13.85,2.14-23.08,3.57Z"/>
      <path class="cls-1" d="M788.03,494.54v-9.47c5.53-.86,8.3-1.28,13.83-2.14v9.47c-5.53.86-8.3,1.28-13.83,2.14ZM788.03,549.44v-9.47c5.53-.86,8.3-1.28,13.83-2.14v9.47c-5.53.86-8.3,1.28-13.83,2.14ZM791.8,548.85c0-21.45,0-42.91,0-64.36,2.52-.39,3.78-.59,6.3-.98v64.36c-2.52.39-3.78.59-6.3.98Z"/>
      <path class="cls-1" d="M803.44,492.15v-9.47c3.39-.52,5.08-.79,8.47-1.31v9.47c-3.39.52-5.08.79-8.47,1.31ZM803.44,547.05v-9.47c5.3-.82,7.96-1.23,13.26-2.05v9.47c-5.3.82-7.96,1.23-13.26,2.05ZM807.18,546.47v-64.36c2.46-.38,3.69-.57,6.15-.95,4.61,14.16,9.22,28.32,13.83,42.47v-44.62c2.2-.34,3.3-.51,5.49-.85,0,21.45,0,42.91,0,64.36-2.44.38-3.66.57-6.11.95-4.63-14.23-9.26-28.47-13.89-42.7v44.85c-2.19.34-3.28.51-5.47.85ZM823.24,489.09v-9.47c5.29-.82,7.93-1.23,13.22-2.05v9.47c-5.29.82-7.93,1.23-13.22,2.05Z"/>
      <path class="cls-1" d="M837.95,486.81v-9.47c3.97-.62,5.96-.92,9.93-1.54v9.47c-3.97.62-5.96.92-9.93,1.54ZM837.95,541.71v-9.47c3.92-.61,5.88-.91,9.8-1.52v9.47c-3.92.61-5.88.91-9.8,1.52ZM841.69,541.13c0-21.45,0-42.91,0-64.36,7.75-1.2,11.62-1.8,19.37-3v10.23c-5.23.81-7.84,1.21-13.06,2.02v16.45c3.73-.58,5.59-.87,9.32-1.44v9.85c-3.73.58-5.59.87-9.32,1.44v17.6c5.28-.82,7.92-1.23,13.19-2.04,0,4.09,0,6.14,0,10.23-7.8,1.21-11.7,1.81-19.5,3.02ZM856.87,494.02v-19.61c1.72-.27,2.59-.4,4.31-.67v19.61c-1.72.27-2.59.4-4.31.67ZM857.18,538.73v-19.6c1.73-.27,2.6-.4,4.33-.67,0,7.84,0,11.76,0,19.6-1.73.27-2.6.4-4.33.67Z"/>
      <path class="cls-1" d="M863.94,537.69v-9.47c1.5-.23,2.24-.35,3.74-.58,0-15.14,0-30.29,0-45.43-1.5.23-2.24.35-3.74.58v-9.47c5.86-.91,8.78-1.36,14.64-2.27,2.36-.37,4.47,0,6.32,1.13,1.85,1.12,3.42,2.94,4.71,5.46,1.29,2.53,2.28,5.73,2.95,9.61.68,3.88,1.02,8.43,1.02,13.66,0,7.08-.6,13.1-1.8,18.07-1.2,4.97-2.93,8.83-5.16,11.58-2.24,2.75-4.92,4.37-8.04,4.85-5.86.91-8.78,1.36-14.64,2.27ZM873.98,525.85l3.79-.59c2.1-.33,3.84-1.35,5.22-3.08,1.38-1.73,2.41-4.26,3.1-7.6.69-3.34,1.03-7.56,1.03-12.66s-.37-9.11-1.12-12.21c-.74-3.1-1.81-5.33-3.2-6.68-1.39-1.35-3.06-1.87-5.03-1.56-1.51.23-2.27.35-3.79.59v43.8Z"/>
      <path class="cls-1" d="M895.41,532.81v-9.47c4.97-.77,7.46-1.15,12.43-1.92,0,3.79,0,5.68,0,9.47-4.97.77-7.46,1.15-12.43,1.92ZM897.77,525.47c3.3-19.64,6.61-39.28,9.91-58.92,2.56-.4,3.83-.59,6.39-.99,3.44,18.6,6.87,37.19,10.31,55.79-2.62.41-3.93.61-6.54,1.01-.94-5.29-1.4-7.93-2.34-13.22-4,.62-6,.93-10,1.55-.84,5.56-1.26,8.34-2.1,13.9-2.25.35-3.37.52-5.62.87ZM906.78,500.5c2.84-.44,4.25-.66,7.09-1.1-1.45-8.38-2.18-12.58-3.63-20.96-1.38,8.82-2.07,13.23-3.46,22.06ZM913.35,530.04v-9.47c5.37-.83,8.06-1.25,13.43-2.08v9.47c-5.37.83-8.06,1.25-13.43,2.08Z"/>
      <path class="cls-1" d="M927.66,472.93v-9.47c3.39-.52,5.08-.79,8.47-1.31v9.47c-3.39.52-5.08.79-8.47,1.31ZM927.66,527.82v-9.47c5.3-.82,7.96-1.23,13.26-2.05,0,3.79,0,5.68,0,9.47-5.3.82-7.96,1.23-13.26,2.05ZM931.4,527.24c0-21.45,0-42.91,0-64.36l6.15-.95c4.61,14.16,9.22,28.32,13.82,42.48,0-14.87,0-29.74,0-44.62,2.19-.34,3.29-.5,5.48-.82,0,21.45,0,42.91,0,64.36-2.44.36-3.66.54-6.1.91-4.63-14.24-9.26-28.47-13.89-42.7,0,14.95,0,29.9,0,44.85-2.19.34-3.28.51-5.47.85ZM947.46,469.86v-9.47c5.29-.82,7.92-1.22,13.2-1.97v9.47c-5.28.74-7.92,1.15-13.2,1.97Z"/>
      <path class="cls-1" d="M977.81,521.43c-2.98.35-5.54-.68-7.67-3.12-2.13-2.43-3.77-6.04-4.9-10.83s-1.71-10.53-1.71-17.22c0-6.73.56-12.64,1.69-17.73,1.12-5.09,2.71-9.14,4.77-12.13,2.06-2.99,4.49-4.66,7.29-4.99,2.1-.25,3.95.3,5.55,1.65,1.59,1.35,2.85,3.57,3.78,6.66.93,3.09,1.44,7.12,1.53,12.08-1.11.12-1.67.18-2.79.3-.16-2.47-.57-4.51-1.24-6.13-.66-1.62-1.49-2.79-2.49-3.52-.99-.73-2.05-1.03-3.18-.9-2.1.25-3.77,1.47-5.01,3.67-1.23,2.19-2.11,5.05-2.64,8.56-.53,3.51-.79,7.39-.79,11.63,0,4.24.28,8.04.83,11.39.56,3.36,1.45,5.96,2.67,7.82,1.23,1.86,2.85,2.66,4.86,2.43,2.03-.24,3.66-1.65,4.9-4.22,1.23-2.57,1.93-6.12,2.1-10.63,2.1-.23,3.15-.34,5.24-.55-.18,5.25-.8,9.74-1.88,13.49-1.08,3.75-2.54,6.66-4.4,8.75-1.86,2.08-4.04,3.27-6.53,3.57ZM985.37,476.1c0-8.36,0-12.54,0-20.9,1.73-.19,2.59-.28,4.32-.46v20.9c-1.73.18-2.59.27-4.32.46Z"/>
      <path class="cls-1" d="M993.56,463.96v-9.47c3.99-.39,5.98-.58,9.97-.92v9.47c-3.99.34-5.98.53-9.97.92ZM993.56,518.86c0-3.79,0-5.68,0-9.47,3.93-.39,5.9-.57,9.84-.91,0,3.79,0,5.68,0,9.47-3.94.34-5.91.52-9.84.91ZM997.31,518.5c0-21.45,0-42.91,0-64.36,7.77-.73,11.66-1.04,19.45-1.58v10.23c-5.25.36-7.88.56-13.12,1.01,0,6.58,0,9.87,0,16.45,3.74-.32,5.62-.47,9.36-.75v9.85c-3.75.28-5.62.43-9.36.75v17.6c5.3-.45,7.95-.66,13.26-1.02v10.23c-7.84.54-11.76.86-19.58,1.59ZM1012.56,472.46v-19.61c1.73-.13,2.6-.19,4.33-.31,0,7.84,0,11.76,0,19.61-1.73.12-2.6.18-4.33.31ZM1012.87,517.19v-19.6c1.74-.13,2.61-.19,4.35-.31,0,7.84,0,11.76,0,19.6-1.74.12-2.61.18-4.35.31Z"/>
      <path class="cls-1" d="M1028.03,461.32c0-3.79,0-5.68,0-9.47,5.22-.29,7.83-.41,13.05-.61v9.47c-5.22.2-7.83.32-13.05.61ZM1039.49,515.68c-3.17-20.1-6.34-40.19-9.51-60.29,2.71-.14,4.07-.21,6.78-.32,2.18,15.28,4.36,30.56,6.54,45.84,2.2-15.43,4.4-30.87,6.61-46.3,2.24-.06,3.36-.09,5.6-.13-3.26,20.33-6.51,40.66-9.76,60.98-2.5.08-3.75.13-6.26.23ZM1045.62,460.56v-9.47c4.75-.15,7.12-.21,11.87-.3v9.47c-4.75.08-7.12.14-11.87.3Z"/>
      <path class="cls-1" d="M1073.11,515.9c-3.1,0-5.73-1.35-7.88-4.04-2.15-2.69-3.79-6.49-4.9-11.42-1.12-4.93-1.67-10.73-1.67-17.43s.56-12.57,1.67-17.53c1.12-4.96,2.75-8.81,4.9-11.55,2.15-2.74,4.78-4.12,7.88-4.11,3.1,0,5.72,1.39,7.86,4.14,2.14,2.75,3.78,6.61,4.89,11.57,1.12,4.96,1.67,10.81,1.67,17.54s-.56,12.5-1.67,17.42c-1.12,4.92-2.75,8.72-4.89,11.4-2.14,2.68-4.77,4.02-7.86,4.01ZM1073.11,505.57c1.89,0,3.43-1.02,4.59-3.06,1.17-2.04,2.02-4.79,2.54-8.22.53-3.44.79-7.21.79-11.32s-.26-7.95-.79-11.41c-.53-3.47-1.38-6.23-2.54-8.3-1.17-2.06-2.7-3.1-4.59-3.11-1.91,0-3.45,1.02-4.62,3.06-1.17,2.04-2.01,4.78-2.53,8.21-.52,3.43-.78,7.27-.78,11.51s.26,8.12.78,11.54c.52,3.42,1.37,6.13,2.53,8.12,1.17,1.99,2.71,2.98,4.62,2.98Z"/>
      <path class="cls-1" d="M1106.35,516.67c-3.1-.14-5.72-1.59-7.87-4.37-2.15-2.78-3.79-6.65-4.9-11.63-1.12-4.97-1.67-10.8-1.67-17.5s.56-12.55,1.67-17.46c1.12-4.91,2.75-8.7,4.9-11.35,2.15-2.65,4.77-3.92,7.87-3.78,3.1.14,5.72,1.63,7.86,4.47s3.77,6.77,4.89,11.78c1.12,5.01,1.67,10.88,1.67,17.61s-.56,12.48-1.67,17.35c-1.11,4.87-2.75,8.6-4.89,11.2-2.14,2.59-4.76,3.82-7.86,3.68ZM1106.35,506.34c1.89.08,3.42-.87,4.59-2.87,1.17-2,2.01-4.7,2.54-8.12.53-3.42.79-7.18.79-11.29s-.26-7.96-.79-11.45c-.53-3.49-1.38-6.29-2.54-8.4-1.17-2.11-2.7-3.22-4.59-3.3-1.91-.08-3.45.88-4.61,2.87-1.17,2-2.01,4.7-2.53,8.11-.52,3.41-.78,7.23-.78,11.48s.26,8.13.78,11.57c.52,3.45,1.37,6.19,2.53,8.22,1.17,2.04,2.7,3.09,4.61,3.18Z"/>
      <path class="cls-1" d="M1123.74,516.76v-9.47c1.5.1,2.26.15,3.76.26,0-15.14,0-30.29,0-45.43-1.5-.11-2.26-.16-3.76-.26v-9.47c6.2.41,9.3.64,15.5,1.18,1.96.17,3.72.91,5.26,2.21,1.55,1.31,2.77,3.3,3.67,5.97.9,2.67,1.35,6.17,1.35,10.51,0,3.95-.53,7.25-1.59,9.89-1.06,2.64-2.56,4.46-4.49,5.46,1.29.56,2.3,1.53,3.04,2.89.74,1.36,1.33,3.14,1.78,5.34s.87,4.86,1.26,7.99c.77,6.1,1.16,9.15,1.93,15.25-2.57-.26-3.86-.39-6.43-.63-.57-5.1-.86-7.65-1.43-12.75-.35-3.22-.72-5.81-1.11-7.75-.39-1.95-.9-3.36-1.53-4.25-.63-.88-1.5-1.37-2.61-1.47-1.8-.15-2.7-.23-4.51-.37v16.16c1.54.12,2.31.18,3.85.31v9.47c-5.57-.47-8.36-.68-13.94-1.04ZM1133.83,482.06c1.8.14,2.7.22,4.51.37.92.08,1.74-.24,2.44-.94.7-.71,1.25-1.75,1.65-3.13.4-1.38.59-3.06.59-5.04,0-3.22-.39-5.66-1.16-7.3-.78-1.65-1.79-2.53-3.05-2.63-1.99-.17-2.98-.25-4.97-.41v19.08ZM1145.54,518.5v-9.47c3.22.3,4.83.46,8.06.8v9.47c-3.22-.34-4.83-.49-8.06-.8Z"/>
      <path class="cls-1" d="M1163.51,465.5v-9.47c5.54.65,8.31.99,13.84,1.74v9.47c-5.53-.74-8.3-1.09-13.84-1.74ZM1163.51,520.4c0-3.79,0-5.68,0-9.47,5.54.65,8.31.99,13.84,1.74,0,3.79,0,5.68,0,9.47-5.53-.74-8.3-1.09-13.84-1.74ZM1167.28,520.84c0-21.45,0-42.91,0-64.36,2.52.31,3.79.47,6.31.79,0,21.45,0,42.91,0,64.36-2.52-.33-3.78-.49-6.31-.79Z"/>
      <path class="cls-1" d="M1178.93,467.45v-9.47c3.97.54,5.96.83,9.93,1.42,0,3.79,0,5.68,0,9.47-3.97-.59-5.95-.88-9.93-1.42ZM1178.93,522.35v-9.47c3.92.54,5.88.82,9.8,1.4v9.47c-3.92-.58-5.87-.86-9.8-1.4ZM1182.67,522.87c0-21.45,0-42.91,0-64.36,7.74,1.1,11.61,1.73,19.35,2.93v10.23c-5.22-.81-7.84-1.23-13.06-2.01v16.45c3.72.56,5.59.85,9.31,1.43,0,3.94,0,5.91,0,9.85-3.73-.58-5.59-.87-9.31-1.43v17.59c5.27.79,7.91,1.21,13.19,2.03v10.23c-7.8-1.21-11.69-1.84-19.48-2.95ZM1197.84,480.39v-19.61c1.72.27,2.59.4,4.31.67,0,7.84,0,11.76,0,19.61-1.72-.27-2.59-.4-4.31-.67ZM1198.15,525.2c0-7.84,0-11.76,0-19.6,1.73.27,2.6.4,4.33.67v19.6c-1.73-.27-2.6-.4-4.33-.67Z"/>
      <path class="cls-1" d="M1204.91,526.24v-9.47c1.5.23,2.24.35,3.74.58,0-15.14,0-30.29,0-45.43-1.5-.23-2.24-.35-3.74-.58v-9.47c5.85.91,8.78,1.36,14.64,2.27,2.36.37,4.47,1.39,6.32,3.08,1.85,1.69,3.42,4,4.72,6.92,1.29,2.92,2.28,6.43,2.95,10.52.68,4.09,1.02,8.75,1.02,13.98,0,7.08-.6,12.91-1.81,17.51-1.2,4.6-2.93,7.92-5.16,9.98-2.24,2.06-4.92,2.85-8.04,2.36-5.86-.91-8.78-1.36-14.64-2.27ZM1214.95,517.52c1.51.23,2.27.35,3.79.59,2.1.33,3.84-.16,5.22-1.46,1.38-1.3,2.41-3.52,3.1-6.65.69-3.13,1.03-7.24,1.03-12.34s-.37-9.22-1.12-12.56c-.74-3.34-1.81-5.89-3.2-7.67-1.39-1.78-3.06-2.82-5.03-3.12-1.51-.23-2.27-.35-3.79-.59,0,14.6,0,29.2,0,43.8Z"/>
      <path class="cls-1" d="M1237.51,476.39v-9.47c3.97.62,5.96.92,9.93,1.54v9.47c-3.97-.62-5.96-.92-9.93-1.54ZM1237.51,531.29c0-3.79,0-5.68,0-9.47,3.92.61,5.88.91,9.8,1.52v9.47c-3.92-.61-5.88-.91-9.8-1.52ZM1241.25,531.87c0-21.45,0-42.91,0-64.36,7.75,1.2,11.62,1.8,19.36,3v10.23l-13.06-2.02c0,6.58,0,9.87,0,16.45,3.73.58,5.59.87,9.32,1.44v9.85c-3.73-.58-5.59-.87-9.32-1.44v17.6c5.28.82,7.92,1.23,13.19,2.04,0,4.09,0,6.14,0,10.23-7.8-1.21-11.7-1.81-19.5-3.02ZM1256.44,489.46c0-7.84,0-11.76,0-19.61,1.72.27,2.59.4,4.31.67,0,7.84,0,11.76,0,19.61-1.72-.27-2.59-.4-4.31-.67ZM1256.74,534.27v-19.6c1.73.27,2.6.4,4.33.67v19.6c-1.73-.27-2.6-.4-4.33-.67Z"/>
      <path class="cls-1" d="M1263.5,535.31v-9.47c1.5.23,2.24.35,3.74.58,0-15.14,0-30.29,0-45.43-1.5-.23-2.25-.35-3.74-.58v-9.47c6.17.96,9.26,1.43,15.43,2.39,1.95.3,3.7,1.15,5.24,2.56,1.54,1.4,2.76,3.46,3.65,6.18.9,2.72,1.35,6.25,1.35,10.58,0,3.95-.53,7.22-1.59,9.8-1.06,2.58-2.55,4.31-4.47,5.19,1.28.64,2.29,1.67,3.03,3.07.74,1.41,1.33,3.22,1.77,5.44.45,2.22.86,4.91,1.26,8.06.77,6.14,1.16,9.22,1.93,15.36-2.56-.4-3.85-.6-6.41-.99-.57-5.14-.85-7.7-1.42-12.84-.35-3.24-.72-5.85-1.1-7.82-.39-1.97-.89-3.42-1.52-4.35-.63-.93-1.5-1.47-2.6-1.65-1.79-.28-2.69-.42-4.49-.69v16.16c1.53.24,2.3.36,3.83.59v9.47c-5.55-.86-8.32-1.29-13.87-2.15ZM1273.55,501.44c1.79.28,2.69.42,4.49.69.92.14,1.73-.12,2.43-.77.7-.66,1.25-1.67,1.64-3.02.39-1.36.59-3.02.59-5,0-3.22-.39-5.68-1.16-7.38-.77-1.7-1.79-2.64-3.04-2.84-1.98-.31-2.97-.46-4.95-.77,0,7.63,0,11.45,0,19.08ZM1285.21,538.67v-9.47c3.21.5,4.82.75,8.03,1.24v9.47c-3.21-.5-4.82-.75-8.03-1.24Z"/>
      <path class="cls-1" d="M1294.03,485.14v-9.47c3.97.62,5.96.92,9.93,1.54v9.47c-3.97-.62-5.96-.92-9.93-1.54ZM1294.03,540.04v-9.47c3.92.61,5.88.91,9.8,1.52v9.47c-3.92-.61-5.88-.91-9.8-1.52ZM1297.77,540.62v-64.36c7.75,1.2,11.62,1.8,19.37,3v10.23l-13.06-2.02v16.45c3.73.58,5.59.87,9.32,1.44v9.85c-3.73-.58-5.59-.87-9.32-1.44v17.6c5.28.82,7.92,1.23,13.19,2.04v10.23c-7.8-1.21-11.7-1.81-19.5-3.02ZM1312.96,498.21v-19.61c1.72.27,2.59.4,4.31.67v19.61c-1.72-.27-2.59-.4-4.31-.67ZM1313.26,543.02v-19.6c1.73.27,2.6.4,4.33.67v19.6c-1.73-.27-2.6-.4-4.33-.67Z"/>
      <path class="cls-1" d="M1320.02,489.17v-9.47c3.97.62,5.96.92,9.93,1.54v9.47c-3.97-.62-5.96-.92-9.93-1.54ZM1320.02,544.06v-9.47c3.92.61,5.88.91,9.8,1.52v9.47c-3.92-.61-5.88-.91-9.8-1.52ZM1323.77,544.64c0-21.45,0-42.91,0-64.36,7.75,1.2,11.62,1.8,19.36,3v10.23c-5.23-.81-7.84-1.21-13.06-2.02v16.45c3.73.58,5.59.87,9.32,1.44v9.85c-3.73-.58-5.59-.87-9.32-1.44v17.6c5.28.82,7.92,1.23,13.19,2.04v10.23c-7.8-1.21-11.7-1.81-19.5-3.02ZM1338.95,502.24v-19.61c1.72.27,2.59.4,4.31.67v19.61c-1.72-.27-2.59-.4-4.31-.67ZM1339.26,547.04v-19.6c1.73.27,2.6.4,4.33.67v19.6c-1.73-.27-2.6-.4-4.33-.67Z"/>
      <path class="cls-1" d="M1346.02,493.19v-9.47c3.39.52,5.08.79,8.47,1.31v9.47c-3.39-.52-5.08-.79-8.47-1.31ZM1346.02,548.09v-9.47c5.3.82,7.96,1.23,13.26,2.05v9.47c-5.3-.82-7.96-1.23-13.26-2.05ZM1349.76,548.67v-64.36c2.46.38,3.69.57,6.15.95,4.61,15.58,9.22,31.17,13.83,46.76v-44.61c2.2.34,3.29.51,5.49.85,0,21.45,0,42.91,0,64.36-2.44-.38-3.66-.57-6.1-.94-4.63-15.67-9.26-31.34-13.89-47v44.85c-2.19-.34-3.28-.51-5.47-.85ZM1365.82,496.26v-9.47c5.29.82,7.93,1.23,13.22,2.05v9.47c-5.29-.82-7.93-1.23-13.22-2.05Z"/>
    </g>
  </g>
  <g>
    <path class="cls-1" d="M1444.9,303.87l-45.51-14.55-.3-109.5c-38.71-39-84.16-69.84-135.13-88.55-14.66-5.38-29.94-8.98-44.61-14.35-.38,0-2.82,5.91-3.4,7.05-.78,1.52-4.51,3.96-1.44,4.66,58.14,16.86,109.81,41.13,156.03,81.94,3.1,2.74,13.95,11.68,15.57,14.25,1.23,1.95,1.15,1.97,1.37,4.29,1.15,12.35.05,29.24-.02,42.12-.09,16.88-.67,33.68-.99,50.53-.12,6.18.08,12.4.13,18.57l46.39,13.46v190.04l-46.48-9.55v73.53l-44.67-4.4c-10.61,10.4-19.8,22.58-30.49,33.07-135.7,133.17-366.84,124.98-494.88-15.29-2.22-2.44-12.76-16.06-14.12-16.71-2-.95-5.46-.57-7.73-.47-11.96.52-24.74,3.87-36.91,3.81v-72.58l-48.29,8.59.04-146.62c-2.37-12.97.42-26.21.01-39.17-.05-1.6-.32-2.82-.97-4.23l49.17-11.51.23-114.83c37.84-40.42,83.54-66.19,133.55-86.38,9.33-3.77,20.09-6.48,29.03-10.66.86-.4,1.6.56,1.26-1.5l-7.82-10.09c-37.23,13.62-74.64,28.53-107.66,51.4-17.69,12.25-38.74,29.28-54.03,44.61-2.44,2.44-6.9,6.19-7.33,9.51l-.07,107.36-48.18,11.59v216.78l49.2-9.55-.91,72.58,51.3-5.62c76.69,91.75,198.66,138.42,314.58,125.93,90.08-9.7,176.54-54.68,235.59-126.5l4.97-.51,46.96,5.73v-71.62l47.4,9.03-.87-215.68Z"/>
    <path class="cls-1" d="M1145,97.41c-3.94-23.03-6.92-46.68-12.33-69.4-3.8-15.96-7.05-25.17-25.36-23.1-3.9.44-8.21,2.71-12.11,3.54-20.81,4.46-37.5-17.56-57.54-3.96-19.23,13.05-21.88,55.93-24.57,77.69,40.96,16.99,88.69,31.32,131.92,15.22ZM1072.24,36.89c-5.11-2.06-19.7-12.32-15.41-18.98.57-.89.83-1.56,2.04-1.44.83.09,11.73,7.37,14.57,8.66,12.7,5.75,22.24,6.29,35.24.8-9.2,12.24-22.16,16.73-36.44,10.96Z"/>
    <path class="cls-1" d="M1024.84,133.83c-.25-1.65-1.82-1.66-2.94-2.16-7.47-3.35-15.65-5.15-23.28-9.05-2.03-1.04-1.89-1.41.22-1.19,59.42,5.97,125.24,50.31,184.53,24.31,9.93-4.35,22.23-12.77,24.93-24.49,5.87-25.57-18.55-36.81-39-35.14-19.74,1.61-7.72,9.05-15.06,19.56-3.64,5.21-8.82,7-14.57,8.61-21.54,6.02-44.69,4.41-66.53,1.43l52.85,24.81c-24.42-1.14-48.59-11.98-70.21-23.34-30.71-16.14-60.49-40.6-97-36.8-18.33,1.91-33.95,23.44-20.49,40.55,17.93,22.79,61.92,15.4,86.55,12.91Z"/>
    <polygon class="cls-1" points="763.99 283.4 763.99 302.02 779.01 302.02 808.5 302.02 823.08 302.02 823.08 283.4 808.5 283.4 808.5 254.42 853.37 254.42 853.37 283.4 838.98 283.4 838.98 302.02 853.37 302.02 882.96 302.02 898.07 302.02 898.07 283.4 882.96 283.4 882.96 208.23 898.07 208.23 898.07 189.61 882.96 189.61 853.37 189.61 838.98 189.61 838.98 208.23 853.37 208.23 853.37 233.96 808.5 233.96 808.5 208.23 823.08 208.23 823.08 189.61 808.5 189.61 779.01 189.61 763.99 189.61 763.99 208.23 779.01 208.23 779.01 283.4 763.99 283.4"/>
    <path class="cls-1" d="M973.61,302.02h58.01v-18.62h-11.39l-40.19-93.79h-30.03l-38.05,93.79h-11.11v18.62h53.09v-18.62h-16.03l5.75-16.45h39.24l6.67,16.45h-15.97v18.62ZM949.47,247.32l12.34-33.32,13.41,33.32h-25.74Z"/>
    <path class="cls-1" d="M1097.77,262.77c8.16,0,15.64-1.25,22.44-3.76,6.79-2.51,12.21-6.44,16.27-11.82,4.05-5.37,6.08-12.34,6.08-20.92s-2.03-15.39-6.08-20.79c-4.05-5.4-9.48-9.4-16.27-11.98-6.79-2.59-14.27-3.88-22.44-3.88h-63.2v18.62h15.02v75.16h-15.02v18.62h63.38v-18.62h-18.95v-20.63h18.77ZM1078.99,209.16h16.09c4.95,0,9.06,1.43,12.34,4.3,3.27,2.87,4.92,7.17,4.92,12.9s-1.58,9.88-4.74,12.78c-3.16,2.9-7.33,4.34-12.51,4.34h-16.09v-34.32Z"/>
    <path class="cls-1" d="M1236.59,193.5c-6.79-2.59-14.27-3.88-22.44-3.88h-63.2v18.62h15.02v75.16h-15.02v18.62h63.38v-18.62h-18.95v-20.63h18.77c8.16,0,15.64-1.25,22.44-3.76,6.79-2.51,12.21-6.44,16.27-11.82,4.05-5.37,6.08-12.34,6.08-20.92s-2.03-15.39-6.08-20.79c-4.05-5.4-9.48-9.4-16.27-11.98ZM1223.98,239.14c-3.16,2.9-7.33,4.34-12.51,4.34h-16.09v-34.32h16.09c4.95,0,9.06,1.43,12.34,4.3,3.27,2.87,4.92,7.17,4.92,12.9s-1.58,9.88-4.74,12.78Z"/>
    <polygon class="cls-1" points="1319.63 189.61 1265.37 189.61 1265.37 208.23 1275.91 208.23 1307.56 260.01 1307.56 283.4 1292.73 283.4 1292.73 302.02 1307.56 302.02 1337.87 302.02 1352.79 302.02 1352.79 283.4 1337.87 283.4 1337.87 260.01 1369.44 208.23 1380.15 208.23 1380.15 189.61 1332.59 189.61 1332.59 208.23 1344.01 208.23 1326.07 239.72 1308.38 208.23 1319.63 208.23 1319.63 189.61"/>
    <path class="cls-1" d="M838.82,579.16l131.55-21.83v-15.31l-148.01,21.83,10.33,12.44c1.51,1.82,3.76,2.88,6.13,2.88Z"/>
    <path class="cls-1" d="M1178.58,557.33l131.55,21.83c2.37,0,4.61-1.05,6.13-2.88l10.33-12.44-148.01-21.83v15.31Z"/>
  </g>
</svg>