<?xml version="1.0" encoding="UTF-8"?>
<svg id="Layer_1" data-name="Layer 1" xmlns="http://www.w3.org/2000/svg" viewBox="0 0 1069.16 449.98">
  <defs>
    <style>
      .cls-1 {
        fill: #fff;
      }
    </style>
  </defs>
  <polygon class="cls-1" points="181.94 251.69 262.16 361.86 184.72 361.86 117.15 261.11 117.15 361.86 51.27 361.86 51.27 51.27 117.15 51.27 117.15 247.47 181.02 158.51 184.31 153.94 257.47 153.94 257.31 154.16 181.94 251.69"/>
  <path class="cls-1" d="M428.98,153.94v17.18c-5.59-5.33-12.08-9.76-19.45-13.31-1.15-.54-2.33-1.08-3.51-1.56-.45-.19-.89-.39-1.34-.58-1.6-.64-3.19-1.21-4.83-1.72-1.08-.39-2.2-.71-3.32-.99-.22-.1-.45-.16-.71-.22-1.24-.36-2.52-.68-3.79-.93-1.66-.39-3.33-.71-5.01-.96h-.07c-.29-.07-.57-.1-.86-.13-1.18-.19-2.36-.36-3.58-.45-.45-.09-.89-.13-1.37-.15-1.31-.13-2.61-.22-3.96-.29-.15-.03-.35-.03-.54-.03-1.63-.1-3.29-.13-4.98-.13-1.18,0-2.36.03-3.54.06-.89.04-1.76.07-2.62.14-1.53.06-3.03.15-4.53.32-.71.06-1.4.15-2.11.22-.67.06-1.37.15-2.04.25-.8.13-1.57.22-2.33.35-.1.04-.19.04-.29.07-1.05.15-2.11.35-3.16.57-1.08.19-2.17.45-3.25.71-2.27.51-4.47,1.11-6.65,1.82h-.03c-.96.29-1.92.61-2.84.96-.5.17-1.02.36-1.53.54-.5.19-1.01.39-1.5.58-.71.28-1.4.57-2.11.86-.67.25-1.35.54-1.98.86-.67.28-1.31.57-1.94.89-.99.48-1.94.96-2.9,1.44-1.95,1.02-3.87,2.14-5.75,3.29-14.95,9.26-26.79,22.09-35.48,38.47-8.72,16.41-13.05,35.03-13.05,55.85,0,.96,0,1.89.03,2.81v.04c.03,1.18.07,2.33.13,3.47,0,.93.07,1.86.13,2.79.14,2.04.32,4.08.51,6.07t0,.06c.16,1.25.32,2.5.51,3.71.1.93.25,1.82.39,2.72.15,1.05.35,2.07.57,3.1.13.74.29,1.46.45,2.2.29,1.44.61,2.87.99,4.29.39,1.5.77,3,1.25,4.47.1.38.19.76.35,1.14.45,1.51.93,2.97,1.47,4.41.58,1.63,1.18,3.25,1.86,4.82.54,1.28,1.08,2.55,1.69,3.8.28.67.6,1.31.92,1.94.58,1.18,1.18,2.36,1.82,3.54,8.69,16.13,20.6,28.97,35.71,38.51,15.1,9.55,32.09,14.34,50.9,14.34,14.27,0,27.02-2.71,38.29-8.14,7.22-3.45,13.58-7.8,19.03-13v16.87h64.6v-207.92h-64.6ZM428.37,277.39c-2.11,5.84-5.26,11.05-9.42,15.59-3.65,3.96-7.83,7.02-12.49,9.29-6.16,2.94-13.19,4.4-21.1,4.4-8.84,0-16.77-2.07-23.76-6.22-6.97-4.12-12.55-9.9-16.67-17.31-4.15-7.4-6.19-15.84-6.19-25.23s2.04-17.85,6.19-25.26c4.12-7.41,9.71-13.19,16.67-17.31,6.99-4.15,14.91-6.22,23.76-6.22s17.24,2.07,24.39,6.22c7.12,4.12,12.52,9.83,16.26,17.09,3.71,7.28,5.55,15.61,5.55,25.03,0,7.34-1.05,13.98-3.19,19.92Z"/>
  <path class="cls-1" d="M683.52,153.94v17.21c-5.58-5.37-12.11-9.8-19.48-13.35-1.28-.64-2.58-1.21-3.93-1.75-.19-.1-.42-.16-.61-.26-1.31-.54-2.68-1.05-4.02-1.5-.19-.06-.36-.13-.55-.19-1.36-.45-2.74-.86-4.11-1.24-1.37-.39-2.78-.74-4.19-1.03-.32-.1-.64-.15-.96-.22-1.08-.22-2.2-.45-3.35-.61-.22-.06-.45-.1-.67-.13h-.04c-.57-.1-1.14-.19-1.72-.25-1.02-.16-2.04-.29-3.07-.39-.32-.06-.64-.1-.96-.1-1.37-.15-2.78-.25-4.18-.32-.16-.03-.35-.03-.51-.03-1.63-.1-3.29-.13-4.98-.13-19.12,0-36.14,4.66-51.12,13.92-1.57.96-3.1,1.97-4.6,3.03-.07.03-.14.1-.19.16-1.12.76-2.24,1.56-3.29,2.39-.13.1-.25.19-.35.25-.64.51-1.25,1-1.86,1.51-.13.09-.22.18-.35.28-.99.8-1.94,1.64-2.9,2.5-1.37,1.21-2.72,2.49-4.03,3.79-.03.04-.07.04-.07.07-2.39,2.4-4.63,4.92-6.76,7.57-.61.74-1.18,1.47-1.76,2.24-1.15,1.5-2.26,3.07-3.35,4.69-.61.86-1.19,1.76-1.73,2.65-.82,1.28-1.6,2.55-2.36,3.9-.33.57-.66,1.15-.98,1.72-.32.57-.63,1.15-.94,1.72-8.68,16.41-13.02,35.03-13.02,55.85s4.34,39.28,13.02,55.37c8.69,16.13,20.6,28.97,35.73,38.51,15.1,9.55,32.06,14.34,50.9,14.34,14.24,0,27.02-2.71,38.29-8.14,7.25-3.45,13.58-7.8,19.03-13v16.87h64.6v-207.92h-64.6ZM682.88,277.39c-2.11,5.84-5.26,11.05-9.42,15.59-3.61,3.96-7.8,7.02-12.46,9.29-6.15,2.94-13.18,4.4-21.1,4.4-8.84,0-16.76-2.07-23.76-6.22-7-4.12-12.55-9.9-16.67-17.31-4.15-7.4-6.22-15.84-6.22-25.23s2.07-17.85,6.22-25.26c4.12-7.41,9.68-13.19,16.67-17.31,7-4.15,14.91-6.22,23.76-6.22s17.24,2.07,24.36,6.22c7.12,4.12,12.55,9.83,16.26,17.09,3.71,7.28,5.55,15.61,5.55,25.03,0,7.34-1.05,13.98-3.19,19.92Z"/>
  <path class="cls-1" d="M857.52,202.45c.9-.42,1.79-.9,2.65-1.37v160.78h-65.88v-161.1c1.66.96,3.36,1.82,5.08,2.58.57.29,1.15.54,1.72.76,1.4.61,2.84,1.15,4.28,1.64.45.15.93.32,1.4.45.39.15.77.25,1.15.35.68.22,1.35.39,2.04.58,1.19.32,2.4.6,3.65.82.38.1.76.16,1.14.23,2.55.47,5.18.79,7.83.96.39.03.76.06,1.18.06,1.15.07,2.3.1,3.48.1,1.25,0,2.46-.03,3.67-.1,1.22-.06,2.4-.13,3.58-.25.83-.07,1.66-.16,2.49-.29,2.62-.35,5.15-.83,7.63-1.43,1.25-.32,2.43-.64,3.64-1.03h.04c.6-.19,1.21-.42,1.82-.64.54-.16,1.05-.35,1.56-.54.77-.29,1.57-.61,2.33-.96.48-.16.96-.39,1.41-.61.7-.29,1.36-.61,2.04-.96.03,0,.06-.03.06-.03Z"/>
  <path class="cls-1" d="M852.7,115.33c6.42,6.83,9.61,15.39,9.61,25.64s-3.19,18.55-9.61,25.67c-2.4,2.65-5.11,4.83-8.08,6.52-.51.28-1.03.54-1.53.79-.51.25-1,.48-1.5.67-.04,0-.04.04-.07.04-.74.32-1.5.6-2.3.86-.06.03-.15.06-.22.06-.79.29-1.63.51-2.46.71-.54.13-1.08.25-1.63.35l-.58.1c-.45.08-.88.15-1.33.22h-.02c-.45.06-.9.12-1.36.16-.64.06-1.28.13-1.94.15-.8.04-1.6.07-2.43.07-.39,0-.76,0-1.15-.03-.42,0-.79-.04-1.15-.04h-.1c-.06,0-.13,0-.19-.03-.7-.03-1.36-.1-2.04-.19-.64-.06-1.31-.15-1.92-.28-.79-.14-1.6-.29-2.36-.48-.07-.03-.15-.07-.22-.07-.76-.18-1.53-.41-2.3-.67-.6-.19-1.18-.42-1.78-.67-.68-.26-1.35-.54-1.98-.86-.07-.04-.1-.07-.16-.07-.6-.32-1.18-.64-1.75-.96l-1.25-.74c-2.46-1.53-4.72-3.42-6.86-5.62-2.59-2.68-4.66-5.55-6.26-8.62-.25-.45-.48-.89-.67-1.34-.39-.83-.74-1.66-1.09-2.53-.09-.32-.22-.64-.35-.96-.15-.51-.32-1.05-.47-1.6-.96-3.35-1.44-6.9-1.44-10.63,0-10.25,3.42-18.81,10.29-25.64,6.83-6.86,15.23-10.29,25.23-10.29,5.21,0,9.9.83,14.11,2.5h.04c4.28,1.72,8.08,4.31,11.3,7.79Z"/>
  <path class="cls-1" d="M975.03,298.76c7.28,7.57,10.91,16.89,10.91,28s-3.64,20.53-10.91,28.23c-7.29,7.73-16.6,11.56-28.01,11.56s-20.76-3.83-28.03-11.56c-7.28-7.69-10.89-17.08-10.89-28.23s3.61-20.44,10.89-28c.79-.83,1.63-1.6,2.46-2.33.35-.32.74-.61,1.12-.93.47-.42.96-.79,1.46-1.11.04-.03.07-.07.1-.07.77-.57,1.57-1.08,2.37-1.57.67-.41,1.34-.79,2-1.11.39-.22.74-.42,1.12-.54.83-.42,1.63-.76,2.49-1.08.58-.26,1.18-.45,1.82-.64.36-.14.71-.22,1.05-.32,0,0,.04-.04.07-.04.76-.22,1.53-.42,2.33-.6.15-.04.29-.07.42-.07,1.85-.42,3.76-.67,5.75-.79.15-.04.32-.04.47-.04,1-.06,1.98-.1,3-.1,1.92,0,3.8.1,5.59.32.57.07,1.18.16,1.76.26.6.1,1.18.19,1.75.32.54.1,1.12.22,1.66.38.6.16,1.21.32,1.78.51.51.16,1.03.32,1.54.51,1.08.35,2.17.79,3.19,1.31.45.19.93.42,1.37.68.15.06.35.15.54.28.47.26.93.51,1.37.8.54.32,1.08.67,1.6,1.02.51.36,1.02.74,1.53,1.12,1.5,1.11,2.94,2.43,4.32,3.83Z"/>
  <path class="cls-1" d="M1043.89,295.34c-5.65-5.87-11.99-10.89-18.9-14.94-3.6-6.16-7.96-11.93-13.03-17.22-17.03-17.68-39.49-27.04-64.94-27.04-1.22,0-2.44.03-3.65.07v-43.19c1.42-6.39,2.14-13.06,2.14-19.89,0-23.36-8.13-44.36-23.46-60.67-5.81-6.22-12.41-11.43-19.72-15.54-3.37-5.95-7.46-11.53-12.25-16.65-16.25-17.33-37.98-26.48-62.84-26.48s-44.94,8.73-61.51,25.26c-7.02,7.03-12.63,14.93-16.78,23.62h-87.38c-11.25-2.84-23.15-4.28-35.39-4.28-27.95,0-53.66,6.91-76.45,20.57l-16.18-16.3h-126.52c-11.26-2.84-23.15-4.28-35.39-4.28s-24.98,1.44-36.62,4.28h-134.68v-59.14L157.13,0H0v401.76l43.22,43.52h324.38c11.57,2.84,23.67,4.28,35.99,4.28s24.42-1.43,35.76-4.28h137.43v-19.97c1.01.67,2.01,1.32,3.04,1.96,23.35,14.79,49.7,22.28,78.3,22.28,12.41,0,24.42-1.43,35.76-4.28h249.48v-2.21c10.91,4.56,22.87,6.9,35.59,6.9,25.66,0,48.24-9.55,65.29-27.62,16.3-17.27,24.91-39.22,24.91-63.45s-8.74-46.4-25.26-63.57ZM1030.18,409.09c-13.31,14.11-31.04,21.55-51.22,21.55s-37.94-7.44-51.26-21.55c-1.28-1.37-2.53-2.78-3.68-4.22v21.08h-232.63c-10.44,2.84-21.55,4.28-33.28,4.28-24.84,0-47.73-6.47-67.95-19.28-12.58-7.92-23.53-17.69-32.73-29.13v44.13h-120.58c-10.44,2.84-21.59,4.28-33.28,4.28s-22.83-1.43-33.56-4.28c-6.04-1.56-11.91-3.61-17.63-6.1l4.44,6.1h-157.2l-18.62-27.75v27.75H51.27l-31.93-32.15V19.34h129.75l31.93,32.15v70.51h156.44c10.89-2.87,22.28-4.28,34.2-4.28s22.52,1.43,32.89,4.28h120.96l21.84,22c3.48-2.72,7.12-5.24,10.92-7.61,20.06-12.39,42.91-18.68,67.92-18.68,11.53,0,22.52,1.43,32.89,4.28h103.25c3.03-11.05,8.78-20.98,17.08-29.28,12.84-12.81,29.38-19.61,47.84-19.61,19.41,0,36.24,7.06,48.73,20.38,5.01,5.36,9.04,11.33,12.01,17.81,7.47,3.39,14.18,8.18,19.92,14.34,11.97,12.74,18.27,29.15,18.27,47.48,0,6.07-.71,11.98-2.15,17.63v68.28c7.19-2.37,14.92-3.55,22.99-3.55,20.06,0,37.72,7.32,51,21.11,5.24,5.46,9.48,11.52,12.68,18.07,7.12,3.48,13.57,8.18,19.26,14.09,13,13.51,19.87,30.85,19.87,50.16s-6.8,36.57-19.64,50.17Z"/>
</svg>