<?xml version="1.0" encoding="UTF-8"?>
<svg id="Layer_1" data-name="Layer 1" xmlns="http://www.w3.org/2000/svg" viewBox="0 0 1094.54 456.5">
  <defs>
    <style>
      .cls-1 {
        fill: #fff;
      }
    </style>
  </defs>
  <g>
    <path class="cls-1" d="M21.23,9.78v54.6c0,2.23.26,3.89.77,5.01.52,1.11,1.51,1.87,2.98,2.26,1.47.4,3.64.6,6.5.6h15.26c4.21,0,7.43-1.39,9.66-4.17,2.22-2.78,3.65-6.44,4.29-10.97,0-.24.22-.34.66-.3.44.04.66.18.66.42-.24,2.07-.48,4.55-.72,7.45-.24,2.9-.36,5.58-.36,8.05,0,1.19-.6,1.79-1.79,1.79H4.3c-.16,0-.24-.24-.24-.71s.08-.72.24-.72c3.02,0,5.28-.2,6.79-.6,1.51-.4,2.52-1.19,3.04-2.38.52-1.19.77-2.94.77-5.24V9.66c0-2.3-.26-4.03-.77-5.18-.52-1.15-1.53-1.95-3.04-2.38-1.51-.44-3.78-.66-6.79-.66-.16,0-.24-.24-.24-.71s.08-.72.24-.72c1.91,0,4.03.06,6.38.18,2.34.12,4.79.18,7.33.18,2.7,0,5.22-.06,7.57-.18,2.34-.12,4.43-.18,6.26-.18.16,0,.24.24.24.72s-.08.71-.24.71c-3.02,0-5.29.22-6.8.66-1.51.44-2.52,1.25-3.04,2.44-.52,1.19-.77,2.94-.77,5.25Z"/>
    <path class="cls-1" d="M113.14,68.47c-.16-.43-.46-.56-.85-.39-2.84,1.18-5.03,1.76-6.56,1.76-1.67,0-2.84-.65-3.5-1.96-.69-1.31-1.01-3.4-1.01-6.24v-22.54c0-3.66-.75-6.53-2.29-8.66-1.5-2.09-3.89-3.17-7.15-3.17-1.96,0-4.15.36-6.53,1.08-2.38.72-4.67,1.67-6.86,2.87-2.19,1.18-3.99,2.48-5.42,3.89-1.44,1.37-2.16,2.74-2.16,4.08,0,.82.3,1.57.88,2.29.62.72,1.5,1.08,2.71,1.08,1.57,0,2.58-.56,2.97-1.63.39-1.08.65-1.99.82-2.78.33-1.21.82-2.48,1.5-3.82.69-1.37,1.67-2.48,2.97-3.4,1.31-.91,2.97-1.37,4.97-1.37,2.29,0,4.21.95,5.78,2.84,1.54,1.93,2.32,5.32,2.32,10.26v8.33l-13.72,5.16c-3,1.11-5.39,2.25-7.09,3.46-1.7,1.18-2.91,2.42-3.56,3.69-.69,1.27-1.04,2.58-1.04,3.92,0,2.16.78,4.05,2.35,5.65,1.53,1.63,3.79,2.45,6.73,2.45,1.6,0,3.14-.26,4.64-.82,1.5-.56,3.27-1.47,5.26-2.74l6.5-4.08c.13,2.22.49,3.95,1.11,5.26.82,1.67,1.67,2.52,2.65,2.52.29,0,.62-.1.95-.23l12.28-5.85c.39-.16.52-.46.36-.91ZM90.02,69.39c-1.37.78-2.51,1.34-3.46,1.6-.95.29-1.86.43-2.74.43-2.22,0-3.92-.72-5.06-2.16-1.18-1.44-1.73-3-1.73-4.77,0-.88.16-1.73.46-2.55.33-.85.92-1.63,1.8-2.38.88-.75,2.15-1.47,3.82-2.09l12.64-4.8v13.36l-5.72,3.36Z"/>
  </g>
  <g>
    <path class="cls-1" d="M227.79,292.15c0,1.14-.2,1.7-.56,1.7-4.87,0-10.39-.1-16.59-.29-6.17-.16-12.61-.26-19.37-.26s-13.39.1-19.37.26c-6.01.2-11.43.29-16.3.29-.56,0-.85-.56-.85-1.7s.29-1.67.85-1.67c8.79,0,14.47-1.24,16.99-3.66,2.55-2.45,3.53-7.68,2.97-15.74l-5.95-114.81-57.81,135.62c-.2.75-.92,1.11-2.12,1.11s-2.03-.36-2.39-1.11L36.35,156.76l-2.35,101.42c-.2,9.93,1.83,17.8,6.04,23.58,4.21,5.81,10.16,8.72,17.83,8.72.56,0,.82.56.82,1.67s-.26,1.7-.82,1.7c-4.15,0-8.36-.1-12.64-.29-4.31-.16-9.18-.26-14.6-.26-6.01,0-11.43.1-16.3.26-4.87.2-9.37.29-13.49.29-.56,0-.85-.56-.85-1.7s.29-1.67.85-1.67c7.68,0,13.75-2.91,18.26-8.72,4.51-5.78,6.83-13.65,7.02-23.58l2.45-116.22-.2-.36c-7.12-13.29-15.65-19.92-25.58-19.92-.56,0-.85-.59-.85-1.7s.3-1.7.85-1.7c3.95,0,8.07.1,12.38.29,4.28.2,7.94.29,10.94.29,4.87,0,9.11-.1,12.77-.29,3.66-.2,6.5-.29,8.56-.29,2.65,0,4.64.95,6.04,2.81,1.4,1.89,3.69,5.81,6.89,11.82l61.24,114.81,53.34-122.42c1.14-2.61,2.32-4.44,3.53-5.46,1.21-1.05,2.84-1.57,4.9-1.57,1.89,0,3.85.1,5.91.29,2.06.2,4.51.29,7.32.29,5.98,0,11.07-.1,15.29-.29,4.21-.2,8.39-.29,12.51-.29.56,0,.85.59.85,1.7s-.29,1.7-.85,1.7c-8.62,0-14.93,1.76-18.98,5.32-4.02,3.56-5.85,9.08-5.45,16.56l6.73,127.52c.39,5.45,1.08,9.57,2.12,12.38,1.01,2.81,2.94,4.67,5.75,5.62,2.81.91,7.02,1.4,12.64,1.4.36,0,.56.56.56,1.67Z"/>
    <path class="cls-1" d="M435.37,290.48c-3,0-5.95-1.08-8.85-3.23-2.91-2.16-6.01-5.81-9.28-10.98-3.27-5.13-7.15-12.12-11.66-20.9l-70.23-138.2c-.16-.75-1.01-1.08-2.52-.98-1.5.1-2.35.42-2.52.98l-60.95,133.98c-4.7,10.48-8.85,18.59-12.51,24.3-3.66,5.72-7.32,9.64-10.94,11.79-3.66,2.16-8,3.23-13.07,3.23-.75,0-1.14.56-1.14,1.67s.39,1.7,1.14,1.7c6.37,0,11.73-.2,16.14-.56,4.41-.39,10.26-.59,17.57-.59s13,.2,17.67.59c4.7.36,9.83.56,15.45.56.95,0,1.4-.56,1.4-1.7s-.46-1.67-1.4-1.67c-10.48,0-18.16-3.3-23.03-9.83-4.87-6.57-4.77-15.45.3-26.69l11.07-24.43h68.89l19.17,37.92c4.7,9.15,6.44,15.29,5.19,18.39-1.21,3.07-5.65,4.64-13.33,4.64-.75,0-1.14.56-1.14,1.67s.39,1.7,1.14,1.7c5.81,0,11.04-.2,15.71-.56,4.7-.39,10.22-.59,16.59-.59,5.62,0,11.46.2,17.54.59,6.08.36,11.96.56,17.57.56.91,0,1.4-.56,1.4-1.7s-.49-1.67-1.4-1.67ZM291.58,221.66l28.97-63.92,32.37,63.92h-61.34Z"/>
    <path class="cls-1" d="M498.83,271.09c0,5.43.47,9.55,1.4,12.36.94,2.81,2.81,4.68,5.62,5.62,2.81.94,7.11,1.4,12.92,1.4.56,0,.84.56.84,1.68s-.28,1.69-.84,1.69c-4.87,0-10.3-.09-16.29-.28-5.99-.18-12.55-.28-19.66-.28-6.74,0-13.2.1-19.38.28-6.18.19-11.7.28-16.57.28-.38,0-.56-.56-.56-1.69s.18-1.68.56-1.68c5.8,0,10.15-.47,13.06-1.4,2.9-.93,4.87-2.81,5.9-5.62,1.03-2.81,1.54-6.92,1.54-12.36v-130.04c0-5.43-.52-9.5-1.54-12.22-1.03-2.71-3-4.59-5.9-5.62-2.91-1.03-7.26-1.55-13.06-1.55-.38,0-.56-.56-.56-1.68s.18-1.69.56-1.69c4.87,0,10.39.14,16.57.42,6.18.28,12.64.42,19.38.42,7.11,0,13.71-.14,19.8-.42,6.08-.28,11.47-.42,16.15-.42.56,0,.84.56.84,1.69s-.28,1.68-.84,1.68c-5.62,0-9.88.56-12.78,1.69-2.91,1.12-4.82,3.09-5.76,5.9-.94,2.81-1.4,6.93-1.4,12.36v129.48Z"/>
    <path class="cls-1" d="M580,146.67c0,7.12,1.83,13.34,5.48,18.68,3.65,5.34,8.42,10.16,14.32,14.46,5.9,4.31,12.12,8.62,18.68,12.92,7.11,4.49,13.9,9.23,20.36,14.18,6.46,4.96,11.8,10.67,16.01,17.13,4.21,6.46,6.32,14.18,6.32,23.17,0,9.93-2.67,18.63-8.01,26.12-5.34,7.49-12.55,13.34-21.63,17.55-9.09,4.21-19.43,6.32-31.04,6.32-5.62,0-11.47-.56-17.55-1.68-6.09-1.12-11.61-2.53-16.57-4.21-4.96-1.69-8.57-3.46-10.81-5.34-.75-.56-1.4-1.17-1.97-1.83-.56-.65-.84-1.83-.84-3.51l-.84-44.66c-.19-.94.23-1.45,1.26-1.55,1.03-.09,1.64.24,1.83.98,2.81,5.8,5.9,11.94,9.27,18.4,3.37,6.46,7.16,12.41,11.38,17.83,4.21,5.43,8.94,9.88,14.18,13.34,5.24,3.47,11.24,5.2,17.98,5.2,4.31,0,8.43-.75,12.36-2.25,3.93-1.5,7.16-4.21,9.69-8.15,2.53-3.93,3.79-9.36,3.79-16.29,0-8.8-1.97-16.33-5.9-22.61-3.93-6.27-8.99-11.8-15.17-16.57-6.18-4.77-12.64-9.31-19.38-13.62-6.56-4.3-12.83-8.75-18.82-13.34-5.99-4.59-10.86-9.83-14.61-15.73-3.75-5.9-5.62-12.96-5.62-21.21,0-10.48,2.95-19.05,8.85-25.7,5.9-6.64,13.39-11.56,22.47-14.74,9.08-3.18,18.3-4.77,27.66-4.77,6.74,0,13.48.61,20.22,1.83,6.74,1.22,12.08,2.67,16.01,4.35,1.87.75,3.04,1.59,3.51,2.53.46.94.7,1.97.7,3.09v41.29c0,.56-.42.98-1.26,1.26-.84.28-1.45.14-1.83-.42-1.12-2.25-2.72-5.94-4.77-11.09-2.06-5.15-4.77-10.53-8.14-16.15-3.37-5.62-7.68-10.44-12.92-14.46-5.24-4.02-11.61-6.04-19.1-6.04-4.68,0-8.94.94-12.78,2.81-3.84,1.87-6.93,4.63-9.27,8.29-2.34,3.65-3.51,8.38-3.51,14.18Z"/>
    <path class="cls-1" d="M778.57,297.21c-13.48,0-25.7-2.39-36.65-7.16-10.95-4.77-20.32-11.37-28.09-19.8-7.77-8.43-13.76-18.12-17.98-29.07-4.21-10.95-6.32-22.61-6.32-34.97,0-15.17,2.95-28.46,8.85-39.88,5.9-11.42,13.71-20.93,23.45-28.51,9.73-7.58,20.41-13.24,32.02-16.99,11.61-3.74,23.12-5.62,34.55-5.62,13.86,0,26.26,2.48,37.22,7.44,10.95,4.96,20.27,11.66,27.95,20.08,7.67,8.43,13.52,17.98,17.55,28.65,4.02,10.67,6.04,21.63,6.04,32.86,0,13.11-2.62,25.28-7.86,36.51-5.24,11.24-12.41,21.06-21.49,29.49-9.09,8.43-19.57,15.03-31.46,19.8-11.89,4.78-24.48,7.16-37.78,7.16ZM787.84,290.19c10.48,0,19.84-2.99,28.09-8.99,8.24-5.99,14.75-14.79,19.52-26.4,4.77-11.61,7.16-25.74,7.16-42.41s-2.62-32.58-7.86-46.06c-5.24-13.48-12.74-24.11-22.47-31.88-9.74-7.77-21.44-11.66-35.11-11.66-17.04,0-30.15,6.46-39.32,19.38-9.18,12.92-13.76,30.8-13.76,53.65,0,13.67,1.59,26.26,4.77,37.78,3.18,11.52,7.63,21.53,13.34,30.05,5.71,8.52,12.45,15.07,20.22,19.66,7.77,4.59,16.24,6.88,25.42,6.88Z"/>
    <path class="cls-1" d="M1094.54,119.98c0,1.11-.19,1.7-.56,1.7-7.48,0-13.39,2.94-17.7,8.85-4.31,5.88-6.43,13.78-6.43,23.71v143.82c0,.56-.43.88-1.27.98-.85.1-1.47.03-1.83-.13l-131.73-149.92v109.19c0,9.93,2.06,17.8,6.17,23.58,4.11,5.81,9.83,8.72,17.15,8.72.36,0,.56.56.56,1.67s-.2,1.7-.56,1.7c-4.12,0-8.39-.1-12.77-.29-4.41-.16-9.24-.26-14.47-.26-5.62,0-11.11.1-16.43.26-5.36.2-10.26.29-14.76.29-.56,0-.85-.56-.85-1.7s.29-1.67.85-1.67c8.23,0,14.76-2.91,19.53-8.72,4.77-5.78,7.15-13.65,7.15-23.58v-118.73c-6.04-6.66-11.17-11.2-15.45-13.72-4.67-2.71-9.37-4.05-14.04-4.05-.36,0-.56-.59-.56-1.7s.2-1.7.56-1.7c3.76,0,7.58.1,11.53.29,3.92.2,7.58.29,10.94.29,6.73,0,12.84-.1,18.26-.29,5.42-.2,9.63-.29,12.64-.29,2.42,0,4.25,1.11,5.49,3.23,1.21,2.16,4.05,5.94,8.56,11.4l97.17,111.97v-90.64c0-9.93-2.06-17.83-6.17-23.71-4.12-5.91-9.83-8.85-17.15-8.85-.36,0-.56-.59-.56-1.7s.2-1.7.56-1.7c4.15,0,8.39.16,12.8.43,4.38.29,9.21.42,14.47.42s9.99-.13,14.86-.42c4.87-.26,9.37-.43,13.49-.43.36,0,.56.59.56,1.7Z"/>
  </g>
  <g>
    <path class="cls-1" d="M35.86,398c-2.35,0-5.28-.11-8.8-.33-3.52-.22-6.75-.33-9.68-.33-2.64,0-5.17.04-7.59.11-2.42.07-4.58.11-6.49.11-.15,0-.22-.22-.22-.66s.07-.66.22-.66c2.27,0,3.98-.18,5.11-.55,1.14-.37,1.91-1.1,2.31-2.2.4-1.1.6-2.71.6-4.84v-50.92c0-2.13-.18-3.72-.55-4.78-.37-1.06-1.12-1.8-2.25-2.2-1.14-.4-2.8-.6-5-.6-.22,0-.33-.22-.33-.66s.11-.66.33-.66c1.91,0,4.03.06,6.38.16,2.35.11,4.88.16,7.59.16s5.54-.09,8.69-.27c3.15-.18,5.87-.28,8.14-.28,7.62,0,14.26,1.47,19.91,4.4,5.64,2.93,10.04,6.93,13.2,11.99,3.15,5.06,4.73,10.74,4.73,17.05,0,5.5-.95,10.47-2.86,14.9-1.91,4.44-4.55,8.21-7.92,11.33-3.37,3.12-7.24,5.52-11.6,7.2-4.36,1.69-9,2.53-13.91,2.53ZM34.76,395.47c4.62,0,8.73-1.19,12.32-3.57,3.59-2.38,6.41-5.88,8.47-10.5,2.05-4.62,3.08-10.26,3.08-16.94,0-6.23-.95-11.88-2.86-16.94-1.91-5.06-4.58-9.07-8.03-12.04-3.45-2.97-7.55-4.45-12.32-4.45-4.25,0-7.3.4-9.13,1.21-1.83.81-2.75,2.71-2.75,5.72v49.49c0,2.71.71,4.73,2.14,6.05,1.43,1.32,4.45,1.98,9.07,1.98Z"/>
    <path class="cls-1" d="M133.4,380.3c-.26,2.12-.52,4.64-.75,7.51-.23,2.91-.33,5.59-.33,8.1,0,1.08-.56,1.63-1.67,1.63h-48.6c-.23,0-.33-.2-.33-.65,0-.43.1-.65.33-.65,2.29,0,3.95-.2,5.06-.56,1.11-.36,1.83-1.11,2.19-2.19.36-1.11.56-2.71.56-4.83v-50.92c0-2.16-.2-3.72-.56-4.8-.36-1.04-1.08-1.8-2.19-2.19-1.11-.43-2.78-.62-5.06-.62-.23,0-.33-.23-.33-.65s.1-.65.33-.65h46.64c.72,0,1.08.33,1.08.98l.23,14.63c0,.13-.2.26-.56.33-.36.07-.62,0-.75-.23-1.18-4.31-3.17-7.48-5.94-9.5-2.78-2.03-6.47-3.04-11.01-3.04h-3.3c-1.47,0-2.68.23-3.63.62-.95.39-1.63,1.05-2.09,1.93-.42.88-.65,1.96-.65,3.3v22.44h9.11c4.34,0,7.61-.75,9.86-2.25,2.22-1.5,3.33-3.53,3.33-6.11,0-.23.23-.33.62-.33s.59.1.59.33c0,2.42,0,4.31-.03,5.65-.03,1.37-.07,2.78-.07,4.25,0,1.83.07,3.63.16,5.39.1,1.76.16,3.69.16,5.81,0,.16-.23.23-.65.23-.46,0-.65-.07-.65-.23,0-3-1.14-5.36-3.43-7.09-2.25-1.7-5.59-2.58-10-2.58h-9.01v24.86c0,1.41.16,2.58.56,3.53.36.95.91,1.63,1.63,2.09.75.42,1.7.65,2.87.65h3.63c5.72,0,10.29-1.18,13.75-3.53,3.43-2.35,5.98-5.98,7.58-10.88.07-.23.33-.29.72-.16.39.1.59.23.59.39Z"/>
    <path class="cls-1" d="M157.39,339.93c0,2.79.71,5.23,2.14,7.31,1.43,2.09,3.3,3.98,5.61,5.66,2.31,1.69,4.75,3.37,7.31,5.06,2.79,1.76,5.44,3.61,7.97,5.55,2.53,1.94,4.62,4.18,6.27,6.71,1.65,2.53,2.47,5.55,2.47,9.07,0,3.89-1.05,7.3-3.13,10.23-2.09,2.93-4.91,5.22-8.47,6.87-3.56,1.65-7.61,2.47-12.15,2.47-2.2,0-4.49-.22-6.87-.66-2.38-.44-4.55-.99-6.49-1.65-1.94-.66-3.35-1.36-4.23-2.09-.29-.22-.55-.46-.77-.71-.22-.26-.33-.72-.33-1.38l-.33-17.49c-.07-.37.09-.57.49-.6.4-.04.64.09.71.38,1.1,2.27,2.31,4.67,3.63,7.2,1.32,2.53,2.8,4.86,4.45,6.98,1.65,2.13,3.5,3.87,5.55,5.22,2.05,1.36,4.4,2.03,7.04,2.03,1.69,0,3.3-.29,4.84-.88,1.54-.59,2.81-1.65,3.79-3.19.99-1.54,1.48-3.67,1.48-6.38,0-3.45-.77-6.4-2.31-8.85-1.54-2.46-3.52-4.62-5.94-6.49-2.42-1.87-4.95-3.65-7.59-5.33-2.57-1.69-5.02-3.43-7.37-5.23-2.35-1.8-4.25-3.85-5.72-6.16-1.47-2.31-2.2-5.08-2.2-8.3,0-4.11,1.16-7.46,3.46-10.06,2.31-2.6,5.24-4.53,8.8-5.77,3.56-1.25,7.17-1.87,10.83-1.87,2.64,0,5.28.24,7.92.71,2.64.48,4.73,1.05,6.27,1.71.73.29,1.19.62,1.37.99.18.37.27.77.27,1.21v16.17c0,.22-.16.38-.49.49-.33.11-.57.06-.71-.16-.44-.88-1.06-2.33-1.87-4.34-.81-2.02-1.87-4.12-3.19-6.32-1.32-2.2-3.01-4.09-5.06-5.67-2.05-1.58-4.55-2.36-7.48-2.36-1.83,0-3.5.37-5,1.1-1.5.73-2.71,1.81-3.63,3.24-.92,1.43-1.38,3.28-1.38,5.55Z"/>
    <path class="cls-1" d="M245.04,331.35c-4.47,0-8.27,1.48-11.38,4.45-3.12,2.97-5.59,7.17-7.42,12.59-.07.22-.29.31-.66.27-.37-.04-.55-.16-.55-.38.15-1.03.29-2.47.44-4.34.15-1.87.31-3.9.49-6.1.18-2.2.33-4.33.44-6.38.11-2.05.16-3.74.16-5.06,0-.37.2-.55.6-.55s.61.18.61.55c0,.73.38,1.27,1.15,1.59.77.33,1.65.55,2.64.66.99.11,1.81.16,2.47.16,6.3.22,13.67.33,22.11.33,5.13,0,9.24-.05,12.32-.16,3.08-.11,6.05-.16,8.91-.16,2.64,0,4.64-.16,5.99-.5,1.36-.33,2.22-1.08,2.58-2.25.07-.29.31-.44.71-.44s.6.15.6.44c-.15,1.17-.27,2.8-.38,4.89-.11,2.09-.22,4.29-.33,6.6-.11,2.31-.2,4.44-.27,6.38-.07,1.94-.11,3.39-.11,4.34,0,.22-.18.33-.55.33s-.59-.11-.66-.33c-1.1-5.79-3.17-10.06-6.21-12.81-3.04-2.75-6.73-4.12-11.05-4.12-1.47,0-2.58.2-3.35.6s-1.28,1.08-1.54,2.03c-.26.95-.38,2.27-.38,3.96v50.7c0,2.13.22,3.74.66,4.84.44,1.1,1.3,1.83,2.58,2.2,1.28.37,3.24.55,5.88.55.22,0,.33.22.33.66s-.11.66-.33.66c-2.05,0-4.36-.04-6.93-.11-2.57-.07-5.39-.11-8.47-.11s-5.68.04-8.25.11c-2.57.07-4.91.11-7.04.11-.22,0-.33-.22-.33-.66s.11-.66.33-.66c2.57,0,4.51-.18,5.83-.55,1.32-.37,2.22-1.1,2.69-2.2.48-1.1.71-2.71.71-4.84v-50.92c0-1.61-.13-2.88-.38-3.79-.26-.92-.75-1.58-1.48-1.98-.73-.4-1.8-.6-3.19-.6Z"/>
    <path class="cls-1" d="M369.22,396.24c-2.94,0-6.01-1.21-9.24-3.59-3.23-2.35-6.92-6.24-11.07-11.6-3.89-5.03-8.56-11.63-13.98-19.79,3.4-1.8,6.21-4.25,8.43-7.32,2.42-3.33,3.63-7.15,3.63-11.5s-1.8-7.81-5.42-10.26c-3.63-2.48-8.82-3.69-15.58-3.69-2.55,0-5.29.1-8.2.33-2.88.23-5.55.33-7.97.33-2.61,0-5.13-.07-7.48-.16-2.32-.13-4.47-.16-6.37-.16-.13,0-.23.23-.23.65s.1.65.23.65c2.29,0,3.95.2,5.06.62,1.11.39,1.83,1.14,2.19,2.19.39,1.08.56,2.65.56,4.8v50.92c0,2.12-.2,3.72-.59,4.83-.42,1.08-1.18,1.83-2.25,2.19-1.11.36-2.81.56-5.06.56-.23,0-.33.23-.33.65,0,.46.1.65.33.65,1.89,0,4.05-.03,6.43-.1,2.38-.07,4.9-.1,7.51-.1,2.81,0,5.36.03,7.71.1,2.35.07,4.48.1,6.37.1.16,0,.23-.2.23-.65,0-.43-.07-.65-.23-.65-2.25,0-3.95-.2-5.06-.56-1.08-.36-1.83-1.11-2.19-2.19-.36-1.11-.56-2.71-.56-4.83v-24.33c.88.1,1.86.13,2.94.13h3.1c.88,0,1.73-.03,2.58-.13,3.95,6.63,7.55,12.31,10.75,17.18,3.43,5.19,6.4,9.18,8.85,11.92,2.45,2.74,4.25,4.12,5.33,4.12h19.6c.13,0,.19-.2.19-.65,0-.43-.06-.65-.19-.65ZM319.38,361.59c-1.18-.07-2.25-.16-3.3-.33v-23.32c0-2.55.62-4.38,1.89-5.49,1.24-1.11,3.33-1.67,6.24-1.67,1.99,0,3.76.42,5.29,1.27,1.53.85,2.74,2.42,3.63,4.67.88,2.29,1.34,5.59,1.34,9.9,0,5.29-.91,9.11-2.78,11.5-1.83,2.38-4.9,3.59-9.21,3.59-.88,0-1.93-.07-3.1-.13Z"/>
    <path class="cls-1" d="M403.2,398.88c-5.28,0-10.06-.93-14.35-2.8-4.29-1.87-7.96-4.45-11-7.75-3.04-3.3-5.39-7.09-7.04-11.38-1.65-4.29-2.47-8.85-2.47-13.69,0-5.94,1.15-11.14,3.46-15.62,2.31-4.47,5.37-8.19,9.18-11.16,3.81-2.97,7.99-5.19,12.54-6.65,4.54-1.47,9.05-2.2,13.53-2.2,5.43,0,10.28.97,14.57,2.92,4.29,1.94,7.94,4.56,10.94,7.86,3.01,3.3,5.3,7.04,6.87,11.22,1.58,4.18,2.36,8.47,2.36,12.87,0,5.13-1.03,9.9-3.08,14.3-2.05,4.4-4.86,8.25-8.41,11.55-3.56,3.3-7.66,5.88-12.32,7.75-4.66,1.87-9.59,2.8-14.79,2.8ZM406.83,396.13c4.11,0,7.77-1.17,11-3.52,3.23-2.34,5.77-5.79,7.64-10.34,1.87-4.55,2.8-10.08,2.8-16.61s-1.03-12.76-3.08-18.04c-2.05-5.28-4.99-9.44-8.8-12.48-3.81-3.04-8.4-4.57-13.75-4.57-6.67,0-11.81,2.53-15.4,7.59-3.59,5.06-5.39,12.06-5.39,21.01,0,5.35.62,10.28,1.87,14.79,1.25,4.51,2.99,8.43,5.22,11.77,2.24,3.34,4.87,5.9,7.92,7.7,3.04,1.8,6.36,2.7,9.95,2.7Z"/>
    <path class="cls-1" d="M472.15,388.65c0,2.13.18,3.74.55,4.84.37,1.1,1.1,1.83,2.2,2.2,1.1.37,2.79.55,5.06.55.22,0,.33.22.33.66s-.11.66-.33.66c-1.91,0-4.03-.04-6.38-.11-2.35-.07-4.91-.11-7.7-.11-2.64,0-5.17.04-7.59.11-2.42.07-4.58.11-6.49.11-.15,0-.22-.22-.22-.66s.07-.66.22-.66c2.27,0,3.98-.18,5.11-.55,1.14-.37,1.91-1.1,2.31-2.2.4-1.1.6-2.71.6-4.84v-50.92c0-2.13-.2-3.72-.6-4.78-.4-1.06-1.17-1.8-2.31-2.2-1.14-.4-2.84-.6-5.11-.6-.15,0-.22-.22-.22-.66s.07-.66.22-.66c1.91,0,4.07.06,6.49.16,2.42.11,4.95.16,7.59.16,2.79,0,5.37-.05,7.75-.16,2.38-.11,4.49-.16,6.32-.16.22,0,.33.22.33.66s-.11.66-.33.66c-2.2,0-3.87.22-5,.66-1.14.44-1.89,1.21-2.25,2.31-.37,1.1-.55,2.71-.55,4.84v50.7Z"/>
    <path class="cls-1" d="M503.94,339.93c0,2.79.71,5.23,2.14,7.31,1.43,2.09,3.3,3.98,5.61,5.66,2.31,1.69,4.75,3.37,7.31,5.06,2.79,1.76,5.44,3.61,7.97,5.55,2.53,1.94,4.62,4.18,6.27,6.71,1.65,2.53,2.47,5.55,2.47,9.07,0,3.89-1.05,7.3-3.13,10.23-2.09,2.93-4.91,5.22-8.47,6.87-3.56,1.65-7.61,2.47-12.15,2.47-2.2,0-4.49-.22-6.87-.66-2.38-.44-4.55-.99-6.49-1.65-1.94-.66-3.35-1.36-4.23-2.09-.29-.22-.55-.46-.77-.71-.22-.26-.33-.72-.33-1.38l-.33-17.49c-.07-.37.09-.57.49-.6.4-.04.64.09.71.38,1.1,2.27,2.31,4.67,3.63,7.2,1.32,2.53,2.8,4.86,4.45,6.98,1.65,2.13,3.5,3.87,5.55,5.22,2.05,1.36,4.4,2.03,7.04,2.03,1.69,0,3.3-.29,4.84-.88,1.54-.59,2.81-1.65,3.79-3.19.99-1.54,1.48-3.67,1.48-6.38,0-3.45-.77-6.4-2.31-8.85-1.54-2.46-3.52-4.62-5.94-6.49-2.42-1.87-4.95-3.65-7.59-5.33-2.57-1.69-5.02-3.43-7.37-5.23-2.35-1.8-4.25-3.85-5.72-6.16-1.47-2.31-2.2-5.08-2.2-8.3,0-4.11,1.16-7.46,3.46-10.06,2.31-2.6,5.24-4.53,8.8-5.77,3.56-1.25,7.17-1.87,10.83-1.87,2.64,0,5.28.24,7.92.71,2.64.48,4.73,1.05,6.27,1.71.73.29,1.19.62,1.37.99.18.37.27.77.27,1.21v16.17c0,.22-.16.38-.49.49-.33.11-.57.06-.71-.16-.44-.88-1.06-2.33-1.87-4.34-.81-2.02-1.87-4.12-3.19-6.32-1.32-2.2-3.01-4.09-5.06-5.67-2.05-1.58-4.55-2.36-7.48-2.36-1.83,0-3.5.37-5,1.1-1.5.73-2.71,1.81-3.63,3.24-.92,1.43-1.38,3.28-1.38,5.55Z"/>
    <path class="cls-1" d="M613.48,398.88c-6.45,0-12.21-.92-17.27-2.75-5.06-1.83-9.35-4.36-12.87-7.59-3.52-3.23-6.2-6.97-8.03-11.22-1.83-4.25-2.75-8.8-2.75-13.64,0-5.35,1.06-10.23,3.19-14.63,2.13-4.4,5.13-8.19,9.02-11.38,3.89-3.19,8.43-5.66,13.64-7.42,5.21-1.76,10.89-2.64,17.05-2.64,3.45,0,6.93.26,10.45.77,3.52.51,6.38,1.25,8.58,2.2.81.29,1.27.53,1.37.72.11.18.2.79.28,1.81l1.43,15.29c0,.22-.18.37-.55.44-.37.07-.62-.04-.77-.33-.52-1.39-1.41-3.14-2.7-5.22-1.28-2.09-2.95-4.14-5-6.16-2.05-2.02-4.51-3.72-7.37-5.11-2.86-1.39-6.16-2.09-9.9-2.09-4.69,0-8.96,1.26-12.81,3.79-3.85,2.53-6.91,6.14-9.18,10.83-2.27,4.69-3.41,10.3-3.41,16.83,0,5.28.75,10.08,2.25,14.41,1.5,4.33,3.63,8.08,6.38,11.27,2.75,3.19,5.96,5.65,9.62,7.37,3.67,1.72,7.7,2.59,12.1,2.59,2.79,0,5.02-.33,6.71-.99,1.69-.66,2.92-1.94,3.68-3.85.77-1.91,1.15-4.73,1.15-8.47,0-3.52-.2-6.1-.6-7.75-.4-1.65-1.37-2.73-2.91-3.24-1.54-.51-4.03-.77-7.48-.77-.44,0-.66-.29-.66-.88s.18-.88.55-.88c5.13.29,9.75.46,13.86.5,4.11.04,8.43-.06,12.98-.28.29,0,.46.26.49.77.04.52-.13.77-.49.77-1.25-.07-2.16.16-2.75.71-.59.55-.95,1.74-1.1,3.57-.15,1.83-.22,4.69-.22,8.58,0,2.42.07,4.22.22,5.39.15,1.17.27,2.03.38,2.58.11.55.16,1.12.16,1.7,0,.44-.07.73-.22.88-.15.15-.48.29-.99.44-4.03.88-8.27,1.61-12.7,2.2-4.44.59-8.71.88-12.81.88Z"/>
    <path class="cls-1" d="M726.42,396.24c-1.18,0-2.32-.42-3.46-1.27-1.14-.85-2.35-2.25-3.63-4.28-1.27-2.03-2.81-4.74-4.57-8.2l-27.47-54.12c-.1-.29-.42-.43-1.01-.36-.59.03-.91.16-.98.36l-23.88,52.46c-1.83,4.11-3.46,7.28-4.9,9.54-1.41,2.22-2.84,3.76-4.28,4.61-1.44.85-3.14,1.27-5.13,1.27-.26,0-.43.23-.43.65,0,.46.16.65.43.65,2.51,0,4.6-.07,6.33-.2,1.73-.16,4.02-.23,6.89-.23s5.1.07,6.92.23c1.83.13,3.85.2,6.04.2.36,0,.56-.2.56-.65,0-.43-.19-.65-.56-.65-4.11,0-7.12-1.27-9.01-3.85-1.93-2.58-1.86-6.04.1-10.45l4.34-9.57h26.95l7.55,14.86c1.83,3.59,2.52,5.98,2.03,7.19-.49,1.21-2.22,1.83-5.23,1.83-.29,0-.42.23-.42.65,0,.46.13.65.42.65,2.29,0,4.34-.07,6.17-.2,1.83-.16,3.98-.23,6.47-.23,2.22,0,4.51.07,6.89.23,2.38.13,4.67.2,6.86.2.36,0,.56-.2.56-.65,0-.43-.2-.65-.56-.65ZM670.11,369.3l11.37-25.02,12.67,25.02h-24.04Z"/>
    <path class="cls-1" d="M804.2,396.24c-2.94,0-6.01-1.21-9.24-3.59-3.23-2.35-6.92-6.24-11.04-11.6-3.92-5.03-8.56-11.63-14.01-19.79,3.4-1.8,6.21-4.25,8.46-7.32,2.42-3.33,3.63-7.15,3.63-11.5s-1.83-7.81-5.45-10.26c-3.63-2.48-8.82-3.69-15.58-3.69-2.55,0-5.29.1-8.17.33-2.91.23-5.55.33-7.97.33-2.65,0-5.16-.07-7.48-.16-2.35-.13-4.47-.16-6.4-.16-.13,0-.2.23-.2.65s.07.65.2.65c2.29,0,3.95.2,5.06.62,1.11.39,1.83,1.14,2.19,2.19.39,1.08.56,2.65.56,4.8v50.92c0,2.12-.2,3.72-.59,4.83-.42,1.08-1.18,1.83-2.25,2.19-1.11.36-2.81.56-5.06.56-.23,0-.33.23-.33.65,0,.46.1.65.33.65,1.89,0,4.05-.03,6.43-.1,2.38-.07,4.9-.1,7.55-.1,2.78,0,5.32.03,7.68.1,2.35.07,4.48.1,6.4.1.13,0,.2-.2.2-.65,0-.43-.07-.65-.2-.65-2.29,0-3.98-.2-5.06-.56-1.11-.36-1.83-1.11-2.22-2.19-.36-1.11-.56-2.71-.56-4.83v-24.33c.88.1,1.86.13,2.94.13h3.14c.85,0,1.7-.03,2.55-.13,3.98,6.63,7.58,12.31,10.75,17.18,3.46,5.19,6.4,9.18,8.85,11.92,2.45,2.74,4.25,4.12,5.32,4.12h19.6c.13,0,.23-.2.23-.65,0-.43-.1-.65-.23-.65ZM754.35,361.59c-1.14-.07-2.25-.16-3.3-.33v-23.32c0-2.55.65-4.38,1.89-5.49,1.24-1.11,3.33-1.67,6.27-1.67,1.96,0,3.72.42,5.26,1.27,1.54.85,2.74,2.42,3.63,4.67.88,2.29,1.34,5.59,1.34,9.9,0,5.29-.91,9.11-2.74,11.5-1.86,2.38-4.93,3.59-9.24,3.59-.88,0-1.93-.07-3.1-.13Z"/>
    <path class="cls-1" d="M867.99,379.1l-1.67,13.62c-.07.88-.2,1.44-.36,1.7-.2.26-.62.56-1.27.85-3.53,1.24-7.02,2.16-10.52,2.74-3.46.59-6.79.88-9.96.88h-.56c-.16,1.11-.23,2.09-.13,2.97.1,1.14.49,2.22,1.21,3.17.69.95,1.73,1.83,3.14,2.65,1.53.95,2.91,2.06,4.18,3.37,1.24,1.27,1.86,3,1.86,5.23,0,1.76-.46,3.5-1.34,5.26-.88,1.76-2.29,3.27-4.21,4.47-1.96,1.21-4.57,1.8-7.87,1.8-2.65,0-4.67-.42-6.11-1.24-1.44-.85-2.15-2.19-2.15-4.02,0-1.05.46-2.03,1.34-2.94.88-.91,1.89-1.37,3.07-1.37,1.54,0,2.61.36,3.2,1.05.59.72.98,1.5,1.21,2.42.23.91.56,1.73,1.04,2.42.46.72,1.41,1.04,2.81,1.04,1.6,0,2.42-.88,2.42-2.61,0-1.93-.65-3.63-1.99-5.19-1.31-1.54-3.69-3.27-7.15-5.16-.49-.23-.82-.56-.91-.98-.13-.46,0-1.14.36-2.09.75-1.76,1.31-3.14,1.67-4.08.36-.95.75-1.93,1.14-2.97.33-.78.72-1.86,1.21-3.23-6.86-.29-13.03-1.76-18.52-4.41-6.17-2.97-11.01-7.09-14.54-12.41-3.49-5.32-5.26-11.43-5.26-18.32,0-5.26,1.04-10.13,3.14-14.57,2.09-4.44,5.03-8.23,8.79-11.43,3.79-3.2,8.2-5.68,13.26-7.41,5.06-1.76,10.52-2.65,16.4-2.65,2.19,0,4.48.1,6.86.33,2.38.23,4.64.56,6.76.98,2.12.46,3.92.98,5.39,1.67.65.2,1.08.49,1.27.82.16.33.29.88.39,1.7l1.44,15.29c0,.23-.2.36-.56.46-.39.07-.62-.03-.78-.33-2.06-5.94-4.96-10.55-8.75-13.75-3.76-3.23-8.36-4.87-13.78-4.87-5,0-9.44,1.34-13.36,4.02-3.92,2.68-7.02,6.47-9.24,11.4-2.25,4.9-3.37,10.78-3.37,17.61,0,5.13.65,9.77,1.99,13.91,1.31,4.12,3.17,7.68,5.59,10.62,2.45,2.91,5.29,5.16,8.59,6.76,3.3,1.57,6.92,2.35,10.88,2.35,5.22,0,9.54-1.4,12.93-4.25,3.4-2.81,6.63-7.32,9.64-13.46.13-.23.39-.29.72-.23s.49.23.49.46Z"/>
    <path class="cls-1" d="M913.07,398.88c-5.28,0-10.06-.93-14.35-2.8-4.29-1.87-7.96-4.45-11-7.75-3.04-3.3-5.39-7.09-7.04-11.38-1.65-4.29-2.47-8.85-2.47-13.69,0-5.94,1.16-11.14,3.46-15.62,2.31-4.47,5.37-8.19,9.18-11.16,3.81-2.97,7.99-5.19,12.54-6.65,4.55-1.47,9.06-2.2,13.53-2.2,5.42,0,10.28.97,14.57,2.92,4.29,1.94,7.94,4.56,10.94,7.86,3,3.3,5.3,7.04,6.87,11.22,1.58,4.18,2.36,8.47,2.36,12.87,0,5.13-1.03,9.9-3.08,14.3-2.05,4.4-4.86,8.25-8.41,11.55-3.56,3.3-7.66,5.88-12.32,7.75-4.66,1.87-9.59,2.8-14.79,2.8ZM916.7,396.13c4.11,0,7.77-1.17,11-3.52,3.23-2.34,5.77-5.79,7.64-10.34,1.87-4.55,2.8-10.08,2.8-16.61s-1.03-12.76-3.08-18.04c-2.05-5.28-4.99-9.44-8.8-12.48-3.81-3.04-8.4-4.57-13.75-4.57-6.67,0-11.81,2.53-15.4,7.59-3.59,5.06-5.39,12.06-5.39,21.01,0,5.35.62,10.28,1.87,14.79,1.25,4.51,2.99,8.43,5.22,11.77,2.24,3.34,4.87,5.9,7.92,7.7,3.04,1.8,6.36,2.7,9.95,2.7Z"/>
    <path class="cls-1" d="M1036.79,329.48c0,.43-.07.65-.2.65-2.94,0-5.26,1.18-6.92,3.46-1.7,2.32-2.55,5.42-2.55,9.31v56.31c0,.23-.16.33-.49.39-.33.03-.56,0-.72-.07l-51.57-58.7v42.76c0,3.89.82,6.96,2.42,9.21,1.6,2.29,3.85,3.43,6.7,3.43.16,0,.23.23.23.65,0,.46-.07.65-.23.65-1.6,0-3.27-.03-5-.1-1.73-.07-3.59-.1-5.65-.1-2.22,0-4.34.03-6.44.1-2.09.07-4.02.1-5.78.1-.23,0-.33-.2-.33-.65,0-.43.1-.65.33-.65,3.23,0,5.78-1.14,7.64-3.43,1.86-2.25,2.81-5.32,2.81-9.21v-46.48c-2.35-2.61-4.38-4.41-6.04-5.39-1.86-1.08-3.69-1.6-5.52-1.6-.13,0-.2-.23-.2-.65s.07-.65.2-.65c1.47,0,2.97.03,4.51.1,1.53.07,2.97.13,4.31.13,2.61,0,5-.07,7.12-.13,2.16-.07,3.79-.1,4.96-.1.95,0,1.67.43,2.15,1.27.46.82,1.6,2.32,3.33,4.44l38.05,43.83v-35.47c0-3.89-.78-6.99-2.42-9.31-1.6-2.29-3.82-3.46-6.7-3.46-.16,0-.23-.23-.23-.65s.06-.65.23-.65c1.6,0,3.27.03,5,.16,1.73.1,3.63.16,5.68.16s3.92-.07,5.81-.16c1.89-.13,3.66-.16,5.29-.16.13,0,.2.23.2.65Z"/>
    <path class="cls-1" d="M1057.04,339.93c0,2.79.71,5.23,2.14,7.31,1.43,2.09,3.3,3.98,5.61,5.66,2.31,1.69,4.75,3.37,7.31,5.06,2.79,1.76,5.45,3.61,7.97,5.55,2.53,1.94,4.62,4.18,6.27,6.71,1.65,2.53,2.47,5.55,2.47,9.07,0,3.89-1.05,7.3-3.14,10.23-2.09,2.93-4.91,5.22-8.47,6.87-3.56,1.65-7.61,2.47-12.15,2.47-2.2,0-4.49-.22-6.87-.66-2.38-.44-4.55-.99-6.49-1.65-1.94-.66-3.35-1.36-4.23-2.09-.29-.22-.55-.46-.77-.71-.22-.26-.33-.72-.33-1.38l-.33-17.49c-.07-.37.09-.57.49-.6.4-.04.64.09.72.38,1.1,2.27,2.31,4.67,3.63,7.2,1.32,2.53,2.8,4.86,4.45,6.98,1.65,2.13,3.5,3.87,5.55,5.22,2.05,1.36,4.4,2.03,7.04,2.03,1.69,0,3.3-.29,4.84-.88,1.54-.59,2.8-1.65,3.79-3.19.99-1.54,1.49-3.67,1.49-6.38,0-3.45-.77-6.4-2.31-8.85-1.54-2.46-3.52-4.62-5.94-6.49-2.42-1.87-4.95-3.65-7.59-5.33-2.57-1.69-5.02-3.43-7.37-5.23-2.35-1.8-4.25-3.85-5.72-6.16-1.47-2.31-2.2-5.08-2.2-8.3,0-4.11,1.15-7.46,3.46-10.06,2.31-2.6,5.24-4.53,8.8-5.77,3.56-1.25,7.17-1.87,10.83-1.87,2.64,0,5.28.24,7.92.71,2.64.48,4.73,1.05,6.27,1.71.73.29,1.19.62,1.37.99.18.37.28.77.28,1.21v16.17c0,.22-.17.38-.5.49-.33.11-.57.06-.71-.16-.44-.88-1.06-2.33-1.87-4.34-.81-2.02-1.87-4.12-3.19-6.32-1.32-2.2-3.01-4.09-5.06-5.67-2.05-1.58-4.55-2.36-7.48-2.36-1.83,0-3.5.37-5,1.1-1.5.73-2.71,1.81-3.63,3.24-.92,1.43-1.37,3.28-1.37,5.55Z"/>
  </g>
  <circle class="cls-1" cx="546.44" cy="443.61" r="12.89"/>
  <circle class="cls-1" cx="494.92" cy="443.61" r="9.73"/>
  <circle class="cls-1" cx="597.96" cy="443.61" r="9.73"/>
  <rect class="cls-1" x="634.89" y="439.77" width="453.81" height="7.67"/>
  <rect class="cls-1" x="3.08" y="439.77" width="453.81" height="7.67"/>
  <rect class="cls-1" x="153.06" y="67.82" width="940.93" height="7.67"/>
</svg>