<?xml version="1.0" encoding="UTF-8"?>
<svg id="Layer_1" data-name="Layer 1" xmlns="http://www.w3.org/2000/svg" viewBox="0 0 1007.83 493.69">
  <defs>
    <style>
      .cls-1 {
        fill: #fff;
      }
    </style>
  </defs>
  <path class="cls-1" d="M948.13,12.05c4.31,0,8.69.93,12.65,2.7,7.8,3.47,13.81,10.29,16.5,18.69,2.72,8.54,1.75,17.71-2.66,25.18-2.33,3.95-4.62,7.36-6.83,10.66l-.07.11-5.72,8.54-9.96,13.72-9.3,12.81,14.83,5.55c8.2,3.07,15.43,9.22,19.83,16.87l5.19,9.04c5.56,9.68,7.74,21.13,6.29,33.1-1.69,14.04-7.13,22.25-12.22,28.43l-9.89,12.01,14.11,6.57c1.46.68,2.76,1.53,3.88,2.53,10.2,9.14,13.6,21.96,9.1,34.29-2.67,7.3-7.7,14.38-14.17,19.94-11.21,9.63-16.91,12.37-27.32,17.36l-1.94.94c-1.09.53-2.25,1.09-3.5,1.7-9.3,4.55-19.97,7.37-32.62,8.61l-9.64.95c-1.74.17-3.41.26-4.96.26-10.46,0-16.66-3.84-20.02-7.06l-4.57-4.37c-1.66-1.58-3.16-3.53-4.71-6.12l-8.68-14.47-10.87,12.91c-.21.25-.42.5-.62.75l-.53.64-.06.07-.03.03c-2.92,3.52-6.23,7.5-10.92,10.98-7.03,5.22-15.5,7.9-25.87,8.2-.29,0-.58,0-.86,0-.08,0-.16,0-.24,0-7.69,0-14.2-2.38-20.1-4.95-2.54-1.11-4.88-2.45-6.96-3.98l-23.1-17.07,4,28.45c.81,5.77-.82,11.18-4.73,15.66-4.63,5.32-11.46,8.24-19.22,8.24-3.6,0-7.33-.6-11.11-1.79-5.07-1.6-9.42-4.08-13.28-7.6l-10.46-9.52-7.74,11.84c-.34.53-.68,1.01-1,1.47l-4.05,5.82,3.13,6.37,2.92,5.95c.38.78.78,1.54,1.18,2.3l.38.73.04.08c1.64,3.12,3.49,6.66,4.79,10.84,3.46,11.19-.5,23.16-10.08,30.5-5.63,4.3-13.64,6.87-21.41,6.87-3.55,0-6.97-.51-10.17-1.52-11.85-3.73-24.92-16.74-26.08-42.07-.34-7.45.09-12.73.43-16.97.18-2.21.36-4.5.42-7.03l.38-16.76-16.01,4.98c-2.48.77-5,1.18-7.29,1.18-.29,0-.58,0-.87-.02-8.53-.36-14.97-2.48-20.88-6.89l-9.45-7.05-7.25,9.29c-2.24,2.87-4.54,5.16-6.5,7.03-8.76,8.38-18.52,13.46-29.01,15.11l-13.19,2.07,3.41,12.91c3.58,13.58.32,26.45-8.96,35.31-7.22,6.89-16.62,10.68-26.48,10.68-7.53,0-14.81-2.21-21.05-6.39-3.72-2.5-6.65-5.62-8.95-9.55l-6.35-10.81-10.55,6.78c-2.19,1.4-4.59,2.57-7.14,3.46-3.41,1.19-6.53,1.77-9.53,1.77-5.27,0-10.07-1.7-14.67-5.19l-.03-.02-.03-.02c-.87-.65-1.73-1.36-2.55-2.1l-18.06-16.17-1.98,24.17c-1.04,12.66-5.62,21.79-14.02,27.9-5.24,3.82-11.86,5.92-18.64,5.92-5.06,0-10.01-1.16-14.3-3.35-2.18-1.12-4.55-2.96-7.66-5.95-3.67-3.55-6.29-7.55-7.99-12.23l-5.67-15.53-13.05,10.16c-1.6,1.24-3.18,2.31-4.87,3.28-2.37,1.37-4.9,2.26-6.94,2.98h-.04s-.04.03-.04.03l-.23.08c-.64.23-1.39.51-1.69.62l-.3.12-.29.13c-4.98,2.27-10.04,3.41-15.04,3.41-9.1,0-16.35-3.75-22.18-6.76l-20.95-10.83,3.5,23.32c.14.93.33,1.83.64,3.03,3.25,12.54-1.15,24.5-11.76,32l-.06.04-.05.04c-.48.35-.97.7-1.46,1.07-3.84,2.83-9.09,6.67-16.54,7.26-1.5.12-3.03.19-4.52.19-9.23,0-17.02-2.49-25.26-8.07-3.82-2.59-7.64-7.53-9.29-10.85l-3.43-6.92c-3.09-6.24-3.23-12.61-3.33-17.32-.05-1.76-.09-3.09-.19-4.2v-.11s-.02-.11-.02-.11c-.21-1.87-.51-3.85-.8-5.74-.76-4.95-1.62-10.56-1.1-16.76v-.06s0-.06,0-.06c.08-1.1.05-2.31,0-4.19l-.02-.59v-.09s0-.09,0-.09c-.07-1.57-.1-2.93-.1-4.21.03-5.97-.14-10.26-.57-14.35l-3.26-31.23-18.47,25.39c-2.22,3.05-5.27,7.24-9.78,10.71-5.95,4.58-14.34,5.08-17.67,5.08-.99,0-2.03-.05-3.04-.14-6.29-.59-12.16-3.27-16.96-7.75l-17.26-16.08-2.91,23.41c-.37,2.99-.56,5.38-.59,7.56-.07,7.42-.1,15.46.25,23.93.13,2.95.73,6.21,1.37,9.67l.05.29.07.35c.58,3.12,1.18,6.35,1.52,9.83.07.65.14,1.29.21,1.94.06.53.11,1.06.18,1.66.77,7.17,1.57,14.59.46,22.89-.05.35-.09.72-.14,1.08l-.08.63v.04s0,.04,0,.04c-.7,5.68-1.58,12.75-6.3,19.12-9.53,12.85-20.9,19.38-33.85,19.41-10.07,0-15.91-5.72-20.2-9.92l-.05-.05c-.49-.47-.98-.96-1.49-1.44l-.02-.02-.02-.02-2.04-1.92-.98-2.63c-3-7.99-7.53-20.05-3.59-32.12l3.18-9.72.13-.4.1-.4,1.71-6.8c1.45-5.78,2.06-10.88,2.68-18.27l1.37-16.38c.1-1.19.13-2.42.16-3.91h0c.06-2.1.12-4.47.43-7.02.73-5.81.76-9.71.78-13.82.03-5.23.07-10.63,1.4-19.18l2.08-13.38.03-.17.02-.17,3.21-25.39.02-.14v-.14s1.14-10.94,1.14-10.94l.02-.17v-.17s1.05-13.99,1.05-13.99c1.11-15.07,1.45-17.11,3.04-23.01l.06-.24c.59-2.22,1.4-5.26,2.64-11.16l1.47-7c1.32-6.29,2.79-11.51,4.63-16.45l13.42-36.18c2.39-6.44,6.05-11.42,9.3-15.82l10.35-14.09c.64-.87,1.26-1.74,1.88-2.61l.03-.04c3.74-5.2,7.97-11.09,14.52-15.85,5.87-4.28,14-4.75,17.23-4.75,1.72,0,3.36.12,4.88.35,11.91,1.83,21.16,10.47,24.13,22.54l7.3,29.62,14.92-26.61c2.43-4.34,5.99-9.82,11.98-13.75,4.19-2.75,9.01-4.2,13.94-4.2,13.29,0,26.69,10.83,30.53,24.68.15.59.32,1.18.5,1.79l.07.23.02.07c1.69,5.93,3.79,13.3,1.96,21.19l-4.47,19.24-.23.98-.06,1-.55,8.94c-.08,1.29-.11,2.47-.09,3.59l.5,33.86,21-26.56c1.92-2.43,4.27-4.24,7.62-5.88l2.04-.99,1.54-1.67c6.46-7.01,13.24-11.22,20.72-12.86.42-.09.85-.19,1.29-.29.23-.05.46-.11.69-.16l.08-.02h.05c3.56-.84,8-1.87,12.42-1.87.78,0,1.5.03,2.17.08,8.33.67,14.86,4.78,19.62,7.78,1.61,1.02,2.84,1.77,3.95,2.38,2.8,1.53,5.27,3.17,7.57,5.01l11.75,9.44,6.62-13.54c1.76-3.59,4.09-6.77,7.12-9.72,5.16-5,11.71-7.75,18.46-7.75s12.72,2.47,17.92,7.14l8.49,7.61,8.07-8.05c4.15-4.14,9.26-7.12,14.79-8.61l7.16-1.93,1.5-7.26c.14-.69.3-1.29.5-1.89,1.51-4.62,4.03-8.4,6.08-11.45l.18-.26c1.34-2.01,2.2-3.33,2.81-4.65,3.52-7.5,8.62-12.39,15.6-14.96l8.48-3.12-.61-9.01-.76-11.17v-.1s-.02-.1-.02-.1l-.76-8.94v-.13s-.02-.13-.02-.13l-.89-8.38c-1.85-17.52,3.15-26.51,10.98-38.22,6.41-9.59,14.31-11.6,19.81-11.6.6,0,1.23.02,1.83.07,9.21.72,16.86,5.16,22.11,12.84,6.55,9.56,8.34,23.84,4.55,36.41l-1.43,4.78-4.88,16.27,16.97-.77c.35-.02.7-.02,1.04-.02,4.91,0,9.66,1.51,13.74,4.38,3.31,2.32,5.92,5.26,7.76,8.75l7.55,14.29,11.54-11.31c4.75-4.66,9.77-7.2,15.35-7.79l.97-.1.94-.26c.29-.08.74-.21,1.19-.34l.58-.16.1-.03h.04c2.8-.82,6.27-1.83,10.32-1.83h.35c8.78.14,17.79,7.2,21.72,11.93l3.9,4.69,17.77,21.34,3.44-27.56c.15-1.17.29-2.36.44-3.57.28-2.32.2-4.92.1-7.94l-.02-.5v-.04s0-.04,0-.04c-.07-1.81-.14-3.75-.14-5.7,0-3-.65-4.78-1.75-7.77-1.76-4.74-3.94-10.64-3.42-20.73l.98-18.65c.27-5.35,1.24-12.44,6.41-19.76l8.23-11.69c2.45-3.5,8.98-12.8,23.25-14.39h.08s.08-.02.08-.02l.33-.04c1.02-.12,2.4-.27,3.97-.27,5.36,0,9.96,1.95,13.68,5.78,3.55,3.66,8.21,10.21,10.28,20.64l3.6,18.13,15.13-10.61c4.11-2.88,9.13-4.54,14.95-4.95,1.19-.08,2.31-.13,3.44-.13,12.39,0,18.83,5.95,22.05,10.94,5.23,8.11,3.66,15.78,2.6,20.89-.15.67-.31,1.43-.47,2.32-.23,1.37-.44,2.83-.62,4.49l-2.14,19.42,18.31-6.81c.22-.08.43-.16.65-.24h2.91s3.53-3.54,3.53-3.54l3.19-3.19.31-4.49c.36-5.11.33-11.17.32-14.09v-2.04c-.01-3.13-.3-6.39-.61-9.84l-.05-.59v-.04s0-.04,0-.04c-.17-1.84-.37-4.01-.52-6.23l-.88-12.94c-1.06-15.65,5.97-27.82,19.27-33.37,4.73-1.97,10.31-2.93,17.06-2.93,1.67,0,3.4.06,5.34.17l2.46.14,2.18,1.07c11.54,5.69,17.77,18.01,15.87,31.39l-2.11,14.89c-.3,2.15-.69,4.2-1.15,6.12l-4.97,20.73,20.32-6.42c4.63-1.46,8.67-2.12,13.11-2.12,2.55,0,5.22.24,8.15.72,1.9.31,3.74.87,5.47,1.65l14.43,6.51,2.43-15.64c.07-.46.14-.91.22-1.32v-.05s.02-.06.02-.06c.53-3.22,1.11-6.6,1.74-9.5l3.17-14.28c1.76-7.91,5.1-15.51,10.53-23.94,4.11-6.38,10.73-11.63,18.67-14.81,2.8-1.13,5.91-1.7,9.25-1.7M948.13,0c-4.87,0-9.5.86-13.75,2.57-10.23,4.09-18.86,11-24.31,19.46-6.23,9.68-10.09,18.52-12.16,27.85l-3.17,14.28c-.7,3.18-1.3,6.72-1.87,10.15-.08.48-.17,1-.25,1.54-2.7-1.22-5.54-2.07-8.46-2.55-3.58-.59-6.88-.88-10.11-.88-6.29,0-11.63,1.06-16.74,2.68.51-2.11.98-4.51,1.36-7.25l2.11-14.87c2.64-18.63-6.18-35.85-22.47-43.89l-4.4-2.16-4.89-.28c-2.18-.13-4.15-.19-6.03-.19-8.38,0-15.47,1.27-21.69,3.86-18.1,7.56-28.07,24.49-26.66,45.31l.88,12.94c.14,2.19.34,4.37.54,6.54.3,3.41.6,6.64.6,9.41v2.06c.02,2.76.05,8.53-.28,13.18-.01.01-.02.01-.04.01-.87.31-1.78.64-2.72.99.14-1.31.31-2.58.52-3.77.11-.63.24-1.23.37-1.83,1.19-5.72,3.69-17.63-4.25-29.95-3.96-6.15-13.41-16.46-32.18-16.46-1.39,0-2.78.05-4.3.16-8,.55-15.16,3-21,7.1-2.68-13.46-8.93-22.02-13.45-26.68-4.18-4.31-11.45-9.45-22.33-9.45-2.23,0-4.06.2-5.41.36l-.39.05c-19.62,2.19-28.78,15.17-31.78,19.45l-8.22,11.67c-7.01,9.94-8.27,19.65-8.59,26.09l-.98,18.63c-.65,12.57,2.24,20.38,4.16,25.55,1,2.72,1,2.83,1,3.58,0,2.21.07,4.31.14,6.17.08,2.63.18,5.11,0,6.6-.14,1.19-.29,2.36-.43,3.52l-3.9-4.69c-4.95-5.97-17.05-16.1-30.9-16.27h-.43c-5.8,0-10.58,1.4-13.74,2.31-.55.16-1.27.36-1.66.47-10.76,1.13-18.22,6.95-22.52,11.17-2.57-4.86-6.33-9.36-11.51-12.99-6.11-4.29-13.26-6.56-20.65-6.56-.53,0-1.06.01-1.59.04l1.43-4.78c4.87-16.16,2.51-34.04-6.16-46.68-7.28-10.64-18.33-17.04-31.11-18.04-.92-.07-1.86-.11-2.77-.11-6.9,0-19.97,2.21-29.83,16.96-8.71,13.03-15.21,24.7-12.94,46.18l.89,8.39.76,8.94.76,11.17c-7.54,2.77-16.44,8.54-22.35,21.15-.31.67-1.31,2.16-2.11,3.35-2.31,3.46-5.48,8.19-7.51,14.4-.34,1.02-.61,2.08-.84,3.19-7.54,2.04-14.51,6.07-20.16,11.71-7.36-6.6-16.49-10.22-25.97-10.22s-19.44,3.96-26.85,11.15c-4.29,4.17-7.36,8.59-9.56,13.07-2.88-2.31-5.97-4.35-9.34-6.19-.88-.48-2.06-1.22-3.3-2-5.51-3.47-13.83-8.7-25.09-9.6-1.02-.08-2.07-.12-3.13-.12-5.81,0-11.21,1.25-15.16,2.17-.65.14-1.29.3-1.92.43-9.97,2.18-18.82,7.57-27.03,16.47-3.68,1.8-8.05,4.51-11.79,9.23-.01-.82.01-1.7.07-2.68l.55-8.94,4.47-19.24c2.54-10.95-.28-20.78-2.13-27.28-.18-.63-.36-1.24-.52-1.84-5.27-19.15-23.39-33.6-42.16-33.6-7.29,0-14.39,2.13-20.55,6.17-7.77,5.1-12.48,11.87-15.88,17.93-4.06-16.49-16.88-28.95-34.01-31.57-2.11-.33-4.37-.49-6.71-.49-5.47,0-15.91.92-24.33,7.06-8.15,5.93-13.2,12.98-17.27,18.64-.58.82-1.17,1.64-1.77,2.46l-10.35,14.1c-3.53,4.8-7.92,10.77-10.88,18.76l-13.42,36.18c-2.05,5.51-3.68,11.28-5.12,18.17l-1.47,7c-1.22,5.8-1.96,8.56-2.55,10.77-1.88,6.98-2.29,10.05-3.41,25.22l-1.04,13.99-1.12,10.94-3.21,25.39-2.08,13.38c-1.46,9.39-1.51,15.53-1.54,20.96-.02,3.93-.05,7.33-.69,12.4-.39,3.19-.46,6-.52,8.25-.02,1.24-.05,2.3-.12,3.16l-1.37,16.39c-.57,6.75-1.11,11.35-2.36,16.34l-1.71,6.78-3.18,9.72c-5.25,16.06.37,31.09,3.76,40.1l1.96,5.24,4.09,3.84c.49.47.98.94,1.45,1.4,4.76,4.66,13.61,13.34,28.61,13.34h.06c11.63-.02,28.61-4.24,43.47-24.28,6.6-8.91,7.8-18.49,8.58-24.81.07-.55.13-1.11.2-1.64,1.3-9.77.39-18.29-.42-25.81-.12-1.17-.25-2.34-.37-3.52-.4-4.09-1.11-7.84-1.72-11.16-.58-3.15-1.13-6.11-1.23-8.29-.34-8.23-.31-16.06-.24-23.28.02-1.88.22-3.96.49-6.19,6.69,6.23,14.99,10.07,24.04,10.93,1.34.12,2.74.19,4.17.19,5.68,0,16.47-.99,25.03-7.58,5.71-4.4,9.44-9.41,12.17-13.17.39,3.7.53,7.57.51,13.05,0,1.75.05,3.35.11,4.77.04,1.29.1,2.9.05,3.55-.64,7.63.39,14.28,1.21,19.62.29,1.87.55,3.63.73,5.23.07.77.11,2.05.14,3.4.12,5.47.33,13.75,4.58,22.34l3.43,6.93c2.4,4.83,7.46,11.5,13.33,15.47,10.23,6.93,20.4,10.15,32.02,10.15,1.77,0,3.63-.07,5.52-.23,10.87-.86,18.32-6.34,22.76-9.62.45-.34.88-.65,1.31-.96,14.64-10.35,20.96-27.55,16.47-44.86-.2-.8-.31-1.31-.39-1.8,6.74,3.48,15.91,8.11,27.72,8.11,6.72,0,13.51-1.53,20.03-4.49.28-.11,1.05-.39,1.61-.59,2.39-.84,5.64-2,8.94-3.9,2.28-1.3,4.35-2.72,6.25-4.21,2.16,5.9,5.63,11.62,10.93,16.75,4.01,3.86,7.25,6.33,10.54,8.01,6,3.06,12.85,4.68,19.8,4.68,9.33,0,18.46-2.93,25.74-8.23,11.27-8.21,17.61-20.51,18.93-36.66,1.04.93,2.16,1.86,3.36,2.76,6.69,5.07,14.09,7.64,21.96,7.64,4.4,0,8.82-.81,13.51-2.45,3.51-1.23,6.75-2.82,9.68-4.7,2.76,4.7,6.72,9.48,12.63,13.45,8.24,5.52,17.85,8.44,27.76,8.44,12.98,0,25.33-4.98,34.8-14.01,12.59-12.03,16.99-29.29,12.29-47.11,12.83-2.01,24.96-8.24,35.48-18.3,2.51-2.39,5.11-5.04,7.68-8.33,7.95,5.93,16.67,8.82,27.66,9.27.42.01.86.02,1.29.02,3.52,0,7.23-.59,10.87-1.72-.05,2.13-.2,4.1-.39,6.33-.37,4.6-.83,10.34-.46,18.5,1.45,31.52,18.77,48.06,34.5,53.01,4.36,1.37,8.99,2.07,13.79,2.07,10.48,0,20.96-3.41,28.73-9.35,13.64-10.45,19.24-27.57,14.28-43.64-1.64-5.29-3.88-9.54-5.68-12.97-.47-.9-.95-1.8-1.4-2.71l-2.94-5.99c.39-.55.78-1.13,1.19-1.76,4.3,3.92,10.04,7.75,17.77,10.18,4.93,1.55,9.88,2.35,14.73,2.35,11.29,0,21.35-4.4,28.31-12.38,6.27-7.18,8.87-16.1,7.58-25.26,2.77,2.05,5.88,3.84,9.32,5.34,6.74,2.94,14.97,5.95,24.91,5.95.47,0,.94,0,1.41-.01,12.95-.37,23.67-3.83,32.74-10.57,5.87-4.35,9.85-9.15,13.04-12.99.39-.46.77-.93,1.16-1.39,2.13,3.56,4.31,6.34,6.72,8.64l4.56,4.36c4.95,4.75,13.91,10.41,28.36,10.41,1.96,0,4.04-.11,6.13-.31l9.65-.95c14.11-1.39,26.14-4.59,36.74-9.79,1.98-.96,3.76-1.82,5.4-2.62,10.54-5.06,17.5-8.4,29.91-19.06,8.01-6.89,14.27-15.75,17.63-24.94,6.16-16.88,1.42-35.04-12.38-47.41-2.04-1.83-4.35-3.33-6.83-4.48,6.42-7.8,12.87-17.98,14.88-34.65,1.76-14.58-.94-28.6-7.81-40.55l-5.19-9.04c-5.84-10.16-15.3-18.12-26.05-22.15l10.1-13.91,5.84-8.72c2.33-3.47,4.74-7.06,7.27-11.35,6.16-10.42,7.52-23.16,3.76-34.96-3.74-11.68-12.15-21.17-23.08-26.04-5.51-2.46-11.58-3.75-17.56-3.75h0Z"/>
  <g>
    <path class="cls-1" d="M913.74,228.14c-3.28.69-14.43,6.2-13.5,10.76,1.49,7.32,5.15,17.63,10.42,22.82,3.28,3.23,15.32-.92,19.06-2.43,2.99-2.75,6.11-4.54,9.39-6.77,10.04-6.83,16.31-18.97,28.9-24.61,2.74-1.23,6.7-2.17,8.72-.36,6.22,5.57,8.66,13.41,5.82,21.2-2.08,5.69-6.08,10.96-10.69,14.92-11.73,10.08-16.39,11.55-30.2,18.32-8.94,4.38-18.64,6.47-28.5,7.44l-9.65.95c-5.16.51-11.52.25-15.46-3.52l-4.55-4.36c-4.22-4.04-8.73-16.82-10.84-22.98-.79-2.3-1.9-4.17-3.83-4.99-1.88-.8-5.28-.72-7.01.96-6.41,6.2-12.95,11.97-18.78,18.66-3.77,4.33-6.83,8.68-11.49,12.14-5.65,4.2-12,5.62-19.05,5.82-5.81.17-10.86-1.69-15.98-3.93-6.74-2.95-10.4-7.5-11.28-14.96-.56-4.8-1.27-9.52-.81-14.38l1.34-14.04c.24-2.5.61-4.96,1-7.43l1.52-9.54,2.57-14.67c2.4-13.73,3.81-36.44.6-49.86-2.75-11.5-14.4.92-29.14-7.81-4.72-2.8-4.14-10.31-1.69-14.63,1.79-3.15,3.94-5.5,6.42-8.14,9.11-9.72,18.85-9.17,29.48-15.57,4.75-6.58,4.31-23.84,4.29-32.67,0-5.82-.8-11.62-1.2-17.55l-.88-12.95c-.64-9.42,2.66-17.58,11.89-21.43,5.08-2.12,11.39-2.17,17.07-1.85,7.57,3.73,10.37,11.13,9.27,18.89l-2.11,14.87c-1.86,13.1-5.93,13.27-7.9,32.73-.47,4.65-2.54,12,2.27,14.39,1.34.67,4.1.15,5.83-.35,10.9-3.14,12.11-6.26,21.99-10.31,9.08-3.72,14.14-5.34,23.23-3.85,6.41,1.06,11.19,8.11,9.95,14.51-.71,3.68-4.42,7.15-7.35,9-12.73,8.02-18.57,2.11-28.34,10.27-8.76,4-17.8,7.41-25.65,12.78-5.87,4.01-7.38,11.65-6.75,18.23,1.19,12.47,1.55,24.39-1.83,36.43-1.26,4.49-.21,9.48-.08,14.31.17,6.64-1.42,12.99-2.21,19.56l-.77,6.4c-.49,4.09-.93,7.88.49,11.88l4.22,2.98c2.25-.19,6.36-.34,8.08-1.5,6.36-4.27,10.58-9.89,15.11-15.68,4.68-5.97,15.92-12.82,20.45-23.22,2.14-4.92,3.57-9.98,5.11-15.21,2.82-9.55,2.24-19.95,4.69-24.21l10.98-19.1c2.72-4.73,4.78-10.17,9.11-13.58,2.54-2.01,5.4-3.76,7.74-5.92,8.29-7.66,17.89-12.12,29.18-13.42,5.86-.68,11.96-2.49,17.87-1.19,6.99,1.53,13.28,6.56,16.7,12.52l5.2,9.04c4.45,7.74,5.84,16.78,4.77,25.65-2.03,16.83-10.1,22.22-19.07,33.17l-13.3,16.25c-1.81,2.2-10.26,6.84-13.33,7.48l-17.49,3.65ZM903.62,208.36l9.09-3.77c5.74-2.38,13.61-9.21,17.94-14.16.7-.8,8.69-13,9.06-13.81,3.4-7.39,2.86-16.88-.62-23.97-2.72-5.54-7.37-7.74-12.91-5.41-6.1,2.56-10.69,9.12-13.71,14.92l-7.85,15.07c-4.72,9.05-3.83,14.75-4.24,25.2-.05,1.31-.11,3.18-.08,4.29.02.86,2.52,1.96,3.31,1.64Z"/>
    <path class="cls-1" d="M751.77,314.35c-4.44,5.1-11.94,4.68-17.62,2.89s-9.4-5-12.94-9.65c-8.9-11.68-3.51-16.86-8.6-26.7-.87-1.68-4.51-2.36-5.81-.73-2.69,3.36-5.68,6.96-7.42,10.79-1.48,3.27-3.14,6.32-4.15,9.76l-2.41,8.22c-3.5,11.95-15.15,15.89-8.76,28.92l5.17,10.54c1.97,4.01,4.32,7.8,5.68,12.2,1.97,6.36-.31,13.08-5.9,17.36-5.28,4.04-13.91,5.55-20.62,3.44-12.39-3.9-17.13-19.43-17.67-31.14-.7-15.24,2.08-18.9.3-36.78l-.92-9.2c-.75-7.53-2.15-15.05-3.93-22.4-1.25-5.19-2.59-10.33-2.87-15.61l-1.14-21.4c-.2-3.79,1.18-20.21,1.73-24.92l1.02-8.72c1.95-16.7-.59-27.62,2.61-47.52l1.01-6.25c.89-5.54,1.7-10.89,2.37-16.61.59-4.99.02-10.26.02-15.57,0-11.33-5.92-13.86-5.19-27.89l.97-18.64c.27-5.2,1.29-9.28,4.23-13.45l8.22-11.67c3.78-5.36,7.7-8.59,14.76-9.38,3.03-.34,5.57-.79,8.14,1.86,7.97,8.22,8.86,21.89,7.28,32.89l-3.05,21.21c-.3,2.06-1.64,4.94-2.03,7.17l-2.11,11.94c-.38,2.18-1.29,4.9-1.89,7.18l-1.84,6.98c-.71,2.69-1.14,5.29-1.55,8.16-2.2,15.42-4.99,30.59-4.12,46.31.47,8.41,2.95,15.47,1.2,24.17-1.96,9.79-2.74,19.09-2.2,29.08l1.41,26.1c.33,6.12.84,12.49,4.93,17.44,1.34.03,2.85-1.57,3.45-2.9l5.52-12.32c2.83-6.31,5.54-12.2,9.66-17.71l5.22-6.99c2.08-2.79,3.16-5.73,4-9.09,4.21-16.74-3.57-7.59,2.5-34.5l3.3-14.61,1.35-6.06c.81-3.67,2.47-7.31,3.84-10.94,2.71-7.14,7.93-13.23,15.95-14.2,4.93-.59,9.1.87,12.29,3.65,9.57,8.34,2.88,22.78-.13,31.45-.67,1.94-1.14,5.23-1.55,7.46-1.55,8.37-1.62,16.4-.88,24.83,1.46,16.69-5.98,39.69-4.82,44.22,2.15,8.38,4.87,15.87,6.16,24.62,2.79,6.01,14.27,15.31,7.81,22.72Z"/>
    <path class="cls-1" d="M924.72,109.5c-4.64,2.11-9.31,1.7-11.42-2.4-3.22-6.25-.67-11.91,1.21-18.03,1.29-4.2,2.44-13.68,3.78-19.69l3.17-14.29c1.59-7.18,4.81-13.66,8.9-20.02,2.88-4.47,7.82-8.07,12.99-10.14,3.73-1.49,8.75-.86,12.53.82,10.03,4.47,13.84,17.49,8.38,26.73-2.33,3.95-4.55,7.22-7.01,10.89l-5.12,7.64-7.54,10.39-6.87,9.47c-4.49,6.18-7.43,13.09-13,18.61Z"/>
    <path class="cls-1" d="M748.81,125.73c0,5.46-3.24,9.24-7.47,11.44-4.81,2.5-10.31.74-14.41-2.68-7.13-5.94-8.49-21.36-7.86-30.19l.85-11.85c.72-10.08,3.1-18.64,15.56-19.51,5.71-.4,11.27.22,14.55,5.32s1.26,9.53.38,14.66c-1.73,10.15-1.61,22.44-1.6,32.8Z"/>
    <path class="cls-1" d="M171.44,239.29l-4.83,14.72-5.68,21.08-2.03,9.17-2.9,12.43-2.38,10.12-3.23,14.66c-1.31,5.95-6.29,10.17-10.07,14.74-3.63,4.37-6.32,9.38-10.95,12.95-2.85,2.19-8.73,2.81-12.23,2.48-6.58-.62-11.48-5.11-14.45-10.58-1.49-2.75-3.42-5.62-4.5-8.26-3.35-8.21-4.44-16.48-3.97-25.1l1.35-24.61c.36-6.6-3.34-12.72-1.33-29.64l.97-8.11,1.34-8.93c.47-3.11.72-5.99,1.53-9.02.72-2.67-1.48-7.52-4.47-6.39-3.98,3.97-4.52,10.5-6.33,15.62l-3.87,10.99c-.99,2.82-5.41,17.78-5.64,19.66l-2.35,19.72-2.41,14.66c-.8,4.85-2.11,19.08-1.86,23.72,1.07,20.17-.78,10.65-2.24,21.56l-1.02,7.61c-.71,5.33-1.59,10.65-1.65,16.12-.08,8.24-.08,16.18.26,24.51.28,6.95,2.35,13.84,3.05,20.86.8,8.07,1.98,15.61.89,23.75-.69,5.17-1.05,10.96-4.26,15.29-6,8.08-13.7,14.52-24.15,14.54-6.04,0-9.27-4.16-13.55-8.19-2.71-7.23-6.05-16.11-3.42-24.15l3.44-10.52,1.91-7.59c1.75-6.96,2.42-13.08,3.01-20.22l1.37-16.38c.3-3.59.1-6.9.55-10.47,1.72-13.86-.11-18.31,2.12-32.6l2.14-13.73,3.28-26.03,1.17-11.55,1.06-14.32c1.67-22.59,1.49-13.63,5.52-32.82l1.47-7.01c1.07-5.08,2.31-9.85,4.13-14.74l13.43-36.18c1.84-4.97,4.92-9.09,7.97-13.23l10.1-13.74c4.14-5.64,7.86-11.56,13.79-15.88,3.08-2.24,9.44-2.81,13.22-2.23,10.24,1.57,15.44,11.02,14.88,20.68l-.7,11.99-1.97,18.01-.93,14.45c-.75,11.72.92,11.62,1.66,17.61.77,6.19-.67,12.54-.64,18.73l.12,21.34c.01,1.9.96,4.09,2.64,4.41,4.51.86,6.21-5.79,7.27-9.36l4.66-15.74c.88-2.96,6.11-14.12,6.81-16.63l2.37-8.45c3.42-12.2,12.67-38.92,18.43-49.71,3.34-6.25,6.28-13.49,12.15-17.34,10.34-6.78,23.37,3.19,26.25,13.67,1.48,5.37,3.71,11.71,2.41,17.28l-4.93,21.22-.67,10.96c-.66,10.87,1.56,15.41,1.5,23.59-.14,20.04,10.04,32.69,7.2,41.44l-4.59,14.15c-1.41,4.36.9,20.68,2.27,26.22l2.79,11.3,2.66,11.69c4.76,20.9.39,19.01,2.44,33.7.63,4.52,2.41,8.13,4.81,11.86l4.51,7.01c7.54,11.72,4.57,8.81,6.92,17.9,1.98,7.67-.82,14.75-7.06,19.16-3.59,2.54-7.3,5.86-12.06,6.23-8.64.68-14.82-.91-22.12-5.85-1.79-1.21-4.34-4.38-5.25-6.23l-3.44-6.93c-2.7-5.44-1.73-11.77-2.36-17.6-.75-6.98-2.47-13.36-1.89-20.27.28-3.3-.08-6.82-.07-10.24.02-5.73-.11-11.11-.76-16.85-.68-5.99,1.31-12,1.53-17.94l.54-14.75.35-31.06-.12-19.65c-.02-3.83.44-8.03.85-11.89l1.36-12.75,1.01-8.11c.37-3.01,2.19-14.25-2.34-15.27-1-.23-3.68.61-4.21,1.59-2.93,5.41-5.61,11.6-7.63,17.75Z"/>
    <path class="cls-1" d="M450.8,351.25c1.43,7.69-5.08,13.32-11.41,15.55-4.93,1.73-8.69,1.55-12.94-1.67-6.77-5.12-8.13-10.25-10.14-18.7-.68-2.85-1.53-5.7-1.54-8.54l-.04-8.43c-.04-8.27-.13-16.33-.64-24.7-.59-9.69-4.85-23.6-5.09-29.16l-.32-7.35c-.07-1.58-1.06-3.68-2.56-4.55-3.91,2.41-4.77,7.02-6.79,10.69-9.83,17.79-10.88,20.52-14.81,40.49l-1.24,6.31c-1.45,7.37-2.45,19.46-2.04,26.99.53,9.5,2.09,7.15,3.22,20.84.88,10.66.23,23-9.03,29.76-5.74,4.19-14.12,4.75-20.38,1.55-1.38-.71-3.6-2.76-4.77-3.89-10.48-10.12-6.38-27.36-3.39-40.19.61-2.62.19-6.19-.14-9.24-.26-2.37-3.36-4.59-5.42-3.17-4.04,2.77-6.83,6.83-10.2,10.12-4.73,4.6-9.22,8.89-13.52,13.91-3.93,4.59-7.87,9.39-13.25,12.48-2.4,1.37-5.93,2.27-8.41,3.4-13.48,6.12-21.8-.91-32.62-5.93l-15.59-7.24c-5.34-2.48-9.01-6.15-11.94-11.08-6.25-10.52-11.6-20.73-10.6-33.17.28-3.44.37-7.12,1.28-10.35,3.84-13.72-2.08-18.13,1.04-36.33.89-5.17,2.81-10.04,4.75-14.87,1.2-2.99,3.3-4.49,6.68-13.41,2.02-5.32,5.01-10.48,6.33-16.01,2.25-9.45,6.32-5.73,12.14-12.29,4.08-4.59,8.84-8.61,15.1-9.98,4.08-.89,9.12-2.33,13.15-2.01,7.23.58,12.86,5.51,18.76,8.73,5.86,3.2,9.85,6.96,14.11,12.69,5.08,11.86,9.69,30.67,4.55,43.57-3.23,8.12-9.16,14.51-15.08,20.6-4.03,5.89-9.29,10.12-14.69,14.74l-6.08,5.2c-4.57,3.91-9.06,8.25-14.5,10.93-3.45,1.7-7.79,1.82-11.25,3.11-5.35,2-5.39,9.36-1.92,13.45,3.88,4.58,9.36,7.28,14.88,9.45,6.57-.12,11.82-2.31,17.1-5.67,3.18-2.03,6.69-3.77,9.63-5.95,5.2-3.85,9.06-8.39,13.34-13.14l11.37-12.62c4.06-4.51,8.7-8.55,12.43-13.2,3.01-3.75,1.53-9.31,2.1-13.6.94-7.14,2.01-13.87,3.36-20.83.42-2.16.77-4.11.87-6.33l.58-13.09c.6-13.54-5.13-28.83,6.42-40.05,5.98-5.81,14.37-5.93,20.72.46.58,3.08,2.28,7.41,1.92,10.43-.88,7.55-2.1,14.58-3.4,21.94l-1.77,9.99c-.49,2.77-.08,6.33-.39,9.2l-1.04,9.35c-.13,1.19,2.58,3.78,3.29,2.93,1.81-2.19,3.06-4.75,4.1-7.24,3.98-9.58,11.43-21.91,13.19-26.86l2.88-8.08c2.68-7.54,6.51-13.95,11.17-20.46,5.78-8.08,16.15-11.55,25.51-6.98,1.84,2.07,4.83,5.31,6.25,7.61,4.91,8.95,4.82,29.51,6.12,34.51,1.75,6.75,3.47,12.97,3.17,19.87-.32,7.3.36,14.31.43,21.64.06,6.17-1.83,12.3-2.04,18.49l-.44,12.78c-.11,3.21.34,4.83,1.86,7.76,4.62,8.89,5.82,15.02,7.64,24.84ZM274.96,294.66c3.56-3.04,6.34-7.18,9.66-10.45,6.14-6.03,10.03-14.11,9.9-22.69l-.14-9.63c-.06-4.37-2.44-11.44-7.89-12.9-1.53-.41-5.05-1.01-6.14.1-2.75,2.78-4.24,5.93-5.63,9.26-3.22,4.44-5.61,8.96-8.01,13.87l-6.78,13.92c-3.03,6.21-4.29,21.68,2.03,24.06,2.27.85,6.74-.19,8.44-1.64l4.55-3.89Z"/>
    <path class="cls-1" d="M515.59,375.28c-9.01,8.61-22.45,9.71-32.5,2.98-6.62-4.43-7.67-11.33-9.66-17.67-7.66-24.46-6.06-33.14-9.36-56.34-2.1-14.74-2.82-21.77-1.48-36.88.35-3.89.3-7.68.37-11.61l.19-10.4-.96-16.47c-.51-8.79-.42-17.41-2.6-25.65-6.68-9.78-16.31-1.25-25.92-9.88-2.09-1.87-3.09-6.88-2.09-9.93,1.76-5.38,6.01-9.65,8.52-15,6.77-14.43,18.45-6.98,24.67-13.79,4.55-4.98.5-10.45.08-16.76l-.93-13.84-.8-9.4-.91-8.63c-1.43-13.57,1.69-19.32,9-30.25,2.43-3.63,5.57-6.61,10.7-6.21,15.33,1.19,20.38,19.39,16.06,33.76l-3.24,10.79c-1.15,3.82-2.76,8.02-3.28,11.77l-1.46,10.6c-.39,2.87,0,7,1.31,9.52,1.54,2.98,5.74,2.99,8.34,1.76l15.09-7.1c4.72-2.22,9.36-2.14,13.28.61,7.19,5.05,6.12,14.92,5.13,16.63-5.54,9.52-12.17,8.65-22.36,8.66-4.42,0-6.54,2.31-9.49,4.55-9.39,7.12-14.92,17.93-12.19,29.74,2.58,11.17-1.38,22.73-1.66,28.28-.58,11.74-.88,23.14-.64,35.08.3,15.11,2.8,29.61,8.96,43.29l3.49,7.75c1.25,2.76,3.07,5.92,4.75,8.36l3.79,5.48c6.16,8.91,8.15,8.17,12.25,18.99,3.5,9.26,3.28,19.83-4.46,27.22Z"/>
    <path class="cls-1" d="M599.94,297.9c-4.86-4.33.97-21.49-7.35-22.75-5.4-.81-9.02,5.61-12.24,10.82l-4.33,6.99-5.53,8.61c-2.07,3.22-4.33,5.61-7.15,8.31-9.18,8.78-20.96,14.05-33.95,11.81-9.31-3.47-15.63-10.83-17.79-20.65-1.91-8.65.5-16.69,2.86-24.66l6.5-21.96c1.89-6.4,3.76-12.45,6.88-18.36,4.01-7.61,3.36-14.72,8.93-28.02l5.11-12.2c2.02-4.83,5.06-9.31,7.52-14.04l5.29-10.17c2.15-4.14,5.29-8.57,8.4-12.02l5.2-5.77c2.71-3.01,6-6.12,10.3-6.51,4.26-.39,8.51-2.68,12.86-2.63,4.03.05,10.21,4.63,12.66,7.58l4.61,5.54c.84,1.02,1.79,3.1,2.56,4.48,2.79,4.96,4.66,9.98,4.44,15.97-.46,12.5-2.76,9.98-4.04,18.48-.78,5.15.16,9.31,1.47,14.3l2.77,10.5,1.86,7.03c.82,3.11,2.06,6.68,2.42,9.8l1.27,10.91.66,7.9.86,14.37c.62,10.38,7.98,17.61,6.19,24.65-1.13,4.43-8.43,8.15-12.86,7.97-7.12-.29-11.58-1.98-16.37-6.25ZM566.74,265.88c2.26-4.39,3.14-9.54,4.81-14.13,1.57-4.31,2.99-8.36,4.33-12.79,1.84-6.09,5-12.22,4.98-18.66l-.06-20.35c0-2.52-.39-5.2-1.26-7.55-7.27-2.8-13,12.24-15.67,17.59l-4.21,8.45c-3,6.02-10.93,26.87-12.29,33.71-.95,4.77-2.86,26.56.67,28.51,4.75,2.63,15.56-8.67,18.7-14.77Z"/>
  </g>
</svg>