<?xml version="1.0" encoding="UTF-8"?>
<svg id="Layer_1" data-name="Layer 1" xmlns="http://www.w3.org/2000/svg" viewBox="0 0 1030.49 252.56">
  <defs>
    <style>
      .cls-1 {
        fill: #fff;
      }
    </style>
  </defs>
  <path class="cls-1" d="M192.37,145.79l53.47,41.99-23.14,29.74-54.45-41.37,19.14,65.39-36.04,10.9-20.55-66.13-21.61,66.25-35.85-11.39,20-65-54.06,41.3-23.42-29.61,54.3-42.28L0,145.28v-38.25s69.04-.32,69.04-.32l-52.98-41.48,23.03-29.73,55.14,42.01L74.77,11.04,110.93.13l20.05,66.2-36.43,10.54-24.24,31.46.22,36.74,23.24,29.6c11.73,4.68,24.56,8.03,36.61,12.09l37.51-11.72c7.46-9.04,15.44-19.37,22.48-28.91l.18-39.46-21.29-28.64-37.5-12.16L152.65,0l36.02,11.44-20.41,66.13,56.05-41.46,22.67,30.12-53.35,40.31,67.35.45.02,38.3-68.61.49Z"/>
  <g>
    <path class="cls-1" d="M707.96,144.68l27.35.52-13.1,69.38-35.7.13-6.74-38.11-6.89,38.01-35.82.08-13.15-69.69,27.21.07,5.63,46.68,9.32-46.8h26.95c3.2,14.53,4.7,27.85,9.36,43.27,3.12-15.71,4.2-30.1,5.58-43.53Z"/>
    <path class="cls-1" d="M617.72,145.01l-.1,69.66-25.84-.1-1.38-8.11c-9.93,10.34-25.62,13.11-37.64,5.02-5.41-3.64-8.44-12.18-8.45-18.74l-.11-47.72,26.23.02.23,40.34c.01,2,2.03,5.95,3.44,7.16,1.61,1.38,5.94,1.94,8.64,1.2,4.47-1.23,8.22-6.72,8.27-11.47l.4-37.21,26.31-.05Z"/>
    <rect class="cls-1" x="743.19" y="112.08" width="26.86" height="103.61"/>
    <g>
      <path class="cls-1" d="M408.93,214.55h-40.79s-19.97-64.05-19.97-64.05c-2.52,22.74-.55,42.49-1.4,64.09h-25.71s.05-96.68.05-96.68l40.42.14,20.62,66.54,1.1-66.55,25.61-.02.07,96.54Z"/>
      <rect class="cls-1" x="420.85" y="144.06" width="26.24" height="70.72"/>
      <path class="cls-1" d="M445.07,132.99c-5.41,4.51-12.45,4.78-18.58,2.4-3.47-1.35-6.38-4.82-7.02-8.15-.68-3.57.94-8.45,4.27-10.58,6.68-4.27,15.17-4.08,21.29.78,4.54,3.61,4.87,11.53.04,15.55Z"/>
    </g>
    <g>
      <path class="cls-1" d="M1002.4,209.02c-8.1,6.47-17.17,9.02-27.83,6.15-22.3-5.99-28.49-31.64-21.52-50.84,3.51-9.66,11.81-16.4,19.76-19,11.45-3.74,20.76-1.55,30.97,5.97l.2-38.86,26.5-.08v102.2s-25.52.14-25.52.14l-2.56-5.68ZM1003.93,177.87c-.48-8.88-6.93-13.37-14.46-12.67-7.45.69-11.92,6.67-11.82,14.7.1,8.62,6.32,14.49,14.1,14.01,8.21-.51,12.68-6.97,12.18-16.04Z"/>
      <path class="cls-1" d="M893.41,176.66l-.32,37.79-26.42.26v-69.72s26.2,0,26.2,0l1.49,8.45c10.2-9.79,24.34-13.38,36.85-6.4,6.41,3.58,10.1,12.43,10.14,19.95l.26,47.57-26.4.1-.13-37.36c-.02-7.04-3.49-11.9-10.12-11.95-5.71-.05-11.48,3.52-11.55,11.29Z"/>
      <path class="cls-1" d="M791.43,213.3c-7.59-3.21-11.66-9.94-11.75-17.44-.1-7.93,4.36-14.64,12.32-18.26,14.87-6.76,22.71-2.85,35.71-7.81-.42-6.12-6.14-6.64-10.29-6.87-5.47-.29-9.83,1.55-11.09,7.48l-25.4-.11c-.64-9.61,4.97-17.65,13.85-21.87,22.06-10.47,59.32-4.05,59.42,21.09l.13,33.46c.01,3.5,2.12,7.8,3.84,11.63l-24.69.05-4.94-5.95c-10.97,7.89-24.75,9.79-37.11,4.57ZM809.95,196.98c8.63,1.2,15.63-1.54,16.95-10.09l-17.22,2.43c-1.25.18-3.5,2.87-3.46,4.03.05,1.16,2.49,3.47,3.72,3.64Z"/>
    </g>
    <path class="cls-1" d="M496.51,197.53c8.42.03,9.79-7.85,37.13-4.73-4.26,22.74-35.7,26.6-54.04,21.33-15.64-4.49-24.99-18.11-24.93-34.28.06-14.58,7.6-27.39,21.4-32.77,13.2-5.15,28.6-5,41.16,1.88,13.48,7.38,18.83,22.02,16.99,37.94l-52.2.24c1.59,7.4,7.29,10.37,14.5,10.39ZM507.58,171.28c-1.67-8.42-7.6-8.82-13.12-8.91-4.93-.08-9.93,1.81-12.15,8.69l25.27.22Z"/>
  </g>
  <g>
    <path class="cls-1" d="M342.95,62.41c3.77,2.76,6.3,6.67,5.61,11.71-.6,4.42-4.51,8.68-10,8.75l-15.27.18v-39.24s17.71.45,17.71.45c3.3.08,6.52,4.69,6.76,7.28.33,3.64-1.38,7.5-4.82,10.87ZM337.79,60.21c2.14-.06,4.98-3.42,5.41-5.22.43-1.8-1.49-6.41-3.64-6.56l-11.59-.76-.04,12.81,9.86-.27ZM340.18,78.14c1.74-.25,4.02-4.63,3.93-6.39-.09-1.76-2.06-5.51-3.85-6.09-3.71-1.22-8.83-1.28-12.43-.57l.17,14.09c4.64-.24,7.68-.38,12.18-1.04Z"/>
    <path class="cls-1" d="M544.65,82.8l-.54-19.52c-.07-2.43-5.17-4.84-7.36-4.66-13.28,1.13-4.86,18.7-9.18,24.64-.45.62-3.33-1.05-3.33-1.99l.06-38.54c0-1.2,4.35-1.55,4.39-.35l.42,13.89c5.59-1.42,10.29-2.59,15.02-.45,3.12,1.41,5.04,6.91,5.01,11.32l-.14,15.85-4.37-.19Z"/>
    <path class="cls-1" d="M360.31,82.62c-3.28-1.06-5.44-5.19-5.26-8.16.58-9.91,15.03-7.12,21.65-10.58-1.7-4.06-4.74-5.53-7.68-5.45-2.99.08-6.57,1.57-8.2,3.5l-1.99,2.36c-.44.52-2.76.07-2.76-.61,0-.68.35-3.2.76-3.84,4.36-6.92,18.89-8.23,23.33.48l1.42,23.35-6.66-2.2c-4.66,1.77-9.69,2.75-14.61,1.16ZM376.13,68.8l-13.84,2.12c-1.54.24-3.22,4.95-2.18,6.03,3.62,3.74,10.23,2.8,13.72.26,1.75-1.27,2.26-4.36,2.3-8.41Z"/>
    <path class="cls-1" d="M619.73,68.93c0,8.07-6.54,14.62-14.62,14.62s-14.62-6.54-14.62-14.62,6.54-14.62,14.62-14.62,14.62,6.54,14.62,14.62ZM615.32,68.94c0-5.64-4.57-10.21-10.21-10.21s-10.21,4.57-10.21,10.21,4.57,10.21,10.21,10.21,10.21-4.57,10.21-10.21Z"/>
    <path class="cls-1" d="M584.87,68.92c0,8.07-6.55,14.62-14.62,14.62s-14.62-6.55-14.62-14.62,6.55-14.62,14.62-14.62,14.62,6.55,14.62,14.62ZM580.45,68.93c0-5.63-4.56-10.19-10.19-10.19s-10.19,4.56-10.19,10.19,4.56,10.19,10.19,10.19,10.19-4.56,10.19-10.19Z"/>
    <path class="cls-1" d="M449.82,81.86c-5.91,3.12-14.78,1.97-18.34-2.43-.68-.85-1.02-3.66-.92-4.53.47-4.08,5.11,3.82,10.2,4.56,2.78.4,9.31-.54,8.3-4.68-1.31-5.39-12.03-2.15-17.49-8.6-1.32-1.56-1.02-6.52.52-8.08,5.55-5.64,15.49-4.7,19.99.49.66.76,1.17,3.18,1.11,4.05-.25,4.22-6.13-4.04-11.29-4.33-2.86-.16-7.52,1.71-6.64,5.52,4.17,4.18,17.04,2.45,18.54,9.55.62,2.94-1.14,6.98-3.98,8.48Z"/>
    <path class="cls-1" d="M406.48,82.09c-3.35,1.23-7.55,1.57-10.91,1.18-5.66-.67-8.68-4.7-8.72-9.59,3.41,1.14,4.86,1.78,6.25,3.38,3.25,3.72,12.44,3.78,13.37-2.39-2.84-5.4-14.32-2.49-18.13-8.95-1.1-1.85-.34-6.57,1.07-7.96,5.64-5.54,16.05-3.86,19.84.96.55.7.93,3.27.93,4.02,0,4.71-4.94-3.51-10.61-4.4-2.7-.43-8.41,1.67-7,5.04,2.23,5,16.32,2.07,18.35,10.28.71,2.87-1.3,7.3-4.43,8.44Z"/>
    <path class="cls-1" d="M478.17,82.47c-6.61,2.12-13.78,1.38-17.26-3.65-.63-.92-1.25-3.81-.3-4.12,5.88-1.95,2.42,4.49,10.73,4.85,2.94.13,7.98-1.09,7.74-4.64-1.57-5.66-13.99-2.55-17.95-9.17-1.1-1.83-.36-6.8,1.12-8.11,5.51-4.89,15.2-4.23,19.43.73.55.64,1.34,2.52,1.52,3.18.19.66-1.04,2.19-1.68,1.93-6.19-2.52-2.55-4.43-9.96-5.2-2.59-.27-7.44,2.51-6.42,5.07,2.99,5.18,17.66,2.07,18.68,11.23.34,3.05-2.21,6.78-5.65,7.89Z"/>
    <path class="cls-1" d="M494.39,67.88c-.36,5.19,2.41,9.41,5.62,10.62,12.75,4.82,11.81-9.84,16.86-4.93.56.55-.23,2.63-.69,3.48-3.47,6.45-11.07,7.71-17.82,5.33-5.8-2.04-9.18-8.44-8.58-15.13.6-6.71,5.32-12.14,12.83-12.79,8.03-.69,14.54,3.96,14.9,11.51-8.09.25-3.91-9.74-16.66-6.93-2.76.61-6.13,4.2-6.45,8.83Z"/>
    <rect class="cls-1" x="626.79" y="41.73" width="5.12" height="42.21"/>
    <path class="cls-1" d="M422.92,83.59l-3.53-.67c-.63-.12-1.18-1.9-1.17-2.78l.18-24.08c.01-1.36,4.31-1.22,4.32.17l.19,27.36Z"/>
  </g>
</svg>