<?xml version="1.0" encoding="UTF-8"?>
<svg id="Layer_1" data-name="Layer 1" xmlns="http://www.w3.org/2000/svg" viewBox="0 0 1166.43 436.14">
  <defs>
    <style>
      .cls-1 {
        fill: #fff;
      }
    </style>
  </defs>
  <path class="cls-1" d="M1062.95,7.5c-9.44,9.8-21.73,35.44-27.78,57.7-4.1,15.31-4.81,21.37-4.99,45.6l-.18,27.96-5.17,5.7c-9.62,10.15-31.52,26.71-43.45,32.77-19.95,9.97-44.7,15.31-54.31,11.57-6.05-2.13-14.78-9.44-21.55-17.28l-4.63-5.7,5.17-6.76c10.68-13.36,11.57-27.42,2.85-40.79-9.09-14.06-15.67-14.24-23.33-1.07-6.59,11.04-6.94,27.42-.89,39.36,2.13,4.45,3.38,8.55,2.67,9.09-17.98,15.49-47.73,35.97-60.73,41.68-11.57,5.17-15.85,3.03-23.51-12.11l-6.05-12.29,3.03-17.64c3.92-23.51,1.79-28.32-10.5-21.9-6.41,3.38-11.22,3.38-28.32,0-9.62-1.79-14.78-1.96-17.1-.71-1.96.89-6.59,7.84-10.33,15.49-15.14,30.09-31.16,44.88-48.98,44.88-12.65,0-18.88-15.85-18.88-48.26,0-13.72,3.92-54.67,6.41-66.25l1.07-4.81,126.62-.36c115.76-.36,120.93-.36,60.02-1.61-36.69-.54-93.67-1.25-126.62-1.43l-59.84-.18,1.43-7.66c.89-4.1,3.03-14.78,4.81-23.51,3.74-17.46,3.56-20.48-1.61-20.48-3.2,0-4.99,4.27-7.84,19.59-.54,3.38-2.85,12.11-4.99,19.41l-3.74,13.18-87.26-1.25c-65.71-.89-258.41-1.61-278.53-1.07-1.43,0-2.13,1.61-1.79,3.92l.54,4.1,182.18-.71,182.36-.71-5.7,11.4c-21.73,42.92-65.89,84.77-112.73,106.67-20.3,9.62-23.69,9.26-30.45-3.38-2.85-5.35-7.84-16.92-10.86-25.83-8.55-23.69-13.54-25.11-15.67-4.63-3.03,28.5-18.7,45.76-35.44,39.36-8.91-3.38-22.08-26.89-25.47-45.24-.89-4.81-2.31-6.76-5.17-7.48-1.96-.36-23.51-1.07-47.91-1.43-35.08-.54-44.52-.18-45.94,1.79-3.56,4.1,1.43,7.66,10.68,7.66,6.41,0,9.44.89,12.29,4.1,8.55,9.09,9.97,22.97,3.2,30.99-5.17,6.05-17.46,12.11-21.55,10.5-3.56-1.25-11.22-17.64-12.65-27.25-1.43-9.8-4.27-11.93-13.9-10.86-10.5,1.25-26.89,9.09-50.93,24.58-22.79,14.6-29.57,17.81-37.93,17.81-9.26,0-11.04-3.38-10.15-20.3,1.25-23.51.18-36.87-3.03-43.45-6.05-11.93-16.39-10.68-32.24,4.1-5.88,5.35-11.04,9.8-11.4,9.8-.54,0,.54-6.59,2.31-14.78,6.76-30.63,4.1-31.88-20.3-9.97-9.97,9.09-42.92,37.22-73.2,62.86C-8.97,264.48-1.49,257.36,2.07,261.1c2.85,2.85,3.38,2.85,6.23.54,1.79-1.61,22.79-19.23,46.84-39.36,24.04-20.12,55.21-46.66,69.46-58.95,14.24-12.29,26-22.08,26.18-21.9.71.71-10.15,45.6-19.95,82.1-21.73,81.21-50.4,174.71-60.91,198.39-3.74,8.73-3.92,9.97-1.43,12.47,2.31,2.31,3.03,2.31,5.17.18,7.66-8.19,45.24-128.94,70.7-226.53,4.27-16.56,8.55-29.91,9.44-29.91s7.48-5.52,14.6-12.47c12.29-11.57,20.66-16.39,23.51-13.36.71.71,1.25,13.36,1.25,28.14,0,31.16,1.61,36.87,11.04,41.32,10.33,4.99,22.61.71,50.93-17.81,17.81-11.57,37.58-21.73,44.88-23.33,5.35-1.07,5.52-.89,9.44,12.82,4.81,15.85,12.65,25.65,21.02,25.65,6.94,0,18.52-6.05,25.65-13.36,7.84-8.19,9.44-21.02,3.74-33.83l-3.74-8.55,8.19,1.25c4.63.54,17.64,1.07,29.03,1.07h20.84l2.13,8.19c6.05,22.44,20.66,42.02,32.95,44.35,3.56.71,9.62.71,13.36,0,8.73-1.61,21.73-14.96,25.11-25.83,1.43-4.45,3.03-8.55,3.56-9.26.71-.71,3.38,4.27,6.23,11.04,6.94,17.1,14.6,25.65,22.79,25.47,12.65-.36,45.42-17.28,71.77-37.05,18.34-13.9,44.88-42.02,57.7-61.45,8.01-12.11,11.04-15.31,10.15-11.57-.54,2.85-1.61,17.81-2.13,33.13-2.13,49.86,5.52,69.28,27.42,69.28,20.12,0,37.4-14.06,53.61-43.45l9.62-17.46,9.09,1.43c4.99.89,14.96,1.61,22.08,1.61,8.67,0,12.71,1.48,12.11,4.45-.54,2.49-1.43,9.26-2.13,15.14-1.43,13.54,3.74,28.14,13.36,38.46,5.52,5.7,8.01,6.94,13.54,6.94,10.15,0,29.21-10.15,54.67-29.39l22.44-16.92,11.75,11.57c13.54,13.18,21.02,16.21,37.58,14.42,27.6-2.85,60.55-20.12,83.52-43.63l7.12-7.12,5.35,14.6c10.68,27.96,32.95,54.49,51.65,61.62,12.65,4.63,21.37,4.81,33.83,0,27.78-10.33,42.02-37.4,42.02-79.96,0-24.58-.89-28.85-5.88-28.14-3.2.54-3.56,2.13-3.74,28.14-.36,23.86-.89,29.03-4.27,37.58-10.68,27.07-31.7,40.79-54.14,35.44-8.19-1.96-11.22-4.1-23.69-16.74-15.49-15.67-25.29-31.7-30.45-50.22l-3.03-10.86,8.73-10.5c40.61-49.86,56.99-106.85,35.8-124.67-7.84-6.59-14.06-5.7-22.79,3.2h-.02ZM1083.07,16.04c6.41,12.47,2.49,34.19-11.04,61.45-11.57,23.51-30.45,50.04-32.77,45.94-2.13-3.92,0-35.26,3.56-51.11,5.35-23.33,16.21-46.84,27.07-58.59,5.88-6.23,9.26-5.52,13.18,2.31ZM905.7,132.69c.89,4.81.18,8.37-3.2,14.6-2.31,4.63-4.99,8.55-6.05,8.91-3.03,1.07-6.76-9.97-6.76-20.12,0-5.88,1.07-10.86,3.2-14.06l3.38-5.17,4.1,4.81c2.31,2.67,4.63,7.66,5.35,11.04h0Z"/>
</svg>