<?xml version="1.0" encoding="UTF-8"?>
<svg id="Layer_1" data-name="Layer 1" xmlns="http://www.w3.org/2000/svg" viewBox="0 0 1025.81 582.7">
  <defs>
    <style>
      .cls-1 {
        fill: #fff;
      }
    </style>
  </defs>
  <g>
    <path class="cls-1" d="M582.94,232.55c-18.37-36.48-66.34-44.28-98.28-23.12-16.82,11.14-24.2,29.25-26.9,49.07l-.66,85.51c-.33,43.49-37.78,77.35-81.59,77.58l.24-214.31c.05-43.4,36.67-76.93,78.9-77.35l.7,30.57c33.85-38.15,89.51-44.38,133.52-30.6,53.56,16.76,81.85,65.52,83.38,120.15l-.29,91.35c-.14,44.67-36.93,79.86-81.72,80.16l-.07-153.41c0-12.77-3.04-23.93-7.23-35.6Z"/>
    <g>
      <path class="cls-1" d="M79.93,346.51c-.33,42.69-37.29,75.15-79.93,75.44l.17-210.52c.03-42.65,36.04-76.01,77.68-76.17l.56,32.15c17.54-28.07,46.17-38.33,78.52-36.7l-.02,86.34c-44.89-.45-73.85,23.25-76.51,68.49l-.47,60.97Z"/>
      <g>
        <path class="cls-1" d="M307.42,341.84c-.1,44.91-37.4,79.42-81.43,79.7l-.63-204.52c-.15-47.53,33.84-86.83,82.56-87.08l-.49,211.9Z"/>
        <path class="cls-1" d="M216.72,123.21l7.08-40.46c5.28-21.08,11.73-49.81,24.07-67.15,12.92-18.16,38.78-20.4,55.4-7.06,16.85,13.52,19.72,38.1,5.42,55.48-7.13,8.66-18.17,11.48-28.96,13.99-26.38,6.15-45.33,22.93-63.01,45.2Z"/>
      </g>
    </g>
  </g>
  <path class="cls-1" d="M717.48,413.92l29.29.1c27.96.09,48.93,15.9,61.89,39.05,17.9,31.98,57.07,44.93,90.2,30.25,31.02-13.74,47.79-45.91,44.59-79.12-56.07,29.28-123.9,22.54-172.1-17.63-34.25-28.55-53.87-69.8-53.95-113.65-.07-44.29,19.9-85.78,54.56-114.42,55.64-45.96,136.46-47.08,193.78-2.53,15.81-16.7,36.81-25.85,59.74-26.01l.34,187.82-1.83,95.78c-1.73,90.27-76.89,155.35-162.15,150.68-78.74-4.32-144.95-68.67-144.35-150.31ZM943.71,273.97c0-40.48-32.81-73.29-73.29-73.29s-73.29,32.81-73.29,73.29,32.81,73.29,73.29,73.29,73.29-32.81,73.29-73.29Z"/>
  <g>
    <path class="cls-1" d="M382.74,536.56l.07,26.53h-10.54s-.18-26.41-.18-26.41c-.05-6.5-3.61-11.26-9.54-12.14-4.83-.72-12.24,1.76-12.34,8.46l-.45,29.05c-1.91,1.74-8.15,1.72-10.5.06,1.41-19.81-6.99-43.85,16.88-47.12,8.44-1.16,15.5,1.31,21.42,8.1,6-7.45,14.63-9.66,23.57-7.69,8.4,1.85,14.26,8.22,14.25,17.12l-.05,29.93c-2.64.6-6.93.78-10.25.62l-.55-30.37c-.12-6.36-7.82-9.01-12.47-8.19-5.83,1.02-9.32,5.68-9.31,12.05Z"/>
    <path class="cls-1" d="M163.68,536.65l-.03,26.44-10.8-.03v-26.46c0-6.27-3.51-11.1-9.17-12.06-4.59-.77-12.56,1.63-12.66,7.92l-.49,30.62-10.35-.09.37-33.28c.08-7.52,7.43-12.77,13.93-14.27,9.24-2.12,17.8.14,24.02,7.74,5.35-6.77,12.32-9.12,20.58-8.3,8.41.84,17.02,7.01,17.06,16.2l.16,31.97-10.42.03-.66-31.25c-.13-5.94-8.13-7.91-11.99-7.36-6.22.89-9.54,5.64-9.54,12.17Z"/>
    <path class="cls-1" d="M44.65,562.26c-14.82,5.75-30.76,3.28-44.28-4.65l4.78-8.77c9.78,6.6,39.58,10.92,39.2-3.14-.07-2.65-3.38-6.6-6.3-7.25l-22.6-5.03c-7.94-1.77-13.64-8.52-13.99-15.4-.42-8.22,3.95-15.79,12.32-18.51,12.55-4.08,36.57-2.08,38.67,6.37.51,2.06-1.59,6.37-3.26,7.4-8.69-7.62-35.79-11.07-36.27,1.92-.15,4.1,2.86,7.6,7.23,8.52l20.77,4.38c8.3,1.75,14.18,7.72,14.88,15.27.68,7.33-2.78,15.64-11.14,18.88Z"/>
    <path class="cls-1" d="M612.07,539.73c0,14.06-11.4,25.46-25.46,25.46s-25.46-11.4-25.46-25.46,11.4-25.46,25.46-25.46,25.46,11.4,25.46,25.46ZM601.69,539.71c0-8.31-6.74-15.05-15.05-15.05s-15.05,6.74-15.05,15.05,6.74,15.05,15.05,15.05,15.05-6.74,15.05-15.05Z"/>
    <path class="cls-1" d="M108.82,563.27c-13.32,1.53-43.2,5.46-44.62-12.05-.53-6.57,1.75-13.5,9.03-15.53,7.96-2.22,16.17-1.79,24.6-1.6.57-2.75-1.24-7.1-4.13-8.5-7.23-3.5-15.31-1.92-22.31.83-1.34-.55-3.29-3.86-2.83-5.32,2.61-8.37,19.45-6.87,27.03-4.8,6.34,1.73,12.98,7.77,13.03,14.82l.22,32.15ZM98.16,556.77l.12-14.84c-5.8-.26-10.67-.38-16.87-.24-3.88.09-6.51,4.66-6.4,8.19.09,2.91,3.56,7.08,7.2,7.05l15.95-.15Z"/>
    <path class="cls-1" d="M216.62,545.21c4.96,17.99,25.81,7.1,28.89,8.77,1.55.84,3.2,5.37,1.94,6.61-8.55,4.53-21.4,6.08-30.48.97-12.57-7.07-15.46-23.55-7.87-35.67,7.08-11.3,24.08-15.08,35.86-6.62,3.31,2.38,5.48,6.66,5.81,10.28,1.43,15.91-20.34,15.42-34.15,15.65ZM240.32,530.42c-.15-1.57-1.9-4.94-3.33-5.73-4.66-2.55-10.59-2.14-15.08.95-3.19,2.2-5.28,6.43-5.97,11.53,5.75.74,25.14,1.46,24.38-6.75Z"/>
    <path class="cls-1" d="M436.61,545.34c1.76,11.97,17.33,12.34,27.14,7.8,1.49,1.14,3.66,4.58,4.47,6.78-9.84,5.45-21.64,6.97-31.41,1.57-13.24-7.32-15.8-24.35-7.74-35.94,8.32-11.95,26.2-15.02,37.39-4.71,2.79,2.57,4.08,7.54,3.95,10.99-.53,14.23-22.8,12.82-33.81,13.51ZM460.07,530.34c-.04-1.72-1.86-5.11-3.64-5.9-4.67-2.07-10.19-1.89-14.68,1.13-3.19,2.15-5.43,6.82-5.88,11.73,6.13.32,24.4,1.72,24.19-6.96Z"/>
    <path class="cls-1" d="M294.1,534.48c-.09-7.54-7.41-10.38-13-10.11-5.59.27-11.17,4.43-11.23,11.17l-.25,27.57-10.28-.05c.09-11.62-.48-21.91.71-33,1.2-11.22,14.34-15.89,24.12-15.28,12.09.75,20.87,8.72,20.86,20.61l-.02,27.67-10.58.02-.34-28.59Z"/>
    <path class="cls-1" d="M666.73,517.68c.97,11.38,1.15,21.33.1,31.35-1.15,10.93-12.36,15.76-22.32,15.71-10.26-.04-21.52-5.79-22.26-16.97-.62-9.29-.45-18.21-.46-27.93,0-3.69,9.53-5.24,9.88-2.22,2.33,19.75-3.74,36.77,12.24,37.54,4.87.23,12.49-2.17,12.67-8.78l.79-27.51c.08-2.73,9.12-3.95,9.36-1.2Z"/>
    <path class="cls-1" d="M489.92,526.5c.08,8.74-.52,17.14.87,24.4,1.18,6.14,10.53,4.1,14.57,2.65,1.95-.7,6.01,4.89,4.64,6.5-3.26,3.43-10.05,4.69-14.94,4.7-9.28.03-15.83-6.43-15.75-15.59l.4-43.95c.18-2.59,9.87-3.16,9.95-.55l.34,11.09,16.87.98c2.37.14,3.07,8.91.58,9.02l-17.53.75Z"/>
    <path class="cls-1" d="M522.46,580.68l3.1-7.86c4.17,1.8,14.08,2.45,14.22-3.29l1.18-50.47c.08-3.34,8.15-3.87,10.12-1.35l-.04,50.79c0,6.2-4.69,11.64-10.07,13.18-6.1,1.74-11.7,1.15-18.51-1.01Z"/>
    <circle class="cls-1" cx="545.84" cy="501.33" r="6.44"/>
  </g>
</svg>