<?xml version="1.0" encoding="UTF-8"?>
<svg id="Layer_1" data-name="Layer 1" xmlns="http://www.w3.org/2000/svg" viewBox="0 0 1023.7 174.56">
  <defs>
    <style>
      .cls-1 {
        fill: #fff;
      }
    </style>
  </defs>
  <rect class="cls-1" x="824.87" y="3.84" width="16.12" height="166.8" transform="translate(1665.85 174.49) rotate(180)"/>
  <g>
    <path class="cls-1" d="M151.03,126.6c0,6.63-1.59,12.86-4.79,18.7-3.19,5.83-7.98,10.9-14.38,15.22-6.39,4.32-14.33,7.74-23.82,10.26-9.48,2.52-20.51,3.78-33.08,3.78-10.23,0-19.35-.88-27.33-2.64-7.99-1.76-15.06-4.32-21.18-7.68-6.13-3.36-11.37-7.45-15.74-12.27-4.37-4.82-7.94-10.33-10.71-16.54l28.04,8.44c3.79,4.28,8.18,7.9,13.19,10.88,5.01,2.98,10.58,5.27,16.7,6.86,6.13,1.59,12.65,2.39,19.59,2.39,5.21,0,10.39-.57,15.5-1.7,5.12-1.13,9.69-2.81,13.74-5.04,4.05-2.22,7.3-4.95,9.76-8.17,2.44-3.23,3.67-6.99,3.67-11.27,0-5.12-1.68-9.67-5.04-13.66-3.36-3.98-7.75-7.63-13.19-10.94-.93-.57-1.88-1.12-2.85-1.68-4.72-2.7-9.98-5.27-15.76-7.7-6.99-2.94-14.1-5.86-21.34-8.8-6.45-2.61-12.79-5.34-19.02-8.19-.78-.35-1.54-.7-2.32-1.06-6.98-3.23-13.19-6.84-18.62-10.83-5.43-3.98-9.83-8.42-13.19-13.33-3.36-4.91-5.04-10.55-5.04-16.92s1.52-12.3,4.56-17.75c3.03-5.44,7.48-10.17,13.35-14.15,5.85-3.99,13.07-7.11,21.65-9.38,8.57-2.27,18.4-3.4,29.49-3.4,10.01,0,18.96.84,26.85,2.52,7.89,1.68,14.81,4.15,20.78,7.43,5.96,3.27,11.03,7.3,15.18,12.09,4.15,4.77,7.51,10.31,10.07,16.61l-26.38-7.49c-3.3-4.24-7.25-7.87-11.82-10.88-4.58-3.02-9.89-5.35-15.9-6.99-6.02-1.64-12.82-2.45-20.38-2.45-6.7,0-12.57.73-17.57,2.2-5.01,1.47-9.19,3.4-12.55,5.79-3.36,2.39-5.86,5.08-7.51,8.05-1.66,2.98-2.48,6.02-2.48,9.13,0,4.36,1.7,8.37,5.11,12.01,3.41,3.65,7.94,7.09,13.59,10.32,4.07,2.33,8.55,4.61,13.44,6.83,1.88.86,3.82,1.71,5.82,2.55,7.19,3.02,14.51,6.09,21.97,9.18,7.46,3.11,14.79,6.34,21.98,9.69,2.65,1.24,5.21,2.52,7.66,3.85,4.18,2.27,8.05,4.65,11.6,7.17,5.64,3.98,10.18,8.34,13.59,13.08,3.41,4.74,5.11,10.05,5.11,15.92Z"/>
    <path class="cls-1" d="M415.07,3.78v10.82h-111.72v59.65h74.8l-19.86,10.82h-54.94v74.75h111.72v10.82h-147.36V3.78h147.36Z"/>
    <path class="cls-1" d="M524.07,3.78h0l160.47,122.07h0V3.78h15.66v170.77h0l-159.99-123.14v-6.1,125.34h-16.14V3.78Z"/>
    <polygon class="cls-1" points="1023.7 3.84 945 87.28 924.34 109.18 866.3 170.71 824.87 170.71 866.3 126.84 903.66 87.28 924.34 65.38 982.45 3.84 1023.7 3.84"/>
    <polygon class="cls-1" points="1023.7 170.71 999.01 170.71 945 113.52 945 87.28 1023.7 170.71"/>
    <circle class="cls-1" cx="209.37" cy="87.21" r="9.43"/>
    <circle class="cls-1" cx="456.68" cy="87.21" r="9.43"/>
    <circle class="cls-1" cx="762.54" cy="87.21" r="9.43"/>
  </g>
</svg>