<?xml version="1.0" encoding="UTF-8"?>
<svg id="Layer_1" data-name="Layer 1" xmlns="http://www.w3.org/2000/svg" viewBox="0 0 1090.99 337.01">
  <defs>
    <style>
      .cls-1 {
        fill: #fff;
      }
    </style>
  </defs>
  <g>
    <path class="cls-1" d="M258.47,198.47c-5.58-9.57-15.15-16.66-27.59-22.61,15.75-11.08,24.12-24.95,24.12-41.23,0-28.79-24.12-51.26-76.73-51.26h-102.59C23.82,83.37,0,112.39,0,143.07c0,22.76,13.27,46.36,37.99,59.4l27.36-34.45c-7.31-6.26-10.55-13.04-10.55-19,0-10.03,9.2-18.17,20.88-18.17h4.9v145.1h105.83c45.38,0,70.4-15.08,76.21-42.44v-.08c.9-4.15,1.36-8.59,1.36-13.34,0-8.44-1.96-15.53-5.5-21.63ZM178.27,228.47h-35.28v-97.61h29.85c11.91,0,18.39,3.77,18.39,12.96,0,3.02-.75,5.73-2.11,7.91-2.71-.83-6.03-1.36-9.8-1.36-19.82,0-29.85,13.57-29.85,27.14s10.03,27.14,29.55,27.14c6.26,0,10.85-1.13,14.7-2.71,3.77,2.71,5.65,6.78,5.65,11.91,0,9.8-7.31,14.62-21.11,14.62Z"/>
    <path class="cls-1" d="M473.97,218.22c-5.95,7.54-13.79,13.57-26.83,13.57-1.88,0-4.07-.3-6.48-.6v-104.4h-59.7v76.21c-4.6,5.43-12.51,8.44-20.13,8.44-10.55,0-20.05-5.73-20.05-19.6v-65.05h-59.7v81.33c0,8.74,1.73,16.36,4.82,22.91,9.5,20.13,31.51,30,54.05,30,14.7,0,29.32-4.07,41.01-11.91v13.04c-3.84-.53-7.61-.83-11.38-.83-25.25,0-51.56,12.21-51.56,37.99,0,27.14,30.38,37.69,59.7,37.69,34.67,0,62.94-14.62,62.94-46.88v-10.1h.23c22.84-1.36,46.66-12.74,61.89-33.09l-28.79-28.72ZM380.96,288.17c0,9.8-7.61,13.87-15.23,13.87-6.26,0-12.44-2.71-12.44-8.44s7.54-9.72,18.39-9.72c3.02,0,6.03.23,9.27.83v3.47Z"/>
    <path class="cls-1" d="M1003.42,120.75l-38.52,7.09-33.69,91.89c-2.11,5.73-7.16,10.4-13.27,10.85-7.01.53-13.04-3.54-13.04-13.72v-90.08h-59.7l.83,7.31c-51.86-34.82-119.02,11.98-108.54,77.34-137.11,63.84-174.05-65.8-104.7-79.22,18.17,0,29.02,11.38,29.02,33.09l61.81,1.36c2.49-28.27-7.39-51.41-25.63-66.71-4.98-4.3-10.55-7.91-16.66-10.78-9.2-4.52-19.52-7.54-30.83-8.89-4.82-.68-9.87-.98-15-.98-16.28,1.43-30.45,4.98-42.66,10.25-3.17,1.28-6.26,2.79-9.12,4.37-3.54,1.81-6.86,3.92-9.95,6.03-92.64,64.52-14.17,247.24,182.04,157.01,22.09,28.49,76.36,31.51,97.84,2.49,17.34,25.25,51.11,19.97,81.56,18.77,18.92-.75,35.35-13.04,41.46-30.9l22.16-64.37c13.87,10.03,26.83,23.59,32.04,37.69-50.05-8.44-61.36,60.45-2.19,59.4,113.59-14.02,51.56-104.32-25.25-159.27ZM845.21,219.8c-59.77,48.77-63.69-82.46,0-38.52v38.52Z"/>
  </g>
  <g>
    <path class="cls-1" d="M331.39,57.59c1.66,3.47,2.49,7.69,2.49,12.66,0,10.03-3.54,17.71-10.7,23.22-7.09,5.43-17.11,8.14-30.08,8.14-8.37,0-15.6-1.21-21.78-3.62-2.19-.83-4.22-1.81-6.26-3.09v-.08c-3.84-2.11-7.46-4.97-10.93-8.44l17.26-17.26c3.54,3.39,7.31,6.03,11.23,7.76,4,1.81,8.22,2.71,12.66,2.71,3.77,0,6.63-.6,8.59-1.73,1.88-1.13,2.86-2.71,2.86-4.75s-.83-3.69-2.49-5.05c-1.66-1.28-3.84-2.49-6.56-3.54-2.71-1.06-5.65-2.11-8.89-3.24-3.32-1.13-6.56-2.41-9.72-3.99-3.24-1.58-6.18-3.47-8.89-5.73-2.71-2.26-4.9-5.05-6.56-8.37-1.66-3.39-2.49-7.46-2.49-12.36,0-6.33,1.51-11.76,4.6-16.36,3.02-4.6,7.24-8.07,12.74-10.55,5.58-2.41,11.99-3.62,19.45-3.62s14.17,1.13,20.43,3.47c6.33,2.34,11.53,5.73,15.68,10.02l-17.41,17.19c-3.01-2.94-6.03-5.13-9.05-6.56-3.01-1.36-6.33-2.11-9.95-2.11-2.79,0-5.05.45-6.78,1.36-1.73.98-2.56,2.34-2.56,4.15,0,1.96.83,3.54,2.49,4.75,1.66,1.28,3.84,2.41,6.56,3.39,2.71.98,5.65,2.04,8.97,3.17,3.24,1.13,6.48,2.41,9.65,3.92,3.24,1.51,6.18,3.47,8.89,5.8,2.71,2.34,4.9,5.28,6.56,8.74Z"/>
    <polygon class="cls-1" points="436.01 1.96 436.01 25.33 406.54 25.33 406.54 99.95 379.02 99.95 379.02 25.33 349.7 25.33 349.7 1.96 436.01 1.96"/>
    <path class="cls-1" d="M540.56,1.96v58.34c0,8.06-1.81,15.23-5.35,21.41-3.47,6.26-8.44,11.08-14.85,14.62-6.41,3.54-13.87,5.28-22.54,5.28s-16.13-1.73-22.54-5.28c-6.41-3.54-11.46-8.44-15-14.7-3.62-6.18-5.35-13.34-5.35-21.48V1.96h27.51v60.68c0,3.17.68,5.8,2.04,7.99,1.43,2.26,3.24,3.92,5.58,5.05,2.34,1.13,4.97,1.73,7.76,1.73,2.94,0,5.58-.6,7.84-1.73,2.19-1.13,3.99-2.79,5.28-4.98,1.28-2.11,1.96-4.75,1.96-7.91V1.96h27.66Z"/>
    <path class="cls-1" d="M659.81,50.95c0,2.64-.15,5.2-.53,7.69-7.61-1.28-15.53-1.96-23.74-1.96h-1.06l-.98.08c-.75.08-1.51.15-2.26.23.3-1.88.45-4,.45-6.18,0-5.65-1.05-10.4-3.09-14.17-2.04-3.77-4.97-6.56-8.67-8.44-3.69-1.88-8.14-2.86-13.27-2.86h-13.79v39.87c-10.18,3.47-19.37,7.84-27.51,13.04V1.96h41.31c7.69,0,14.77,1.13,21.26,3.39,6.48,2.34,12.06,5.65,16.88,9.95,4.75,4.3,8.44,9.5,11.08,15.45,2.56,6.03,3.92,12.74,3.92,20.2Z"/>
    <path class="cls-1" d="M708.95,1.96v77.71c-8.14-6.33-17.41-11.38-27.59-15.08V1.96h27.59Z"/>
    <path class="cls-1" d="M789.53,101.68c3.09-.3,6.03-.75,8.82-1.51-2.94.38-5.88.83-8.82,1.51Z"/>
    <path class="cls-1" d="M832.95,30.68c-2.64-6.26-6.33-11.61-11.08-16.21-4.82-4.6-10.4-8.14-16.88-10.7-6.48-2.49-13.57-3.77-21.26-3.77s-14.85,1.28-21.26,3.77c-6.48,2.56-12.14,6.11-16.88,10.7-4.82,4.6-8.52,9.95-11.08,16.13-2.64,6.11-3.92,12.89-3.92,20.2s1.28,14.02,4,20.28c2.64,6.26,6.41,11.61,11.16,16.21,4.82,4.6,10.48,8.22,16.96,10.78,6.48,2.56,13.57,3.84,21.26,3.84,1.88,0,3.69-.08,5.43-.23h.15c2.94-.68,5.88-1.13,8.82-1.51q.07.08.15,0c2.26-.53,4.45-1.21,6.56-2.04,6.41-2.56,11.99-6.11,16.81-10.78,4.75-4.6,8.44-10.03,11.08-16.21,2.64-6.18,3.92-12.96,3.92-20.2s-1.28-14.1-3.92-20.28ZM805.74,64.98c-2.04,4.07-4.9,7.16-8.67,9.42-3.77,2.19-8.22,3.24-13.34,3.24-3.84,0-7.31-.6-10.4-1.81-3.09-1.28-5.73-3.02-7.91-5.35-2.19-2.41-3.92-5.2-5.05-8.52-1.13-3.32-1.73-7.01-1.73-11.16,0-5.43,1.06-10.1,3.02-14.1,2.03-4,4.97-7.09,8.74-9.2,3.69-2.19,8.22-3.24,13.34-3.24,3.84,0,7.31.6,10.4,1.81,3.01,1.28,5.65,3.09,7.91,5.43,2.19,2.34,3.84,5.13,4.97,8.37,1.21,3.24,1.73,6.93,1.73,10.93,0,5.43-.98,10.18-3.02,14.17Z"/>
  </g>
</svg>